<svg xmlns="http://www.w3.org/2000/svg" viewBox="33 305.9 543.2 177.3"><path fill="#939598" d="M98.9 331.9v99.9H68.5v-99.9H33v-26h101.5v26H98.9zM222.5 431.8v-52.6h-49.1v52.6H143V305.9h30.4v47.6h49.1v-47.6h30.4v125.9h-30.4z"/><path fill="#D52B27" d="M273.5 431.8V305.9h30.6v125.9h-30.6z"/><path fill="#939598" d="M404.7 431.8L354 349.5h-.5l.7 82.3h-29.5V305.9h34.7l50.5 82.1h.5l-.7-82.1h29.5v125.9h-34.5zM536.6 431.8l-46.8-58h-.4v58h-29.7V305.9h29.7v51.2h.5l45-51.2h38l-54.2 58 57.4 67.9h-39.5z"/><path fill="#FFF" d="M71 475.4c-.7 1.1-1.4 2.1-2.4 3-.9.9-2 1.8-3.2 2.5-1.2.7-2.6 1.3-4 1.7-1.5.4-3.1.6-4.8.6-2.9 0-5.6-.5-8.1-1.6s-4.6-2.6-6.4-4.6c-1.8-1.9-3.2-4.2-4.2-6.9s-1.5-5.6-1.5-8.7c0-3.2.5-6.1 1.5-8.7 1-2.7 2.4-5 4.2-6.9 1.8-1.9 3.9-3.5 6.4-4.6 2.5-1.1 5.1-1.6 8-1.6 1.4 0 2.8.2 4.2.5s2.6.8 3.8 1.3c1.2.6 2.3 1.3 3.3 2.1s1.8 1.7 2.5 2.7l-3.3 2.6c-.4-.7-.9-1.3-1.6-2-.7-.7-1.5-1.3-2.4-1.8-.9-.5-1.9-.9-3-1.2-1.1-.3-2.2-.5-3.5-.5-2.5 0-4.8.5-6.7 1.5-2 1-3.7 2.3-5.1 3.9-1.4 1.7-2.4 3.6-3.2 5.8-.7 2.2-1.1 4.5-1.1 6.9 0 2.4.4 4.7 1.1 6.9.7 2.2 1.8 4.1 3.2 5.8 1.4 1.7 3.1 3 5.1 3.9 2 1 4.2 1.5 6.7 1.5 2.2 0 4.3-.5 6.3-1.5s3.7-2.5 5-4.7l3.2 2.1zM78.6 459.2c.7-1.6 1.8-2.9 3.4-3.8 1.6-.9 3.3-1.4 5.1-1.4 3.2 0 5.7 1 7.3 3.1 1.6 2.1 2.4 4.8 2.4 8.2v16.9h-3.7V467c0-1.4-.1-2.8-.3-3.9-.2-1.2-.6-2.2-1.1-3-.5-.8-1.2-1.5-2.1-2-.9-.5-2-.7-3.4-.7-1 0-1.9.2-2.9.6s-1.8 1.1-2.5 2c-.7.9-1.3 2-1.7 3.3-.4 1.4-.7 2.9-.7 4.8v14.1h-3.7v-44.4h3.7v21.4h.2zM108.1 444.1c0 .8-.3 1.5-.8 2s-1.1.8-1.8.8-1.3-.3-1.8-.8-.8-1.2-.8-2 .3-1.5.8-2 1.1-.8 1.8-.8 1.3.3 1.8.8.8 1.2.8 2zm-.8 38h-3.7v-27.5h3.7v27.5zM118 482.1h-3.7v-44.4h3.7v44.4zM146.1 477.5c-1.1 1.8-2.5 3.1-4.3 4-1.7.9-3.5 1.3-5.4 1.3-2 0-3.8-.4-5.4-1.1-1.6-.7-3-1.8-4.1-3.1-1.1-1.3-2-2.8-2.7-4.6-.6-1.8-1-3.7-1-5.7s.3-3.9 1-5.7c.6-1.8 1.5-3.3 2.7-4.6 1.1-1.3 2.5-2.3 4.1-3.1 1.6-.7 3.4-1.1 5.4-1.1 1.9 0 3.7.5 5.4 1.4 1.7.9 3.2 2.3 4.3 4.1h.1v-21.7h3.7V482h-3.7v-4.6l-.1.1zm-19-9.1c0 1.5.2 3 .7 4.3.4 1.3 1.1 2.5 1.9 3.5.8 1 1.8 1.8 3 2.3 1.2.6 2.6.9 4.1.9 1.4 0 2.7-.3 3.9-.9 1.2-.6 2.2-1.3 3.1-2.3.9-1 1.6-2.1 2-3.5.5-1.3.7-2.8.7-4.4 0-1.6-.2-3-.7-4.4-.5-1.4-1.2-2.5-2-3.5-.9-1-1.9-1.8-3.1-2.3-1.2-.6-2.5-.9-3.9-.9-1.5 0-2.9.3-4.1.9-1.2.6-2.2 1.4-3 2.4-.8 1-1.4 2.2-1.9 3.5-.5 1.4-.7 2.9-.7 4.4zM175.3 460.9c-.6-1.1-1.5-1.9-2.7-2.6-1.2-.7-2.5-1-3.8-1-1.5 0-2.8.3-4 .9-1.2.6-2.2 1.4-3.1 2.3-.9 1-1.5 2.2-2 3.5-.5 1.3-.7 2.8-.7 4.4 0 1.6.2 3 .7 4.3.5 1.3 1.1 2.5 1.9 3.5.8 1 1.9 1.8 3.1 2.3 1.2.6 2.5.9 4 .9 1.6 0 3-.3 4.1-1 1.1-.7 2.1-1.5 2.8-2.6l2.8 2.2c-1.1 1.4-2.4 2.6-4 3.5s-3.5 1.3-5.7 1.3c-2.1 0-3.9-.4-5.6-1.1-1.7-.7-3.1-1.7-4.3-3-1.2-1.3-2.1-2.8-2.8-4.6-.7-1.8-1-3.7-1-5.8 0-2.1.3-4 1-5.8.7-1.8 1.6-3.3 2.8-4.6 1.2-1.3 2.6-2.3 4.3-3 1.7-.7 3.5-1.1 5.6-1.1 1.7 0 3.4.4 5.2 1.2 1.8.8 3.2 2 4.3 3.6l-2.9 2.3zM197.3 464.3c0-2.4-.6-4.1-1.7-5.3-1.2-1.2-2.9-1.7-5.1-1.7-1.5 0-2.9.3-4.3.9-1.3.6-2.4 1.4-3.3 2.3l-2.1-2.6c1.1-1.1 2.4-2.1 4.2-2.8 1.7-.7 3.7-1.1 5.9-1.1 1.4 0 2.7.2 3.9.6 1.2.4 2.3 1 3.2 1.8.9.8 1.6 1.9 2.1 3.1.5 1.3.8 2.7.8 4.4v12c0 1.1 0 2.2.1 3.3.1 1.1.2 2.1.3 2.9H198c-.1-.7-.2-1.4-.3-2.2-.1-.8-.1-1.5-.1-2.3h-.1c-1.2 1.8-2.5 3.2-4 4-1.5.8-3.2 1.2-5.3 1.2-1 0-2-.1-3-.4-1-.3-2-.8-2.8-1.4-.9-.7-1.6-1.5-2.1-2.6-.6-1.1-.8-2.4-.8-3.9 0-2.1.5-3.8 1.5-5 1-1.2 2.3-2.2 4-2.8 1.7-.6 3.6-1 5.8-1.2 2.2-.2 4.4-.3 6.7-.3l-.2-.9zm-1.1 4.1c-1.5 0-3.1.1-4.6.2-1.5.1-2.9.4-4.2.8-1.3.4-2.3 1-3.1 1.8-.8.8-1.2 1.8-1.2 3.1 0 1 .2 1.8.5 2.5s.8 1.2 1.4 1.6c.6.4 1.2.7 1.9.9.7.2 1.4.3 2.2.3 1.3 0 2.5-.2 3.5-.7 1-.5 1.9-1.2 2.6-2 .7-.8 1.2-1.8 1.6-2.9.4-1.1.5-2.3.5-3.5v-2.1h-1.1zM207.4 457.8c0-1.2-.1-2.2-.2-3.2h3.5c.1.7.1 1.6.2 2.5 0 .9.1 1.6.1 2.2h.1c.7-1.6 1.8-2.9 3.3-3.9 1.5-1 3.1-1.5 4.9-1.5.5 0 .9 0 1.3.1.4 0 .8.1 1.2.2l-.5 3.8c-.2-.1-.6-.2-1.1-.2-.5-.1-1-.1-1.5-.1-1 0-1.9.2-2.8.6-.9.4-1.7 1-2.4 1.8s-1.2 1.9-1.6 3.2c-.4 1.3-.6 2.9-.6 4.7v14.1h-3.7v-21.4c-.2-.8-.2-1.7-.2-2.9zM246.4 467.6v.9c0 .3 0 .6-.1 1h-21.2c0 1.4.3 2.7.8 3.9.5 1.2 1.1 2.3 2 3.2.8.9 1.8 1.6 2.9 2.1 1.1.5 2.3.8 3.7.8 1.9 0 3.6-.5 5-1.4 1.4-1 2.5-2.1 3.2-3.3l2.8 2.3c-1.5 2.1-3.2 3.6-5.1 4.5-1.8.9-3.8 1.3-5.9 1.3-1.9 0-3.6-.4-5.3-1.1-1.6-.7-3-1.7-4.2-3-1.2-1.3-2.1-2.8-2.8-4.6-.7-1.8-1-3.7-1-5.8 0-2.1.3-4 1-5.8.7-1.8 1.6-3.3 2.7-4.6 1.2-1.3 2.5-2.3 4.1-3 1.6-.7 3.3-1.1 5.1-1.1 2 0 3.8.4 5.3 1.1 1.5.7 2.8 1.7 3.8 2.9s1.8 2.7 2.3 4.3c.6 1.7.9 3.5.9 5.4zm-3.8-1.3c-.1-2.6-.9-4.7-2.3-6.4-1.4-1.7-3.5-2.6-6.1-2.6-1.2 0-2.4.2-3.4.7-1.1.5-2 1.2-2.8 2-.8.8-1.4 1.8-1.9 2.9-.5 1.1-.7 2.2-.8 3.4h17.3z"/><path fill="#939598" d="M275.4 472.5l8.7 9.6h-5.5l-5.5-6.2c-1.6 2.3-3.3 4.1-5.2 5.2-1.9 1.1-4.1 1.7-6.7 1.7-1.6 0-3.2-.3-4.7-.8s-2.8-1.2-3.8-2.2c-1.1-1-2-2.2-2.6-3.6-.6-1.4-1-3.1-1-5 0-1.6.2-3 .7-4.2.5-1.3 1.1-2.4 1.9-3.4.8-1 1.7-1.9 2.8-2.7 1.1-.8 2.3-1.5 3.5-2.1-.6-.6-1.2-1.3-1.7-2.1-.6-.7-1.1-1.5-1.5-2.3-.4-.8-.8-1.7-1.1-2.6-.3-.9-.4-1.8-.4-2.8 0-1.6.3-3 .8-4.2.5-1.2 1.2-2.2 2.1-3.1.9-.8 1.9-1.5 3.1-1.9 1.2-.4 2.4-.6 3.7-.6 1.3 0 2.5.2 3.6.6 1.1.4 2.1 1 3 1.8.9.8 1.5 1.8 2 2.9.5 1.2.7 2.5.7 4 0 1.4-.2 2.6-.7 3.7-.5 1.1-1.1 2.1-2 3-.8.9-1.7 1.7-2.8 2.3-1 .7-2.1 1.3-3.2 1.9l9 10 5.4-10.1h4.4l-7 13.2zm-15.1-10.8c-2.3 1.1-4.1 2.5-5.3 4-1.2 1.5-1.8 3.4-1.8 5.7 0 1.2.2 2.3.6 3.2.4 1 1 1.8 1.7 2.5s1.6 1.2 2.6 1.6c1 .4 2 .6 3.1.6 2.1 0 3.9-.5 5.3-1.5s2.7-2.5 4-4.6l-10.2-11.5zm8.3-12.9c0-1.7-.5-3.1-1.6-4.2s-2.3-1.6-3.9-1.6c-1.7 0-3.1.6-4.2 1.7-1.1 1.2-1.6 2.7-1.6 4.7 0 .7.1 1.5.4 2.3.3.8.7 1.6 1.1 2.3.4.7.9 1.4 1.4 1.9.5.6.9 1 1.3 1.3.9-.4 1.7-.9 2.6-1.4.8-.5 1.6-1.1 2.3-1.8.7-.7 1.2-1.4 1.6-2.3.4-.9.6-1.8.6-2.9z"/><path fill="#FFF" d="M291.1 478.4h20.7v3.8h-24.6v-41.6h24v3.8h-20v14.3h18.7v3.8h-18.7v15.9zM337.3 477.5c-1.1 1.8-2.5 3.1-4.3 4-1.7.9-3.5 1.3-5.4 1.3-2 0-3.8-.4-5.4-1.1-1.6-.7-3-1.8-4.1-3.1-1.1-1.3-2-2.8-2.7-4.6-.6-1.8-1-3.7-1-5.7s.3-3.9 1-5.7c.6-1.8 1.5-3.3 2.7-4.6 1.1-1.3 2.5-2.3 4.1-3.1 1.6-.7 3.4-1.1 5.4-1.1 1.9 0 3.7.5 5.4 1.4 1.7.9 3.2 2.3 4.3 4.1h.1v-21.7h3.7V482h-3.7v-4.6l-.1.1zm-18.9-9.1c0 1.5.2 3 .7 4.3.4 1.3 1.1 2.5 1.9 3.5.8 1 1.8 1.8 3 2.3 1.2.6 2.6.9 4.1.9 1.4 0 2.7-.3 3.9-.9 1.2-.6 2.2-1.3 3.1-2.3.9-1 1.6-2.1 2-3.5.5-1.3.7-2.8.7-4.4 0-1.6-.2-3-.7-4.4-.5-1.4-1.2-2.5-2-3.5-.9-1-1.9-1.8-3.1-2.3-1.2-.6-2.5-.9-3.9-.9-1.5 0-2.9.3-4.1.9-1.2.6-2.2 1.4-3 2.4-.8 1-1.4 2.2-1.9 3.5-.5 1.4-.7 2.9-.7 4.4zM366.7 482.1c-.1-.7-.1-1.6-.2-2.5 0-.9-.1-1.6-.1-2.2h-.1c-.7 1.6-1.9 2.9-3.5 3.9s-3.4 1.5-5.2 1.5c-3.2 0-5.7-1-7.3-3.1-1.6-2.1-2.4-4.8-2.4-8.2v-16.8h3.7v15.2c0 1.4.1 2.8.3 3.9.2 1.2.6 2.2 1.1 3 .5.8 1.2 1.5 2.1 2 .9.5 2 .7 3.4.7 1 0 1.9-.2 2.9-.6.9-.4 1.8-1.1 2.5-2 .7-.9 1.3-2 1.7-3.3.4-1.3.7-2.9.7-4.8v-14.1h3.7v21.4c0 .7 0 1.7.1 2.9 0 1.2.1 2.2.2 3.2l-3.6-.1zM395.3 460.9c-.6-1.1-1.5-1.9-2.7-2.6-1.2-.7-2.5-1-3.8-1-1.5 0-2.8.3-4 .9-1.2.6-2.2 1.4-3.1 2.3-.9 1-1.5 2.2-2 3.5-.5 1.3-.7 2.8-.7 4.4 0 1.6.2 3 .7 4.3.5 1.3 1.1 2.5 1.9 3.5.8 1 1.9 1.8 3.1 2.3s2.5.9 4 .9c1.6 0 3-.3 4.1-1 1.1-.7 2.1-1.5 2.8-2.6l2.8 2.2c-1.1 1.4-2.4 2.6-4 3.5-1.6.9-3.5 1.3-5.7 1.3-2.1 0-3.9-.4-5.6-1.1-1.7-.7-3.1-1.7-4.3-3-1.2-1.3-2.1-2.8-2.8-4.6-.7-1.8-1-3.7-1-5.8 0-2.1.3-4 1-5.8.7-1.8 1.6-3.3 2.8-4.6 1.2-1.3 2.6-2.3 4.3-3 1.7-.7 3.5-1.1 5.6-1.1 1.7 0 3.4.4 5.2 1.2 1.8.8 3.2 2 4.3 3.6l-2.9 2.3zM417.4 464.3c0-2.4-.6-4.1-1.7-5.3-1.2-1.2-2.9-1.7-5.1-1.7-1.5 0-2.9.3-4.3.9-1.3.6-2.4 1.4-3.3 2.3l-2.1-2.6c1.1-1.1 2.4-2.1 4.2-2.8 1.7-.7 3.7-1.1 5.9-1.1 1.4 0 2.7.2 3.9.6 1.2.4 2.3 1 3.2 1.8.9.8 1.6 1.9 2.1 3.1.5 1.3.8 2.7.8 4.4v12c0 1.1 0 2.2.1 3.3.1 1.1.2 2.1.3 2.9H418c-.1-.7-.2-1.4-.3-2.2-.1-.8-.1-1.5-.1-2.3h-.1c-1.2 1.8-2.5 3.2-4 4s-3.2 1.2-5.3 1.2c-1 0-2-.1-3-.4-1-.3-2-.8-2.8-1.4-.9-.7-1.6-1.5-2.1-2.6-.6-1.1-.8-2.4-.8-3.9 0-2.1.5-3.8 1.5-5 1-1.2 2.3-2.2 4-2.8 1.7-.6 3.6-1 5.8-1.2 2.2-.2 4.4-.3 6.7-.3l-.1-.9zm-1.1 4.1c-1.5 0-3.1.1-4.6.2-1.5.1-2.9.4-4.2.8-1.3.4-2.3 1-3.1 1.8-.8.8-1.2 1.8-1.2 3.1 0 1 .2 1.8.5 2.5s.8 1.2 1.4 1.6c.6.4 1.2.7 1.9.9.7.2 1.4.3 2.2.3 1.3 0 2.5-.2 3.5-.7 1-.5 1.9-1.2 2.6-2 .7-.8 1.2-1.8 1.6-2.9.4-1.1.5-2.3.5-3.5v-2.1h-1.1zM438.4 458h-7.2v16c0 1 .1 1.9.3 2.5.2.7.4 1.2.8 1.6s.8.6 1.2.8c.5.1 1 .2 1.5.2s1-.1 1.6-.2c.6-.2 1.1-.4 1.6-.6l.2 3.5c-.7.3-1.3.5-2 .6-.7.1-1.5.2-2.3.2-.7 0-1.4-.1-2.2-.3-.8-.2-1.5-.6-2.1-1.1-.7-.5-1.2-1.3-1.6-2.2-.4-.9-.6-2.2-.6-3.7V458h-5.3v-3.3h5.3V447h3.7v7.7h7.2l-.1 3.3zM445.8 444.1c0 .8-.3 1.5-.8 2s-1.1.8-1.8.8-1.3-.3-1.8-.8-.8-1.2-.8-2 .3-1.5.8-2 1.1-.8 1.8-.8 1.3.3 1.8.8.8 1.2.8 2zm-.8 38h-3.7v-27.5h3.7v27.5zM477.4 468.4c0 2.1-.3 4-1 5.8-.7 1.8-1.6 3.3-2.8 4.6-1.2 1.3-2.6 2.3-4.3 3-1.7.7-3.5 1.1-5.5 1.1s-3.8-.4-5.5-1.1c-1.7-.7-3.1-1.7-4.3-3-1.2-1.3-2.1-2.8-2.8-4.6-.7-1.8-1-3.7-1-5.8 0-2.1.3-4 1-5.8.7-1.8 1.6-3.3 2.8-4.6 1.2-1.3 2.6-2.3 4.3-3 1.7-.7 3.5-1.1 5.5-1.1s3.8.4 5.5 1.1c1.7.7 3.1 1.7 4.3 3 1.2 1.3 2.1 2.8 2.8 4.6.6 1.8 1 3.7 1 5.8zm-4 0c0-1.5-.2-3-.7-4.3-.5-1.3-1.1-2.5-1.9-3.5-.8-1-1.9-1.8-3.1-2.4-1.2-.6-2.6-.9-4-.9-1.5 0-2.8.3-4 .9-1.2.6-2.2 1.4-3 2.4-.8 1-1.5 2.2-1.9 3.5-.5 1.3-.7 2.8-.7 4.3s.2 3 .7 4.3c.5 1.3 1.1 2.5 1.9 3.5.8 1 1.8 1.8 3 2.3 1.2.6 2.5.9 4 .9s2.8-.3 4-.9c1.2-.6 2.2-1.4 3.1-2.3.8-1 1.5-2.2 1.9-3.5.5-1.4.7-2.8.7-4.3zM485.7 454.6c.1.7.1 1.6.2 2.5 0 .9.1 1.6.1 2.2h.1c.7-1.6 1.9-2.9 3.5-3.9s3.4-1.5 5.2-1.5c3.2 0 5.7 1 7.3 3.1 1.6 2.1 2.4 4.8 2.4 8.2v16.9h-3.7v-15.2c0-1.4-.1-2.8-.3-3.9-.2-1.2-.6-2.2-1.1-3-.5-.8-1.2-1.5-2.1-2-.9-.5-2-.7-3.4-.7-1 0-1.9.2-2.9.6-.9.4-1.8 1.1-2.5 2-.7.9-1.3 2-1.7 3.3-.4 1.4-.7 2.9-.7 4.8v14.1h-3.7v-21.4c0-.7 0-1.7-.1-2.9 0-1.2-.1-2.2-.2-3.2h3.6z"/><path fill="#939598" d="M515.3 478.4h18v3.8h-21.9v-41.6h3.9v37.8zM547.6 458h-7.2v16c0 1 .1 1.9.3 2.5.2.7.4 1.2.8 1.6.3.4.8.6 1.2.8.5.1 1 .2 1.5.2s1-.1 1.6-.2c.6-.2 1.1-.4 1.6-.6l.2 3.5c-.7.3-1.3.5-2 .6-.7.1-1.5.2-2.3.2-.7 0-1.4-.1-2.2-.3-.8-.2-1.5-.6-2.1-1.1-.7-.5-1.2-1.3-1.6-2.2-.4-.9-.6-2.2-.6-3.7V458h-5.3v-3.3h5.3V447h3.7v7.7h7.2l-.1 3.3zM571.4 477.5c-1.1 1.8-2.5 3.1-4.3 4-1.7.9-3.5 1.3-5.4 1.3-2 0-3.8-.4-5.4-1.1-1.6-.7-3-1.8-4.1-3.1-1.1-1.3-2-2.8-2.7-4.6-.6-1.8-1-3.7-1-5.7s.3-3.9 1-5.7c.6-1.8 1.5-3.3 2.7-4.6 1.1-1.3 2.5-2.3 4.1-3.1 1.6-.7 3.4-1.1 5.4-1.1 1.9 0 3.7.5 5.4 1.4 1.7.9 3.2 2.3 4.3 4.1h.1v-21.7h3.7V482h-3.7v-4.6l-.1.1zm-18.9-9.1c0 1.5.2 3 .7 4.3.4 1.3 1.1 2.5 1.9 3.5.8 1 1.8 1.8 3 2.3 1.2.6 2.6.9 4.1.9 1.4 0 2.7-.3 3.9-.9 1.2-.6 2.2-1.3 3.1-2.3.9-1 1.6-2.1 2-3.5.5-1.3.7-2.8.7-4.4 0-1.6-.2-3-.7-4.4-.5-1.4-1.2-2.5-2-3.5-.9-1-1.9-1.8-3.1-2.3-1.2-.6-2.5-.9-3.9-.9-1.5 0-2.9.3-4.1.9-1.2.6-2.2 1.4-3 2.4-.8 1-1.4 2.2-1.9 3.5-.5 1.4-.7 2.9-.7 4.4z"/><path fill="#00AEEF" d="M68.5 305.9h30.4v125.9H68.5z"/><path fill="#7053A3" d="M143 305.9h30.4v125.9H143z"/><path fill="#FEBE27" d="M439.2 431.8h-34.5l-80-125.9h34.7"/><path fill="#71BF44" d="M459.8 305.9h29.7v125.9h-29.7z"/></svg>