<svg xmlns="http://www.w3.org/2000/svg" viewBox="5.9 294.1 597.1 194.8"><path fill="#414042" d="M78.4 322.6v109.8H45V322.6H5.9v-28.5h111.6v28.5H78.4zM214.2 432.4v-57.8h-53.9v57.8h-33.4V294.1h33.4v52.4h53.9v-52.4h33.4v138.3h-33.4z"/><path fill="#D52B27" d="M270.3 432.4V294.1h33.6v138.3h-33.6z"/><path fill="#414042" d="M414.4 432.4L358.8 342h-.6l.8 90.5h-32.4V294.1h38.1l55.5 90.3h.6l-.8-90.3h32.4v138.3h-38zM559.4 432.4L508 368.7h-.4v63.7H475V294.1h32.6v56.3h.6l49.4-56.3h41.8l-59.6 63.7 63.1 74.6h-43.5zM47.7 480.3c-.7 1.2-1.6 2.3-2.6 3.3s-2.2 1.9-3.5 2.7c-1.3.8-2.8 1.4-4.4 1.9-1.6.5-3.4.7-5.3.7-3.2 0-6.2-.6-8.9-1.8-2.7-1.2-5.1-2.9-7-5-2-2.1-3.5-4.7-4.6-7.6-1.1-2.9-1.7-6.1-1.7-9.6s.6-6.7 1.7-9.6c1.1-2.9 2.7-5.5 4.7-7.6 2-2.1 4.3-3.8 7-5 2.7-1.2 5.6-1.8 8.8-1.8 1.6 0 3.1.2 4.6.5 1.5.3 2.9.8 4.2 1.5 1.3.6 2.5 1.4 3.6 2.3 1.1.9 2 1.9 2.7 3l-3.6 2.8c-.4-.7-1-1.5-1.8-2.2-.7-.7-1.6-1.4-2.6-1.9-1-.6-2.1-1-3.3-1.4-1.2-.3-2.5-.5-3.8-.5-2.8 0-5.2.5-7.4 1.6s-4 2.5-5.6 4.3c-1.5 1.8-2.7 3.9-3.5 6.3-.8 2.4-1.2 4.9-1.2 7.6 0 2.7.4 5.2 1.2 7.6.8 2.4 2 4.5 3.5 6.3 1.5 1.8 3.4 3.3 5.6 4.3 2.2 1.1 4.6 1.6 7.4 1.6 2.4 0 4.8-.5 7-1.6s4-2.8 5.5-5.2l3.3 2.5zM56 462.5c.8-1.8 2-3.2 3.8-4.2 1.8-1 3.6-1.5 5.6-1.5 3.6 0 6.2 1.1 8 3.4 1.8 2.3 2.7 5.3 2.7 9v18.5H72V471c0-1.6-.1-3-.4-4.3-.2-1.3-.7-2.4-1.2-3.3-.6-.9-1.4-1.6-2.3-2.2-1-.5-2.2-.8-3.7-.8-1.1 0-2.1.2-3.2.7-1 .5-1.9 1.2-2.7 2.2-.8 1-1.4 2.2-1.9 3.7s-.7 3.2-.7 5.3v15.5h-4.1V439h4.1v23.6l.1-.1zM88.4 445.9c0 .9-.3 1.6-.9 2.2-.6.6-1.3.9-2 .9s-1.4-.3-2-.9c-.6-.6-.9-1.3-.9-2.2 0-.9.3-1.6.9-2.2.6-.6 1.3-.9 2-.9s1.4.3 2 .9.9 1.3.9 2.2zm-.8 41.9h-4.1v-30.2h4.1v30.2zM99.4 487.8h-4.1V439h4.1v48.8zM130.2 482.7c-1.2 1.9-2.8 3.4-4.7 4.4-1.9 1-3.9 1.5-5.9 1.5-2.2 0-4.2-.4-6-1.2-1.8-.8-3.3-1.9-4.6-3.4-1.3-1.4-2.2-3.1-2.9-5-.7-1.9-1.1-4-1.1-6.3 0-2.2.3-4.3 1.1-6.3.7-1.9 1.7-3.6 2.9-5 1.3-1.4 2.8-2.5 4.6-3.4 1.8-.8 3.8-1.2 6-1.2 2 0 4 .5 5.9 1.5 1.9 1 3.5 2.5 4.7 4.5h.1V439h4.1v48.8h-4.1v-5.1h-.1zm-20.8-10c0 1.7.2 3.3.7 4.7.5 1.5 1.2 2.8 2.1 3.9.9 1.1 2 2 3.3 2.6 1.3.6 2.8.9 4.5.9 1.6 0 3-.3 4.3-.9 1.3-.6 2.5-1.5 3.4-2.5 1-1.1 1.7-2.4 2.3-3.8.5-1.5.8-3.1.8-4.8 0-1.7-.3-3.3-.8-4.8s-1.3-2.8-2.3-3.9c-1-1.1-2.1-2-3.4-2.6-1.3-.6-2.8-.9-4.3-.9-1.7 0-3.2.3-4.5 1-1.3.6-2.4 1.5-3.3 2.6-.9 1.1-1.6 2.4-2.1 3.9-.5 1.3-.7 2.9-.7 4.6zM162.3 464.5c-.7-1.2-1.7-2.1-3-2.9-1.3-.8-2.7-1.1-4.2-1.1-1.6 0-3.1.3-4.4.9-1.3.6-2.5 1.5-3.4 2.6-.9 1.1-1.7 2.4-2.2 3.9-.5 1.5-.8 3.1-.8 4.8 0 1.7.2 3.3.8 4.8.5 1.5 1.2 2.7 2.1 3.8.9 1.1 2 2 3.4 2.6 1.3.6 2.8.9 4.4.9 1.8 0 3.3-.4 4.6-1.1 1.2-.7 2.3-1.7 3.1-2.8l3.1 2.5c-1.2 1.6-2.7 2.9-4.4 3.8-1.7.9-3.8 1.4-6.3 1.4-2.3 0-4.3-.4-6.2-1.2-1.8-.8-3.4-1.9-4.7-3.3-1.3-1.4-2.3-3.1-3-5-.7-1.9-1.1-4-1.1-6.3s.4-4.4 1.1-6.3c.7-1.9 1.7-3.6 3-5s2.9-2.5 4.7-3.3c1.8-.8 3.9-1.2 6.2-1.2 1.9 0 3.8.4 5.7 1.3 1.9.9 3.5 2.2 4.7 3.9l-3.2 2.3zM186.5 468.2c0-2.6-.6-4.5-1.9-5.8-1.3-1.3-3.1-1.9-5.6-1.9-1.7 0-3.2.3-4.7 1-1.4.6-2.7 1.5-3.7 2.6l-2.3-2.9c1.2-1.2 2.7-2.3 4.6-3.1 1.9-.8 4.1-1.2 6.5-1.2 1.5 0 2.9.2 4.3.7 1.3.5 2.5 1.1 3.5 2 1 .9 1.8 2 2.3 3.4.6 1.4.8 3 .8 4.8V481c0 1.2 0 2.4.1 3.6.1 1.2.2 2.3.4 3.2h-3.7c-.1-.7-.2-1.5-.3-2.4-.1-.9-.1-1.7-.1-2.5h-.1c-1.3 2-2.7 3.5-4.4 4.4s-3.6 1.3-5.9 1.3c-1.1 0-2.2-.2-3.3-.5-1.1-.3-2.2-.9-3.1-1.6-.9-.7-1.7-1.7-2.3-2.8-.6-1.2-.9-2.6-.9-4.3 0-2.3.5-4.2 1.7-5.5 1.1-1.4 2.6-2.4 4.4-3 1.8-.7 4-1.1 6.3-1.3 2.4-.2 4.9-.3 7.4-.3v-1.1zm-1.2 4.5c-1.7 0-3.4.1-5.1.2-1.7.2-3.2.5-4.6.9-1.4.5-2.5 1.1-3.4 2-.9.9-1.3 2-1.3 3.4 0 1.1.2 2 .6 2.7.4.7.9 1.3 1.5 1.8s1.4.8 2.1 1c.8.2 1.6.3 2.4.3 1.4 0 2.7-.3 3.8-.8 1.1-.5 2.1-1.3 2.8-2.2.8-.9 1.3-2 1.7-3.2.4-1.2.6-2.5.6-3.8v-2.3h-1.1zM197.6 461c0-1.3-.1-2.5-.2-3.5h3.9c.1.8.1 1.7.2 2.7 0 1 .1 1.8.1 2.5h.1c.8-1.8 2-3.2 3.6-4.3 1.6-1.1 3.4-1.6 5.4-1.6.5 0 1 0 1.4.1.4 0 .8.1 1.3.3l-.5 4.2c-.2-.1-.6-.2-1.2-.3-.6-.1-1.1-.1-1.7-.1-1.1 0-2.1.2-3.1.6-1 .4-1.9 1.1-2.6 2-.7.9-1.3 2.1-1.8 3.5s-.7 3.2-.7 5.2v15.4h-4.1v-23.6c-.1-.7-.1-1.8-.1-3.1zM240.5 471.8v1c0 .3 0 .7-.1 1.1h-23.3c0 1.5.3 2.9.8 4.3.5 1.3 1.2 2.5 2.2 3.5.9 1 2 1.8 3.2 2.4 1.2.6 2.6.9 4 .9 2.1 0 4-.5 5.5-1.6s2.7-2.3 3.5-3.6l3.1 2.6c-1.7 2.3-3.5 3.9-5.6 4.9-2 1-4.2 1.5-6.5 1.5-2.1 0-4-.4-5.8-1.2-1.8-.8-3.3-1.9-4.6-3.3-1.3-1.4-2.3-3.1-3-5-.7-1.9-1.1-4-1.1-6.3s.4-4.4 1.1-6.3c.7-1.9 1.7-3.6 3-5s2.8-2.5 4.5-3.3c1.7-.8 3.6-1.2 5.6-1.2 2.2 0 4.1.4 5.8 1.2 1.7.8 3.1 1.9 4.2 3.2 1.1 1.4 2 2.9 2.6 4.7.6 1.5.9 3.4.9 5.5zm-4.2-1.5c-.1-2.8-1-5.2-2.6-7.1-1.6-1.9-3.8-2.8-6.8-2.8-1.4 0-2.6.3-3.8.8-1.2.5-2.2 1.3-3.1 2.2-.9.9-1.6 2-2.1 3.2-.5 1.2-.8 2.4-.9 3.7h19.3z"/><path fill="#939598" d="M272.4 477.2l9.5 10.6h-6l-6-6.8c-1.8 2.6-3.7 4.5-5.7 5.7-2 1.2-4.5 1.8-7.4 1.8-1.8 0-3.5-.3-5.1-.8-1.6-.6-3-1.4-4.2-2.4-1.2-1.1-2.2-2.4-2.9-3.9-.7-1.6-1.1-3.4-1.1-5.5 0-1.7.2-3.3.8-4.6.5-1.4 1.2-2.6 2.1-3.7.9-1.1 1.9-2.1 3.1-2.9 1.2-.9 2.5-1.6 3.9-2.3-.6-.7-1.3-1.4-1.9-2.3-.6-.8-1.2-1.7-1.7-2.5-.5-.9-.9-1.8-1.2-2.8-.3-1-.5-2-.5-3 0-1.7.3-3.2.8-4.6.6-1.3 1.3-2.5 2.3-3.4 1-.9 2.1-1.6 3.4-2.1 1.3-.5 2.6-.7 4.1-.7 1.4 0 2.7.2 4 .7 1.2.5 2.3 1.1 3.3 2 .9.9 1.7 2 2.2 3.2.5 1.3.8 2.7.8 4.4 0 1.5-.3 2.9-.8 4.1-.5 1.2-1.3 2.3-2.2 3.3-.9 1-1.9 1.8-3.1 2.6-1.1.8-2.3 1.5-3.5 2.1l9.9 11 5.9-11.1h4.9l-7.7 13.9zm-16.6-11.9c-2.6 1.2-4.5 2.7-5.8 4.4-1.3 1.7-2 3.8-2 6.2 0 1.3.2 2.5.7 3.5.5 1.1 1.1 2 1.9 2.7.8.8 1.8 1.3 2.9 1.8 1.1.4 2.2.6 3.4.6 2.3 0 4.3-.6 5.8-1.7s3-2.8 4.4-5l-11.3-12.5zm9-14.1c0-1.9-.6-3.4-1.7-4.6-1.1-1.2-2.6-1.8-4.3-1.8-1.9 0-3.4.6-4.6 1.9-1.2 1.3-1.8 3-1.8 5.1 0 .8.2 1.7.5 2.5.3.9.7 1.7 1.2 2.5s1 1.5 1.5 2.1c.5.6 1 1.1 1.4 1.5 1-.5 1.9-1 2.8-1.6.9-.6 1.7-1.2 2.5-2 .7-.7 1.3-1.6 1.8-2.5.5-.9.7-2 .7-3.1z"/><path fill="#414042" d="M289.6 483.6h22.7v4.1h-27.1V442h26.3v4.1h-22v15.7h20.6v4.1h-20.6l.1 17.7zM340.4 482.7c-1.2 1.9-2.8 3.4-4.7 4.4-1.9 1-3.9 1.5-5.9 1.5-2.2 0-4.2-.4-6-1.2-1.8-.8-3.3-1.9-4.6-3.4-1.3-1.4-2.2-3.1-2.9-5-.7-1.9-1.1-4-1.1-6.3 0-2.2.3-4.3 1.1-6.3.7-1.9 1.7-3.6 2.9-5 1.3-1.4 2.8-2.5 4.6-3.4 1.8-.8 3.8-1.2 6-1.2 2 0 4 .5 5.9 1.5 1.9 1 3.5 2.5 4.7 4.5h.1V439h4.1v48.8h-4.1v-5.1h-.1zm-20.8-10c0 1.7.2 3.3.7 4.7.5 1.5 1.2 2.8 2.1 3.9.9 1.1 2 2 3.3 2.6 1.3.6 2.8.9 4.5.9 1.6 0 3-.3 4.3-.9 1.3-.6 2.5-1.5 3.4-2.5 1-1.1 1.7-2.4 2.3-3.8.5-1.5.8-3.1.8-4.8 0-1.7-.3-3.3-.8-4.8s-1.3-2.8-2.3-3.9c-1-1.1-2.1-2-3.4-2.6-1.3-.6-2.8-.9-4.3-.9-1.7 0-3.2.3-4.5 1-1.3.6-2.4 1.5-3.3 2.6-.9 1.1-1.6 2.4-2.1 3.9-.5 1.3-.7 2.9-.7 4.6zM372.7 487.8c-.1-.8-.1-1.7-.2-2.7 0-1-.1-1.8-.1-2.5h-.1c-.8 1.8-2.1 3.2-3.9 4.3-1.8 1.1-3.7 1.6-5.7 1.6-3.6 0-6.2-1.1-8-3.4-1.8-2.3-2.7-5.3-2.7-9v-18.5h4.1v16.7c0 1.6.1 3 .4 4.3.2 1.3.6 2.4 1.2 3.3.6.9 1.4 1.6 2.3 2.2 1 .5 2.2.8 3.7.8 1.1 0 2.1-.2 3.2-.7 1-.5 1.9-1.2 2.7-2.2.8-1 1.4-2.2 1.9-3.7s.7-3.2.7-5.3v-15.5h4.1v23.6c0 .8 0 1.9.1 3.2 0 1.3.1 2.5.2 3.5h-3.9zM404.1 464.5c-.7-1.2-1.7-2.1-3-2.9-1.3-.8-2.7-1.1-4.2-1.1-1.6 0-3.1.3-4.4.9-1.3.6-2.5 1.5-3.4 2.6-.9 1.1-1.7 2.4-2.2 3.9-.5 1.5-.8 3.1-.8 4.8 0 1.7.2 3.3.8 4.8.5 1.5 1.2 2.7 2.1 3.8.9 1.1 2 2 3.4 2.6 1.3.6 2.8.9 4.4.9 1.8 0 3.3-.4 4.6-1.1 1.2-.7 2.3-1.7 3.1-2.8l3.1 2.5c-1.2 1.6-2.7 2.9-4.4 3.8-1.7.9-3.8 1.4-6.3 1.4-2.3 0-4.3-.4-6.2-1.2-1.8-.8-3.4-1.9-4.7-3.3-1.3-1.4-2.3-3.1-3-5-.7-1.9-1.1-4-1.1-6.3s.4-4.4 1.1-6.3c.7-1.9 1.7-3.6 3-5s2.9-2.5 4.7-3.3c1.8-.8 3.9-1.2 6.2-1.2 1.9 0 3.8.4 5.7 1.3 1.9.9 3.5 2.2 4.7 3.9l-3.2 2.3zM428.4 468.2c0-2.6-.6-4.5-1.9-5.8-1.3-1.3-3.1-1.9-5.6-1.9-1.7 0-3.2.3-4.7 1-1.4.6-2.7 1.5-3.7 2.6l-2.3-2.9c1.2-1.2 2.7-2.3 4.6-3.1 1.9-.8 4.1-1.2 6.5-1.2 1.5 0 2.9.2 4.3.7 1.3.5 2.5 1.1 3.5 2 1 .9 1.8 2 2.3 3.4.6 1.4.8 3 .8 4.8V481c0 1.2 0 2.4.1 3.6.1 1.2.2 2.3.4 3.2H429c-.1-.7-.2-1.5-.3-2.4-.1-.9-.1-1.7-.1-2.5h-.1c-1.3 2-2.7 3.5-4.4 4.4-1.6.9-3.6 1.3-5.9 1.3-1.1 0-2.2-.2-3.3-.5-1.1-.3-2.2-.9-3.1-1.6-.9-.7-1.7-1.7-2.3-2.8-.6-1.2-.9-2.6-.9-4.3 0-2.3.5-4.2 1.7-5.5 1.1-1.4 2.6-2.4 4.4-3 1.8-.7 4-1.1 6.3-1.3 2.4-.2 4.9-.3 7.4-.3v-1.1zm-1.2 4.5c-1.7 0-3.4.1-5.1.2-1.7.2-3.2.5-4.6.9-1.4.5-2.5 1.1-3.4 2-.9.9-1.3 2-1.3 3.4 0 1.1.2 2 .6 2.7.4.7.9 1.3 1.5 1.8s1.4.8 2.1 1c.8.2 1.6.3 2.4.3 1.4 0 2.7-.3 3.8-.8 1.1-.5 2.1-1.3 2.8-2.2.8-.9 1.3-2 1.7-3.2.4-1.2.6-2.5.6-3.8v-2.3h-1.1zM451.5 461.2h-7.9v17.6c0 1.1.1 2 .3 2.8.2.7.5 1.3.9 1.7.4.4.8.7 1.4.8.5.2 1.1.2 1.7.2.6 0 1.1-.1 1.8-.3.6-.2 1.2-.4 1.8-.7l.2 3.8c-.7.3-1.5.5-2.3.7-.8.2-1.6.2-2.6.2-.8 0-1.6-.1-2.4-.3-.8-.2-1.6-.6-2.3-1.2-.7-.6-1.3-1.4-1.8-2.5-.5-1-.7-2.4-.7-4.1v-18.8h-5.8v-3.7h5.8V449h4.1v8.5h7.9l-.1 3.7zM459.6 445.9c0 .9-.3 1.6-.9 2.2-.6.6-1.3.9-2 .9s-1.4-.3-2-.9c-.6-.6-.9-1.3-.9-2.2 0-.9.3-1.6.9-2.2.6-.6 1.3-.9 2-.9s1.4.3 2 .9c.6.6.9 1.3.9 2.2zm-.8 41.9h-4.1v-30.2h4.1v30.2zM494.3 472.7c0 2.3-.4 4.4-1.1 6.3-.7 1.9-1.8 3.6-3.1 5s-2.9 2.5-4.7 3.3c-1.8.8-3.9 1.2-6.1 1.2-2.2 0-4.2-.4-6-1.2-1.8-.8-3.4-1.9-4.7-3.3-1.3-1.4-2.4-3.1-3.1-5-.7-1.9-1.1-4-1.1-6.3s.4-4.4 1.1-6.3c.7-1.9 1.8-3.6 3.1-5s2.9-2.5 4.7-3.3c1.8-.8 3.8-1.2 6-1.2s4.2.4 6.1 1.2c1.8.8 3.4 1.9 4.7 3.3 1.3 1.4 2.3 3.1 3.1 5 .8 1.9 1.1 4 1.1 6.3zm-4.3 0c0-1.7-.3-3.3-.8-4.7-.5-1.5-1.2-2.8-2.1-3.9-.9-1.1-2-2-3.4-2.6-1.3-.6-2.8-1-4.4-1-1.6 0-3.1.3-4.4 1-1.3.6-2.4 1.5-3.3 2.6-.9 1.1-1.6 2.4-2.1 3.9s-.8 3.1-.8 4.7c0 1.7.2 3.3.8 4.7.5 1.5 1.2 2.8 2.1 3.9.9 1.1 2 2 3.3 2.6 1.3.6 2.8.9 4.4.9 1.6 0 3.1-.3 4.4-.9 1.3-.6 2.4-1.5 3.4-2.6.9-1.1 1.6-2.4 2.1-3.9.6-1.5.8-3.1.8-4.7zM503.5 457.6c.1.8.1 1.7.2 2.7 0 1 .1 1.8.1 2.5h.1c.8-1.8 2.1-3.2 3.9-4.3 1.8-1.1 3.7-1.6 5.7-1.6 3.6 0 6.2 1.1 8 3.4 1.8 2.3 2.7 5.3 2.7 9v18.5h-4.1V471c0-1.6-.1-3-.4-4.3-.2-1.3-.7-2.4-1.2-3.3-.6-.9-1.4-1.6-2.3-2.2-1-.5-2.2-.8-3.7-.8-1.1 0-2.1.2-3.2.7-1 .5-1.9 1.2-2.7 2.2-.8 1-1.4 2.2-1.9 3.7s-.7 3.2-.7 5.3v15.5h-4.1v-23.6c0-.8 0-1.9-.1-3.2 0-1.3-.1-2.5-.2-3.5l3.9.1z"/><path fill="#939598" d="M536 483.6h19.8v4.1h-24.1V442h4.3v41.6zM571.5 461.2h-7.9v17.6c0 1.1.1 2 .3 2.8.2.7.5 1.3.9 1.7.4.4.8.7 1.4.8.5.2 1.1.2 1.7.2.6 0 1.1-.1 1.8-.3.6-.2 1.2-.4 1.8-.7l.2 3.8c-.7.3-1.5.5-2.3.7-.8.2-1.6.2-2.6.2-.8 0-1.6-.1-2.4-.3-.8-.2-1.6-.6-2.3-1.2-.7-.6-1.3-1.4-1.8-2.5-.5-1-.7-2.4-.7-4.1v-18.8h-5.8v-3.7h5.8V449h4.1v8.5h7.9l-.1 3.7zM597.7 482.7c-1.2 1.9-2.8 3.4-4.7 4.4-1.9 1-3.9 1.5-5.9 1.5-2.2 0-4.2-.4-6-1.2-1.8-.8-3.3-1.9-4.6-3.4-1.3-1.4-2.2-3.1-2.9-5-.7-1.9-1.1-4-1.1-6.3 0-2.2.3-4.3 1.1-6.3.7-1.9 1.7-3.6 2.9-5 1.3-1.4 2.8-2.5 4.6-3.4 1.8-.8 3.8-1.2 6-1.2 2 0 4 .5 5.9 1.5 1.9 1 3.5 2.5 4.7 4.5h.1V439h4.1v48.8h-4.1v-5.1h-.1zm-20.8-10c0 1.7.2 3.3.7 4.7.5 1.5 1.2 2.8 2.1 3.9.9 1.1 2 2 3.3 2.6 1.3.6 2.8.9 4.5.9 1.6 0 3-.3 4.3-.9 1.3-.6 2.5-1.5 3.4-2.5 1-1.1 1.7-2.4 2.3-3.8.5-1.5.8-3.1.8-4.8 0-1.7-.3-3.3-.8-4.8s-1.3-2.8-2.3-3.9c-1-1.1-2.1-2-3.4-2.6-1.3-.6-2.8-.9-4.3-.9-1.7 0-3.2.3-4.5 1-1.3.6-2.4 1.5-3.3 2.6-.9 1.1-1.6 2.4-2.1 3.9-.5 1.3-.7 2.9-.7 4.6z"/><path fill="#00AEEF" d="M45 294.1h33.4v138.3H45z"/><path fill="#7053A3" d="M126.8 294.1h33.4v138.3h-33.4z"/><path fill="#FEBE27" d="M452.3 432.4h-37.9l-87.9-138.3h38.1"/><path fill="#71BF44" d="M475 294.1h32.6v138.3H475z"/></svg>