<svg id="Layer_1" xmlns="http://www.w3.org/2000/svg" viewBox="0 0 1126.1 365.3"><style>.st0{fill:#404041;} .st1{fill:#D52A27;} .st2{fill:#929497;} .st3{fill:#00ADEE;} .st4{fill:#7053A2;} .st5{fill:#FDBD26;} .st6{fill:#70BE44;}</style><g id="XMLID_37_"><path class="st0" d="M136.7 53.8v207.1h-63V53.8H0V0h210.4v53.8h-73.7zM392.8 260.9V151.8H291.1v109.1h-63V0h63v98.8h101.7V0h63v260.9h-63z"/><path class="st1" d="M498.6 260.9V0H562v260.9h-63.4z"/><path class="st0" d="M770.5 260.9l-105-170.6h-1.1l1.5 170.6h-61.2V0h71.9l104.7 170.2h1.1L780.9 0H842v260.9h-71.5zM1044 260.9l-96.9-120.1h-.7v120.1h-61.5V0h61.5v106.1h1.1L1040.7 0h78.9l-112.4 120.1 119 140.8H1044z"/><g id="XMLID_31_"><path id="XMLID_91_" class="st0" d="M398.3 351.3c-1.4 2.2-3 4.3-4.9 6.2-1.9 2-4.2 3.7-6.7 5.2s-5.3 2.7-8.4 3.5c-3.1.9-6.4 1.3-10 1.3-6 0-11.6-1.1-16.8-3.4-5.1-2.3-9.5-5.4-13.2-9.4-3.7-4-6.6-8.8-8.7-14.3-2.1-5.5-3.1-11.6-3.1-18.1 0-6.6 1.1-12.6 3.2-18.1 2.1-5.5 5-10.3 8.8-14.3s8.1-7.2 13.2-9.4c5.1-2.3 10.6-3.4 16.6-3.4 2.9 0 5.8.3 8.7 1 2.8.7 5.5 1.6 8 2.8 2.5 1.2 4.8 2.6 6.8 4.3 2 1.7 3.7 3.6 5.1 5.7L390 296c-.8-1.4-1.9-2.8-3.3-4.1-1.4-1.4-3-2.6-4.9-3.7-1.9-1.1-3.9-1.9-6.2-2.6-2.2-.6-4.6-1-7.2-1-5.2 0-9.9 1-14 3s-7.6 4.8-10.5 8.2c-2.9 3.4-5.1 7.4-6.6 12-1.5 4.5-2.3 9.3-2.3 14.3s.8 9.8 2.3 14.3c1.5 4.5 3.8 8.5 6.6 11.9 2.9 3.4 6.4 6.2 10.5 8.2 4.1 2 8.7 3 13.9 3 4.6 0 9-1 13.1-3s7.6-5.3 10.4-9.7l6.5 4.5z"/><path id="XMLID_93_" class="st0" d="M413.9 317.7c1.4-3.3 3.8-6 7.1-7.9 3.3-1.9 6.9-2.9 10.6-2.9 6.7 0 11.8 2.2 15.1 6.5 3.4 4.3 5 10 5 17v34.9H444v-31.5c0-3-.2-5.7-.7-8.2-.5-2.4-1.2-4.5-2.3-6.3-1.1-1.7-2.6-3.1-4.4-4.1-1.9-1-4.2-1.5-7-1.5-2 0-4 .4-5.9 1.3-1.9.9-3.6 2.3-5.1 4.1-1.5 1.8-2.7 4.1-3.6 6.9-.9 2.8-1.4 6.1-1.4 9.9v29.2H406v-92h7.7v44.4h.2z"/><path id="XMLID_95_" class="st0" d="M475 286.4c0 1.7-.6 3.1-1.7 4.2s-2.4 1.6-3.7 1.6-2.6-.5-3.7-1.6-1.7-2.5-1.7-4.2c0-1.7.6-3.1 1.7-4.2s2.4-1.6 3.7-1.6 2.6.5 3.7 1.6 1.7 2.5 1.7 4.2zm-1.6 78.9h-7.7v-57h7.7v57z"/><path id="XMLID_98_" class="st0" d="M495.7 365.3H488v-92h7.7v92z"/><path id="XMLID_100_" class="st0" d="M553.8 355.7c-2.3 3.7-5.2 6.4-8.8 8.3s-7.4 2.8-11.2 2.8c-4.2 0-7.9-.8-11.3-2.3-3.4-1.5-6.2-3.7-8.6-6.3-2.4-2.7-4.2-5.8-5.5-9.5-1.3-3.7-2-7.6-2-11.8 0-4.2.7-8.2 2-11.8 1.3-3.7 3.2-6.8 5.5-9.5 2.4-2.7 5.2-4.8 8.6-6.3 3.4-1.5 7.1-2.3 11.3-2.3 3.8 0 7.6 1 11.2 2.9 3.6 1.9 6.6 4.7 8.8 8.5h.2v-44.9h7.7v92H554v-9.6h-.2zm-39.3-18.9c0 3.2.5 6.1 1.4 8.9.9 2.8 2.2 5.2 3.9 7.3s3.8 3.7 6.3 4.9c2.5 1.2 5.3 1.8 8.5 1.8 2.9 0 5.7-.6 8.1-1.8 2.5-1.2 4.6-2.8 6.5-4.8 1.8-2 3.2-4.4 4.2-7.2s1.5-5.8 1.5-9.1c0-3.2-.5-6.3-1.5-9.1s-2.4-5.2-4.2-7.3c-1.8-2.1-4-3.7-6.5-4.9-2.5-1.2-5.2-1.8-8.1-1.8-3.2 0-6 .6-8.5 1.8-2.5 1.2-4.6 2.9-6.3 4.9s-3 4.5-3.9 7.3c-.9 3-1.4 5.9-1.4 9.1z"/><path id="XMLID_103_" class="st0" d="M614.4 321.4c-1.3-2.2-3.2-4-5.6-5.4-2.5-1.4-5.1-2.1-8-2.1-3.1 0-5.9.6-8.4 1.8-2.5 1.2-4.6 2.8-6.4 4.9-1.8 2.1-3.1 4.5-4.1 7.3-.9 2.8-1.4 5.8-1.4 9.1 0 3.2.5 6.2 1.4 9 .9 2.8 2.3 5.2 4 7.2 1.7 2.1 3.8 3.7 6.3 4.9 2.5 1.2 5.3 1.8 8.4 1.8 3.4 0 6.3-.7 8.6-2.1 2.3-1.4 4.3-3.2 5.8-5.4l5.8 4.6c-2.3 3-5 5.4-8.3 7.2-3.3 1.8-7.2 2.7-11.8 2.7-4.3 0-8.2-.8-11.7-2.3-3.5-1.5-6.4-3.6-8.9-6.3-2.5-2.7-4.4-5.8-5.7-9.5-1.4-3.7-2-7.6-2-11.9 0-4.3.7-8.3 2-11.9s3.3-6.8 5.7-9.5c2.5-2.7 5.4-4.8 8.9-6.3s7.4-2.3 11.7-2.3c3.5 0 7.1.8 10.8 2.5 3.7 1.7 6.6 4.1 8.9 7.4l-6 4.6z"/><path id="XMLID_105_" class="st0" d="M660.1 328.4c0-4.9-1.2-8.6-3.6-11-2.4-2.4-5.9-3.6-10.5-3.6-3.2 0-6.1.6-8.8 1.8-2.7 1.2-5 2.8-6.9 4.9L626 315c2.2-2.4 5.1-4.3 8.7-5.8 3.6-1.5 7.6-2.3 12.2-2.3 2.9 0 5.5.4 8 1.3s4.7 2.1 6.6 3.8c1.9 1.7 3.4 3.9 4.4 6.5 1.1 2.6 1.6 5.6 1.6 9.1v25c0 2.2.1 4.5.2 6.8.2 2.4.4 4.3.7 6h-6.9c-.2-1.4-.4-2.9-.6-4.5-.2-1.6-.2-3.2-.2-4.7h-.2c-2.4 3.8-5.2 6.6-8.2 8.2s-6.7 2.5-11 2.5c-2 0-4.1-.3-6.3-.9-2.2-.6-4.1-1.6-5.9-3-1.8-1.4-3.2-3.2-4.4-5.4-1.2-2.2-1.8-4.9-1.8-8.1 0-4.4 1-7.9 3.1-10.4 2.1-2.6 4.8-4.5 8.3-5.7 3.5-1.3 7.5-2.1 11.9-2.4 4.5-.4 9.1-.5 14-.5v-2.1zm-2.3 8.4c-3.2 0-6.4.1-9.6.4-3.2.3-6.1.9-8.7 1.7-2.6.9-4.7 2.1-6.4 3.7-1.7 1.6-2.5 3.8-2.5 6.5 0 2 .4 3.7 1.1 5.1.7 1.4 1.7 2.5 2.9 3.3 1.2.9 2.5 1.5 4 1.8 1.5.4 3 .5 4.5.5 2.7 0 5.1-.5 7.2-1.5 2.1-1 3.9-2.4 5.3-4.1 1.4-1.7 2.5-3.8 3.3-6 .8-2.3 1.1-4.7 1.1-7.2v-4.3h-2.2z"/><path id="XMLID_108_" class="st0" d="M680.9 314.9c-.1-2.4-.2-4.6-.3-6.6h7.4c.2 1.5.3 3.2.3 5.1.1 1.9.1 3.4.1 4.6h.2c1.5-3.3 3.8-6 6.8-8.1 3-2.1 6.4-3.1 10.2-3.1 1 0 1.9 0 2.7.1.8.1 1.6.2 2.4.5l-1 7.9c-.5-.2-1.2-.3-2.3-.5-1.1-.2-2.1-.2-3.2-.2-2 0-4 .4-5.9 1.2-1.9.8-3.5 2.1-4.9 3.8-1.4 1.7-2.5 4-3.4 6.7-.9 2.7-1.3 6-1.3 9.8v29.1H681v-44.4c0-1.5 0-3.5-.1-5.9z"/><path id="XMLID_110_" class="st0" d="M761.8 335.1v1.8c0 .7 0 1.3-.1 2.1h-43.9c.1 2.8.6 5.5 1.6 8s2.3 4.7 4.1 6.6c1.7 1.9 3.8 3.3 6.1 4.4 2.3 1.1 4.9 1.6 7.6 1.6 4 0 7.5-1 10.4-3 2.9-2 5.1-4.3 6.6-6.9l5.8 4.9c-3.2 4.3-6.7 7.4-10.5 9.2-3.8 1.9-7.9 2.8-12.3 2.8-3.9 0-7.6-.8-10.9-2.3-3.4-1.5-6.2-3.6-8.7-6.3-2.4-2.7-4.3-5.8-5.7-9.5-1.4-3.7-2.1-7.6-2.1-11.9 0-4.3.7-8.3 2-11.9s3.2-6.8 5.7-9.5c2.4-2.7 5.2-4.8 8.5-6.3 3.2-1.5 6.8-2.3 10.5-2.3 4.1 0 7.8.8 11 2.3 3.2 1.5 5.8 3.5 7.9 6.1 2.1 2.6 3.7 5.5 4.8 8.9 1.1 3.7 1.6 7.3 1.6 11.2zm-7.8-2.7c-.2-5.4-1.8-9.8-4.8-13.3s-7.2-5.3-12.7-5.3c-2.6 0-4.9.5-7.1 1.5-2.2 1-4.1 2.4-5.8 4.1-1.7 1.7-3 3.7-4 6-1 2.2-1.5 4.6-1.7 7H754z"/><path id="XMLID_113_" class="st2" d="M803 357.5h37.4v7.8h-45.5v-86.2h8.1v78.4z"/><path id="XMLID_115_" class="st2" d="M855.5 286.4c0 1.7-.6 3.1-1.7 4.2s-2.4 1.6-3.7 1.6-2.6-.5-3.7-1.6-1.7-2.5-1.7-4.2c0-1.7.6-3.1 1.7-4.2s2.4-1.6 3.7-1.6 2.6.5 3.7 1.6 1.7 2.5 1.7 4.2zm-1.6 78.9h-7.7v-57h7.7v57z"/><path id="XMLID_118_" class="st2" d="M882.8 310c3.1-2.1 6.6-3.1 10.5-3.1 1.4 0 2.9.2 4.5.5 1.5.3 3.1 1 4.5 1.9 1.5.9 2.8 2.2 4.1 3.7 1.2 1.5 2.3 3.5 3.2 6 1.8-3.9 4.3-6.9 7.4-8.9 3.1-2.1 6.8-3.1 11.1-3.1 6.7 0 11.8 2.2 15.1 6.5 3.4 4.3 5 10 5 17v34.9h-7.7v-31.5c0-6-1-10.8-3.1-14.5-2.1-3.7-5.6-5.5-10.6-5.5-2.8 0-5.2.6-7.1 1.8-1.9 1.2-3.5 2.8-4.6 4.8-1.2 2-2 4.2-2.5 6.8-.5 2.5-.8 5.1-.8 7.8v30.3h-7.7v-33.2c0-2.8-.2-5.3-.6-7.5-.4-2.3-1-4.2-2-5.8-.9-1.6-2.2-2.8-3.9-3.7-1.7-.9-3.8-1.3-6.3-1.3-1.8 0-3.6.4-5.5 1.3s-3.5 2.3-5 4.1-2.7 4.1-3.6 6.9c-.9 2.8-1.4 6.1-1.4 9.9v29.2h-7.7v-44.4c0-1.5 0-3.5-.1-6-.1-2.4-.2-4.6-.3-6.6h7.4c.2 1.5.3 3.2.3 5.1.1 1.9.1 3.4.1 4.6h.2c1.6-3.3 4-6 7.1-8z"/><path id="XMLID_120_" class="st2" d="M971.5 286.4c0 1.7-.6 3.1-1.7 4.2s-2.4 1.6-3.7 1.6-2.6-.5-3.7-1.6-1.7-2.5-1.7-4.2c0-1.7.6-3.1 1.7-4.2s2.4-1.6 3.7-1.6 2.6.5 3.7 1.6 1.7 2.5 1.7 4.2zm-1.6 78.9h-7.7v-57h7.7v57z"/><path id="XMLID_123_" class="st2" d="M1008.1 315.3h-14.9v33.2c0 2.1.2 3.9.6 5.2.4 1.4.9 2.5 1.6 3.2.7.8 1.6 1.3 2.5 1.6 1 .3 2 .4 3.2.4 1.1 0 2.2-.2 3.3-.5 1.2-.3 2.3-.8 3.3-1.3l.3 7.2c-1.4.6-2.8 1-4.2 1.3-1.5.3-3.1.4-4.8.4-1.4 0-2.9-.2-4.5-.6-1.6-.4-3.1-1.2-4.4-2.3-1.4-1.1-2.5-2.7-3.3-4.6-.9-1.9-1.3-4.5-1.3-7.7v-35.5h-11v-6.9h11v-16.1h7.7v16.1h14.9v6.9z"/><path id="XMLID_125_" class="st2" d="M1062.2 335.1v1.8c0 .7 0 1.3-.1 2.1h-43.9c.1 2.8.6 5.5 1.6 8s2.3 4.7 4.1 6.6c1.7 1.9 3.8 3.3 6.1 4.4 2.3 1.1 4.9 1.6 7.6 1.6 4 0 7.5-1 10.4-3 2.9-2 5.1-4.3 6.6-6.9l5.8 4.9c-3.2 4.3-6.7 7.4-10.5 9.2-3.8 1.9-7.9 2.8-12.3 2.8-3.9 0-7.6-.8-10.9-2.3-3.4-1.5-6.2-3.6-8.7-6.3-2.4-2.7-4.3-5.8-5.7-9.5-1.4-3.7-2.1-7.6-2.1-11.9 0-4.3.7-8.3 2-11.9s3.2-6.8 5.7-9.5c2.4-2.7 5.2-4.8 8.5-6.3 3.2-1.5 6.8-2.3 10.5-2.3 4.1 0 7.8.8 11 2.3 3.2 1.5 5.8 3.5 7.9 6.1 2.1 2.6 3.7 5.5 4.8 8.9 1.1 3.7 1.6 7.3 1.6 11.2zm-7.8-2.7c-.2-5.4-1.8-9.8-4.8-13.3s-7.2-5.3-12.7-5.3c-2.6 0-4.9.5-7.1 1.5-2.2 1-4.1 2.4-5.8 4.1-1.7 1.7-3 3.7-4 6-1 2.2-1.5 4.6-1.7 7h36.1z"/><path id="XMLID_128_" class="st2" d="M1116.2 355.7c-2.3 3.7-5.2 6.4-8.8 8.3s-7.4 2.8-11.2 2.8c-4.2 0-7.9-.8-11.3-2.3-3.4-1.5-6.2-3.7-8.6-6.3s-4.2-5.8-5.5-9.5c-1.3-3.7-2-7.6-2-11.8 0-4.2.7-8.2 2-11.8 1.3-3.7 3.2-6.8 5.5-9.5s5.2-4.8 8.6-6.3c3.4-1.5 7.1-2.3 11.3-2.3 3.8 0 7.6 1 11.2 2.9 3.6 1.9 6.6 4.7 8.8 8.5h.2v-44.9h7.7v92h-7.7v-9.6h-.2zm-39.2-18.9c0 3.2.5 6.1 1.4 8.9.9 2.8 2.2 5.2 3.9 7.3 1.7 2.1 3.8 3.7 6.3 4.9 2.5 1.2 5.3 1.8 8.5 1.8 2.9 0 5.7-.6 8.1-1.8 2.5-1.2 4.6-2.8 6.5-4.8 1.8-2 3.2-4.4 4.2-7.2s1.5-5.8 1.5-9.1c0-3.2-.5-6.3-1.5-9.1s-2.4-5.2-4.2-7.3c-1.8-2.1-4-3.7-6.5-4.9-2.5-1.2-5.2-1.8-8.1-1.8-3.2 0-6 .6-8.5 1.8-2.5 1.2-4.6 2.9-6.3 4.9-1.7 2.1-3 4.5-3.9 7.3-1 3-1.4 5.9-1.4 9.1z"/></g><path id="XMLID_30_" class="st3" d="M73.7 0h63v260.9h-63z"/><path id="XMLID_29_" class="st4" d="M228.1 0h63v260.9h-63z"/><path id="XMLID_28_" class="st5" d="M842 260.9h-71.5L604.7 0h71.9z"/><path id="XMLID_27_" class="st6" d="M884.8 0h61.5v260.9h-61.5z"/></g></svg>