<svg xmlns="http://www.w3.org/2000/svg" viewBox="0 0 646 220"><path fill="#333" d="M98.9 59v18.2h27.3c23.2 0 41.9 18.7 41.9 41.9S149.3 161 126.2 161c-.6 0-1.3-.1-1.8-.1v-18.2c.6.1 1.2.1 1.8.1 13 0 23.7-10.6 23.7-23.7 0-13-10.6-23.7-23.7-23.7H98.9v18.2L66.1 86.3 98.9 59"/><g fill="#333"><path d="M262.7 158.2v-37.8h-40.2v37.8h-24.7V61h24.7v40h40.2V61h24.7v97.2h-24.7zM371.9 120.7c0 23.1-16.4 38.3-40.8 38.3-24.6 0-41-15.3-41-38.3 0-23.1 16.4-38.2 41-38.2 24.4 0 40.8 15.1 40.8 38.2zm-57.6.3c0 11.6 6.8 19.4 16.8 19.4 9.9 0 16.6-7.8 16.6-19.4 0-11.5-6.8-19.4-16.6-19.4-9.9 0-16.8 7.8-16.8 19.4zM501.4 111v47.2h-23.8v-40.5c0-8.9-5-14.3-12.9-14.3-9 .3-14.5 7.6-14.5 17.8v37h-24v-40.5c0-8.9-4.8-14.3-12.8-14.3-9.2.3-14.9 7.6-14.9 17.8v37h-23.9V83.3h23.9v12.4c5.1-8.9 13.7-13.3 24.7-13.5 12.2 0 21.2 6.4 25 17 4.8-11.1 14-16.8 26.3-17 16.4 0 26.9 11.2 26.9 28.8zM578.8 127.2h-52.6c2.3 8.9 8.8 13.9 17.6 13.9 6.5 0 12.9-2.7 17.9-7.6l12.6 12.4c-7.6 8.4-18.9 13.2-32.6 13.2-24.4 0-39.7-15.3-39.7-38 0-23.2 15.8-38.5 39-38.5 26.4-.1 39.4 17.3 37.8 44.6zm-23-12.9c0-9.2-5.9-15.1-14.5-15.1-8.4 0-14 6.1-15.6 15.1h30.1z"/></g></svg>