<?xml version="1.0" encoding="utf-8"?>
<!-- Generator: Adobe Illustrator 18.1.1, SVG Export Plug-In . SVG Version: 6.00 Build 0)  -->
<!DOCTYPE svg PUBLIC "-//W3C//DTD SVG 1.1//EN" "http://www.w3.org/Graphics/SVG/1.1/DTD/svg11.dtd">
<svg version="1.1" id="Layer_1" xmlns="http://www.w3.org/2000/svg" xmlns:xlink="http://www.w3.org/1999/xlink" x="0px" y="0px"
	 viewBox="33 305.9 543.2 177.3" enable-background="new 33 305.9 543.2 177.3" xml:space="preserve">
<path fill="#939598" d="M98.9,331.9v99.9H68.5v-99.9H33v-26h101.5v26H98.9z"/>
<path fill="#939598" d="M222.5,431.8v-52.6h-49.1v52.6H143V305.9h30.4v47.6h49.1v-47.6h30.4v125.9H222.5z"/>
<path fill="#D52B27" d="M273.5,431.8V305.9h30.6v125.9H273.5z"/>
<path fill="#939598" d="M404.7,431.8L354,349.5h-0.5l0.7,82.3h-29.5V305.9h34.7l50.5,82.1h0.5l-0.7-82.1h29.5v125.9H404.7z"/>
<path fill="#939598" d="M536.6,431.8l-46.8-58h-0.4v58h-29.7V305.9h29.7v51.2h0.5l45-51.2h38l-54.2,58l57.4,67.9L536.6,431.8
	L536.6,431.8z"/>
<g>
	<path fill="#FFFFFF" d="M71,475.4c-0.7,1.1-1.4,2.1-2.4,3c-0.9,0.9-2,1.8-3.2,2.5c-1.2,0.7-2.6,1.3-4,1.7c-1.5,0.4-3.1,0.6-4.8,0.6
		c-2.9,0-5.6-0.5-8.1-1.6c-2.5-1.1-4.6-2.6-6.4-4.6c-1.8-1.9-3.2-4.2-4.2-6.9c-1-2.7-1.5-5.6-1.5-8.7c0-3.2,0.5-6.1,1.5-8.7
		c1-2.7,2.4-5,4.2-6.9c1.8-1.9,3.9-3.5,6.4-4.6c2.5-1.1,5.1-1.6,8-1.6c1.4,0,2.8,0.2,4.2,0.5s2.6,0.8,3.8,1.3
		c1.2,0.6,2.3,1.3,3.3,2.1c1,0.8,1.8,1.7,2.5,2.7l-3.3,2.6c-0.4-0.7-0.9-1.3-1.6-2c-0.7-0.7-1.5-1.3-2.4-1.8c-0.9-0.5-1.9-0.9-3-1.2
		c-1.1-0.3-2.2-0.5-3.5-0.5c-2.5,0-4.8,0.5-6.7,1.5c-2,1-3.7,2.3-5.1,3.9c-1.4,1.7-2.4,3.6-3.2,5.8c-0.7,2.2-1.1,4.5-1.1,6.9
		c0,2.4,0.4,4.7,1.1,6.9c0.7,2.2,1.8,4.1,3.2,5.8c1.4,1.7,3.1,3,5.1,3.9c2,1,4.2,1.5,6.7,1.5c2.2,0,4.3-0.5,6.3-1.5
		c2-1,3.7-2.5,5-4.7L71,475.4z"/>
	<path fill="#FFFFFF" d="M78.6,459.2c0.7-1.6,1.8-2.9,3.4-3.8c1.6-0.9,3.3-1.4,5.1-1.4c3.2,0,5.7,1,7.3,3.1c1.6,2.1,2.4,4.8,2.4,8.2
		v16.9h-3.7v-15.2c0-1.4-0.1-2.8-0.3-3.9c-0.2-1.2-0.6-2.2-1.1-3c-0.5-0.8-1.2-1.5-2.1-2c-0.9-0.5-2-0.7-3.4-0.7
		c-1,0-1.9,0.2-2.9,0.6s-1.8,1.1-2.5,2c-0.7,0.9-1.3,2-1.7,3.3c-0.4,1.4-0.7,2.9-0.7,4.8v14.1h-3.7v-44.4h3.7v21.4L78.6,459.2
		L78.6,459.2z"/>
	<path fill="#FFFFFF" d="M108.1,444.1c0,0.8-0.3,1.5-0.8,2c-0.5,0.5-1.1,0.8-1.8,0.8c-0.7,0-1.3-0.3-1.8-0.8c-0.5-0.5-0.8-1.2-0.8-2
		s0.3-1.5,0.8-2c0.5-0.5,1.1-0.8,1.8-0.8c0.7,0,1.3,0.3,1.8,0.8C107.8,442.6,108.1,443.3,108.1,444.1z M107.3,482.1h-3.7v-27.5h3.7
		V482.1z"/>
	<path fill="#FFFFFF" d="M118,482.1h-3.7v-44.4h3.7V482.1z"/>
	<path fill="#FFFFFF" d="M146.1,477.5c-1.1,1.8-2.5,3.1-4.3,4c-1.7,0.9-3.5,1.3-5.4,1.3c-2,0-3.8-0.4-5.4-1.1
		c-1.6-0.7-3-1.8-4.1-3.1c-1.1-1.3-2-2.8-2.7-4.6c-0.6-1.8-1-3.7-1-5.7c0-2,0.3-3.9,1-5.7c0.6-1.8,1.5-3.3,2.7-4.6
		c1.1-1.3,2.5-2.3,4.1-3.1c1.6-0.7,3.4-1.1,5.4-1.1c1.9,0,3.7,0.5,5.4,1.4c1.7,0.9,3.2,2.3,4.3,4.1h0.1v-21.7h3.7v44.4h-3.7v-4.6
		L146.1,477.5L146.1,477.5z M127.1,468.4c0,1.5,0.2,3,0.7,4.3c0.4,1.3,1.1,2.5,1.9,3.5c0.8,1,1.8,1.8,3,2.3c1.2,0.6,2.6,0.9,4.1,0.9
		c1.4,0,2.7-0.3,3.9-0.9c1.2-0.6,2.2-1.3,3.1-2.3c0.9-1,1.6-2.1,2-3.5c0.5-1.3,0.7-2.8,0.7-4.4c0-1.6-0.2-3-0.7-4.4
		c-0.5-1.4-1.2-2.5-2-3.5c-0.9-1-1.9-1.8-3.1-2.3c-1.2-0.6-2.5-0.9-3.9-0.9c-1.5,0-2.9,0.3-4.1,0.9c-1.2,0.6-2.2,1.4-3,2.4
		c-0.8,1-1.4,2.2-1.9,3.5C127.3,465.4,127.1,466.9,127.1,468.4z"/>
	<path fill="#FFFFFF" d="M175.3,460.9c-0.6-1.1-1.5-1.9-2.7-2.6c-1.2-0.7-2.5-1-3.8-1c-1.5,0-2.8,0.3-4,0.9
		c-1.2,0.6-2.2,1.4-3.1,2.3c-0.9,1-1.5,2.2-2,3.5c-0.5,1.3-0.7,2.8-0.7,4.4c0,1.6,0.2,3,0.7,4.3c0.5,1.3,1.1,2.5,1.9,3.5
		c0.8,1,1.9,1.8,3.1,2.3c1.2,0.6,2.5,0.9,4,0.9c1.6,0,3-0.3,4.1-1c1.1-0.7,2.1-1.5,2.8-2.6l2.8,2.2c-1.1,1.4-2.4,2.6-4,3.5
		s-3.5,1.3-5.7,1.3c-2.1,0-3.9-0.4-5.6-1.1c-1.7-0.7-3.1-1.7-4.3-3c-1.2-1.3-2.1-2.8-2.8-4.6c-0.7-1.8-1-3.7-1-5.8
		c0-2.1,0.3-4,1-5.8c0.7-1.8,1.6-3.3,2.8-4.6c1.2-1.3,2.6-2.3,4.3-3c1.7-0.7,3.5-1.1,5.6-1.1c1.7,0,3.4,0.4,5.2,1.2
		c1.8,0.8,3.2,2,4.3,3.6L175.3,460.9z"/>
	<path fill="#FFFFFF" d="M197.3,464.3c0-2.4-0.6-4.1-1.7-5.3c-1.2-1.2-2.9-1.7-5.1-1.7c-1.5,0-2.9,0.3-4.3,0.9
		c-1.3,0.6-2.4,1.4-3.3,2.3l-2.1-2.6c1.1-1.1,2.4-2.1,4.2-2.8c1.7-0.7,3.7-1.1,5.9-1.1c1.4,0,2.7,0.2,3.9,0.6c1.2,0.4,2.3,1,3.2,1.8
		c0.9,0.8,1.6,1.9,2.1,3.1c0.5,1.3,0.8,2.7,0.8,4.4v12c0,1.1,0,2.2,0.1,3.3c0.1,1.1,0.2,2.1,0.3,2.9h-3.3c-0.1-0.7-0.2-1.4-0.3-2.2
		c-0.1-0.8-0.1-1.5-0.1-2.3h-0.1c-1.2,1.8-2.5,3.2-4,4c-1.5,0.8-3.2,1.2-5.3,1.2c-1,0-2-0.1-3-0.4c-1-0.3-2-0.8-2.8-1.4
		c-0.9-0.7-1.6-1.5-2.1-2.6c-0.6-1.1-0.8-2.4-0.8-3.9c0-2.1,0.5-3.8,1.5-5c1-1.2,2.3-2.2,4-2.8c1.7-0.6,3.6-1,5.8-1.2
		c2.2-0.2,4.4-0.3,6.7-0.3L197.3,464.3L197.3,464.3z M196.2,468.4c-1.5,0-3.1,0.1-4.6,0.2c-1.5,0.1-2.9,0.4-4.2,0.8
		c-1.3,0.4-2.3,1-3.1,1.8c-0.8,0.8-1.2,1.8-1.2,3.1c0,1,0.2,1.8,0.5,2.5c0.3,0.7,0.8,1.2,1.4,1.6c0.6,0.4,1.2,0.7,1.9,0.9
		c0.7,0.2,1.4,0.3,2.2,0.3c1.3,0,2.5-0.2,3.5-0.7c1-0.5,1.9-1.2,2.6-2c0.7-0.8,1.2-1.8,1.6-2.9c0.4-1.1,0.5-2.3,0.5-3.5v-2.1H196.2
		L196.2,468.4z"/>
	<path fill="#FFFFFF" d="M207.4,457.8c0-1.2-0.1-2.2-0.2-3.2h3.5c0.1,0.7,0.1,1.6,0.2,2.5c0,0.9,0.1,1.6,0.1,2.2h0.1
		c0.7-1.6,1.8-2.9,3.3-3.9c1.5-1,3.1-1.5,4.9-1.5c0.5,0,0.9,0,1.3,0.1c0.4,0,0.8,0.1,1.2,0.2l-0.5,3.8c-0.2-0.1-0.6-0.2-1.1-0.2
		c-0.5-0.1-1-0.1-1.5-0.1c-1,0-1.9,0.2-2.8,0.6c-0.9,0.4-1.7,1-2.4,1.8c-0.7,0.8-1.2,1.9-1.6,3.2c-0.4,1.3-0.6,2.9-0.6,4.7v14.1
		h-3.7v-21.4C207.4,459.9,207.4,459,207.4,457.8z"/>
	<path fill="#FFFFFF" d="M246.4,467.6c0,0.3,0,0.6,0,0.9c0,0.3,0,0.6-0.1,1h-21.2c0,1.4,0.3,2.7,0.8,3.9c0.5,1.2,1.1,2.3,2,3.2
		c0.8,0.9,1.8,1.6,2.9,2.1c1.1,0.5,2.3,0.8,3.7,0.8c1.9,0,3.6-0.5,5-1.4c1.4-1,2.5-2.1,3.2-3.3l2.8,2.3c-1.5,2.1-3.2,3.6-5.1,4.5
		c-1.8,0.9-3.8,1.3-5.9,1.3c-1.9,0-3.6-0.4-5.3-1.1c-1.6-0.7-3-1.7-4.2-3c-1.2-1.3-2.1-2.8-2.8-4.6c-0.7-1.8-1-3.7-1-5.8
		c0-2.1,0.3-4,1-5.8c0.7-1.8,1.6-3.3,2.7-4.6c1.2-1.3,2.5-2.3,4.1-3c1.6-0.7,3.3-1.1,5.1-1.1c2,0,3.8,0.4,5.3,1.1
		c1.5,0.7,2.8,1.7,3.8,2.9c1,1.2,1.8,2.7,2.3,4.3C246.1,463.9,246.4,465.7,246.4,467.6z M242.6,466.3c-0.1-2.6-0.9-4.7-2.3-6.4
		c-1.4-1.7-3.5-2.6-6.1-2.6c-1.2,0-2.4,0.2-3.4,0.7c-1.1,0.5-2,1.2-2.8,2c-0.8,0.8-1.4,1.8-1.9,2.9c-0.5,1.1-0.7,2.2-0.8,3.4H242.6z
		"/>
	<path fill="#939598" d="M275.4,472.5l8.7,9.6h-5.5l-5.5-6.2c-1.6,2.3-3.3,4.1-5.2,5.2c-1.9,1.1-4.1,1.7-6.7,1.7
		c-1.6,0-3.2-0.3-4.7-0.8c-1.5-0.5-2.8-1.2-3.8-2.2c-1.1-1-2-2.2-2.6-3.6c-0.6-1.4-1-3.1-1-5c0-1.6,0.2-3,0.7-4.2
		c0.5-1.3,1.1-2.4,1.9-3.4c0.8-1,1.7-1.9,2.8-2.7c1.1-0.8,2.3-1.5,3.5-2.1c-0.6-0.6-1.2-1.3-1.7-2.1c-0.6-0.7-1.1-1.5-1.5-2.3
		c-0.4-0.8-0.8-1.7-1.1-2.6c-0.3-0.9-0.4-1.8-0.4-2.8c0-1.6,0.3-3,0.8-4.2c0.5-1.2,1.2-2.2,2.1-3.1c0.9-0.8,1.9-1.5,3.1-1.9
		c1.2-0.4,2.4-0.6,3.7-0.6c1.3,0,2.5,0.2,3.6,0.6c1.1,0.4,2.1,1,3,1.8c0.9,0.8,1.5,1.8,2,2.9c0.5,1.2,0.7,2.5,0.7,4
		c0,1.4-0.2,2.6-0.7,3.7c-0.5,1.1-1.1,2.1-2,3c-0.8,0.9-1.7,1.7-2.8,2.3c-1,0.7-2.1,1.3-3.2,1.9l9,10l5.4-10.1h4.4L275.4,472.5z
		 M260.3,461.7c-2.3,1.1-4.1,2.5-5.3,4c-1.2,1.5-1.8,3.4-1.8,5.7c0,1.2,0.2,2.3,0.6,3.2c0.4,1,1,1.8,1.7,2.5
		c0.7,0.7,1.6,1.2,2.6,1.6c1,0.4,2,0.6,3.1,0.6c2.1,0,3.9-0.5,5.3-1.5c1.4-1,2.7-2.5,4-4.6L260.3,461.7z M268.6,448.8
		c0-1.7-0.5-3.1-1.6-4.2s-2.3-1.6-3.9-1.6c-1.7,0-3.1,0.6-4.2,1.7c-1.1,1.2-1.6,2.7-1.6,4.7c0,0.7,0.1,1.5,0.4,2.3
		c0.3,0.8,0.7,1.6,1.1,2.3c0.4,0.7,0.9,1.4,1.4,1.9c0.5,0.6,0.9,1,1.3,1.3c0.9-0.4,1.7-0.9,2.6-1.4c0.8-0.5,1.6-1.1,2.3-1.8
		c0.7-0.7,1.2-1.4,1.6-2.3C268.4,450.8,268.6,449.9,268.6,448.8z"/>
	<path fill="#FFFFFF" d="M291.1,478.4h20.7v3.8h-24.6v-41.6h24v3.8h-20v14.3h18.7v3.8h-18.7V478.4z"/>
	<path fill="#FFFFFF" d="M337.3,477.5c-1.1,1.8-2.5,3.1-4.3,4c-1.7,0.9-3.5,1.3-5.4,1.3c-2,0-3.8-0.4-5.4-1.1
		c-1.6-0.7-3-1.8-4.1-3.1c-1.1-1.3-2-2.8-2.7-4.6c-0.6-1.8-1-3.7-1-5.7c0-2,0.3-3.9,1-5.7c0.6-1.8,1.5-3.3,2.7-4.6
		c1.1-1.3,2.5-2.3,4.1-3.1c1.6-0.7,3.4-1.1,5.4-1.1c1.9,0,3.7,0.5,5.4,1.4c1.7,0.9,3.2,2.3,4.3,4.1h0.1v-21.7h3.7v44.4h-3.7v-4.6
		L337.3,477.5L337.3,477.5z M318.4,468.4c0,1.5,0.2,3,0.7,4.3c0.4,1.3,1.1,2.5,1.9,3.5c0.8,1,1.8,1.8,3,2.3c1.2,0.6,2.6,0.9,4.1,0.9
		c1.4,0,2.7-0.3,3.9-0.9c1.2-0.6,2.2-1.3,3.1-2.3c0.9-1,1.6-2.1,2-3.5c0.5-1.3,0.7-2.8,0.7-4.4c0-1.6-0.2-3-0.7-4.4
		c-0.5-1.4-1.2-2.5-2-3.5c-0.9-1-1.9-1.8-3.1-2.3c-1.2-0.6-2.5-0.9-3.9-0.9c-1.5,0-2.9,0.3-4.1,0.9c-1.2,0.6-2.2,1.4-3,2.4
		c-0.8,1-1.4,2.2-1.9,3.5C318.6,465.4,318.4,466.9,318.4,468.4z"/>
	<path fill="#FFFFFF" d="M366.7,482.1c-0.1-0.7-0.1-1.6-0.2-2.5c0-0.9-0.1-1.6-0.1-2.2h-0.1c-0.7,1.6-1.9,2.9-3.5,3.9
		c-1.6,1-3.4,1.5-5.2,1.5c-3.2,0-5.7-1-7.3-3.1c-1.6-2.1-2.4-4.8-2.4-8.2v-16.8h3.7v15.2c0,1.4,0.1,2.8,0.3,3.9
		c0.2,1.2,0.6,2.2,1.1,3c0.5,0.8,1.2,1.5,2.1,2c0.9,0.5,2,0.7,3.4,0.7c1,0,1.9-0.2,2.9-0.6c0.9-0.4,1.8-1.1,2.5-2
		c0.7-0.9,1.3-2,1.7-3.3c0.4-1.3,0.7-2.9,0.7-4.8v-14.1h3.7v21.4c0,0.7,0,1.7,0.1,2.9c0,1.2,0.1,2.2,0.2,3.2L366.7,482.1
		L366.7,482.1z"/>
	<path fill="#FFFFFF" d="M395.3,460.9c-0.6-1.1-1.5-1.9-2.7-2.6c-1.2-0.7-2.5-1-3.8-1c-1.5,0-2.8,0.3-4,0.9
		c-1.2,0.6-2.2,1.4-3.1,2.3c-0.9,1-1.5,2.2-2,3.5c-0.5,1.3-0.7,2.8-0.7,4.4c0,1.6,0.2,3,0.7,4.3c0.5,1.3,1.1,2.5,1.9,3.5
		c0.8,1,1.9,1.8,3.1,2.3s2.5,0.9,4,0.9c1.6,0,3-0.3,4.1-1c1.1-0.7,2.1-1.5,2.8-2.6l2.8,2.2c-1.1,1.4-2.4,2.6-4,3.5
		c-1.6,0.9-3.5,1.3-5.7,1.3c-2.1,0-3.9-0.4-5.6-1.1c-1.7-0.7-3.1-1.7-4.3-3c-1.2-1.3-2.1-2.8-2.8-4.6c-0.7-1.8-1-3.7-1-5.8
		c0-2.1,0.3-4,1-5.8c0.7-1.8,1.6-3.3,2.8-4.6c1.2-1.3,2.6-2.3,4.3-3c1.7-0.7,3.5-1.1,5.6-1.1c1.7,0,3.4,0.4,5.2,1.2
		c1.8,0.8,3.2,2,4.3,3.6L395.3,460.9z"/>
	<path fill="#FFFFFF" d="M417.4,464.3c0-2.4-0.6-4.1-1.7-5.3c-1.2-1.2-2.9-1.7-5.1-1.7c-1.5,0-2.9,0.3-4.3,0.9
		c-1.3,0.6-2.4,1.4-3.3,2.3l-2.1-2.6c1.1-1.1,2.4-2.1,4.2-2.8c1.7-0.7,3.7-1.1,5.9-1.1c1.4,0,2.7,0.2,3.9,0.6c1.2,0.4,2.3,1,3.2,1.8
		c0.9,0.8,1.6,1.9,2.1,3.1c0.5,1.3,0.8,2.7,0.8,4.4v12c0,1.1,0,2.2,0.1,3.3c0.1,1.1,0.2,2.1,0.3,2.9H418c-0.1-0.7-0.2-1.4-0.3-2.2
		c-0.1-0.8-0.1-1.5-0.1-2.3h-0.1c-1.2,1.8-2.5,3.2-4,4s-3.2,1.2-5.3,1.2c-1,0-2-0.1-3-0.4c-1-0.3-2-0.8-2.8-1.4
		c-0.9-0.7-1.6-1.5-2.1-2.6c-0.6-1.1-0.8-2.4-0.8-3.9c0-2.1,0.5-3.8,1.5-5c1-1.2,2.3-2.2,4-2.8c1.7-0.6,3.6-1,5.8-1.2
		c2.2-0.2,4.4-0.3,6.7-0.3L417.4,464.3L417.4,464.3z M416.3,468.4c-1.5,0-3.1,0.1-4.6,0.2c-1.5,0.1-2.9,0.4-4.2,0.8
		c-1.3,0.4-2.3,1-3.1,1.8c-0.8,0.8-1.2,1.8-1.2,3.1c0,1,0.2,1.8,0.5,2.5c0.3,0.7,0.8,1.2,1.4,1.6c0.6,0.4,1.2,0.7,1.9,0.9
		c0.7,0.2,1.4,0.3,2.2,0.3c1.3,0,2.5-0.2,3.5-0.7c1-0.5,1.9-1.2,2.6-2c0.7-0.8,1.2-1.8,1.6-2.9c0.4-1.1,0.5-2.3,0.5-3.5v-2.1H416.3
		L416.3,468.4z"/>
	<path fill="#FFFFFF" d="M438.4,458h-7.2v16c0,1,0.1,1.9,0.3,2.5c0.2,0.7,0.4,1.2,0.8,1.6s0.8,0.6,1.2,0.8c0.5,0.1,1,0.2,1.5,0.2
		c0.5,0,1-0.1,1.6-0.2c0.6-0.2,1.1-0.4,1.6-0.6l0.2,3.5c-0.7,0.3-1.3,0.5-2,0.6c-0.7,0.1-1.5,0.2-2.3,0.2c-0.7,0-1.4-0.1-2.2-0.3
		c-0.8-0.2-1.5-0.6-2.1-1.1c-0.7-0.5-1.2-1.3-1.6-2.2c-0.4-0.9-0.6-2.2-0.6-3.7V458h-5.3v-3.3h5.3v-7.7h3.7v7.7h7.2L438.4,458
		L438.4,458z"/>
	<path fill="#FFFFFF" d="M445.8,444.1c0,0.8-0.3,1.5-0.8,2c-0.5,0.5-1.1,0.8-1.8,0.8c-0.7,0-1.3-0.3-1.8-0.8c-0.5-0.5-0.8-1.2-0.8-2
		s0.3-1.5,0.8-2c0.5-0.5,1.1-0.8,1.8-0.8c0.7,0,1.3,0.3,1.8,0.8C445.5,442.6,445.8,443.3,445.8,444.1z M445,482.1h-3.7v-27.5h3.7
		V482.1z"/>
	<path fill="#FFFFFF" d="M477.4,468.4c0,2.1-0.3,4-1,5.8c-0.7,1.8-1.6,3.3-2.8,4.6c-1.2,1.3-2.6,2.3-4.3,3c-1.7,0.7-3.5,1.1-5.5,1.1
		c-2,0-3.8-0.4-5.5-1.1c-1.7-0.7-3.1-1.7-4.3-3c-1.2-1.3-2.1-2.8-2.8-4.6c-0.7-1.8-1-3.7-1-5.8c0-2.1,0.3-4,1-5.8
		c0.7-1.8,1.6-3.3,2.8-4.6c1.2-1.3,2.6-2.3,4.3-3c1.7-0.7,3.5-1.1,5.5-1.1c2,0,3.8,0.4,5.5,1.1c1.7,0.7,3.1,1.7,4.3,3
		c1.2,1.3,2.1,2.8,2.8,4.6C477,464.4,477.4,466.3,477.4,468.4z M473.4,468.4c0-1.5-0.2-3-0.7-4.3c-0.5-1.3-1.1-2.5-1.9-3.5
		c-0.8-1-1.9-1.8-3.1-2.4c-1.2-0.6-2.6-0.9-4-0.9c-1.5,0-2.8,0.3-4,0.9c-1.2,0.6-2.2,1.4-3,2.4c-0.8,1-1.5,2.2-1.9,3.5
		c-0.5,1.3-0.7,2.8-0.7,4.3c0,1.5,0.2,3,0.7,4.3c0.5,1.3,1.1,2.5,1.9,3.5c0.8,1,1.8,1.8,3,2.3c1.2,0.6,2.5,0.9,4,0.9
		c1.5,0,2.8-0.3,4-0.9c1.2-0.6,2.2-1.4,3.1-2.3c0.8-1,1.5-2.2,1.9-3.5C473.2,471.3,473.4,469.9,473.4,468.4z"/>
	<path fill="#FFFFFF" d="M485.7,454.6c0.1,0.7,0.1,1.6,0.2,2.5c0,0.9,0.1,1.6,0.1,2.2h0.1c0.7-1.6,1.9-2.9,3.5-3.9
		c1.6-1,3.4-1.5,5.2-1.5c3.2,0,5.7,1,7.3,3.1c1.6,2.1,2.4,4.8,2.4,8.2v16.9h-3.7v-15.2c0-1.4-0.1-2.8-0.3-3.9
		c-0.2-1.2-0.6-2.2-1.1-3c-0.5-0.8-1.2-1.5-2.1-2c-0.9-0.5-2-0.7-3.4-0.7c-1,0-1.9,0.2-2.9,0.6c-0.9,0.4-1.8,1.1-2.5,2
		c-0.7,0.9-1.3,2-1.7,3.3c-0.4,1.4-0.7,2.9-0.7,4.8v14.1h-3.7v-21.4c0-0.7,0-1.7-0.1-2.9c0-1.2-0.1-2.2-0.2-3.2L485.7,454.6
		L485.7,454.6z"/>
	<path fill="#939598" d="M515.3,478.4h18v3.8h-21.9v-41.6h3.9V478.4z"/>
	<path fill="#939598" d="M547.6,458h-7.2v16c0,1,0.1,1.9,0.3,2.5c0.2,0.7,0.4,1.2,0.8,1.6c0.3,0.4,0.8,0.6,1.2,0.8
		c0.5,0.1,1,0.2,1.5,0.2c0.5,0,1-0.1,1.6-0.2c0.6-0.2,1.1-0.4,1.6-0.6l0.2,3.5c-0.7,0.3-1.3,0.5-2,0.6c-0.7,0.1-1.5,0.2-2.3,0.2
		c-0.7,0-1.4-0.1-2.2-0.3c-0.8-0.2-1.5-0.6-2.1-1.1c-0.7-0.5-1.2-1.3-1.6-2.2c-0.4-0.9-0.6-2.2-0.6-3.7V458h-5.3v-3.3h5.3v-7.7h3.7
		v7.7h7.2L547.6,458L547.6,458z"/>
	<path fill="#939598" d="M571.4,477.5c-1.1,1.8-2.5,3.1-4.3,4c-1.7,0.9-3.5,1.3-5.4,1.3c-2,0-3.8-0.4-5.4-1.1
		c-1.6-0.7-3-1.8-4.1-3.1c-1.1-1.3-2-2.8-2.7-4.6c-0.6-1.8-1-3.7-1-5.7c0-2,0.3-3.9,1-5.7c0.6-1.8,1.5-3.3,2.7-4.6
		c1.1-1.3,2.5-2.3,4.1-3.1c1.6-0.7,3.4-1.1,5.4-1.1c1.9,0,3.7,0.5,5.4,1.4c1.7,0.9,3.2,2.3,4.3,4.1h0.1v-21.7h3.7v44.4h-3.7v-4.6
		L571.4,477.5L571.4,477.5z M552.5,468.4c0,1.5,0.2,3,0.7,4.3c0.4,1.3,1.1,2.5,1.9,3.5c0.8,1,1.8,1.8,3,2.3c1.2,0.6,2.6,0.9,4.1,0.9
		c1.4,0,2.7-0.3,3.9-0.9c1.2-0.6,2.2-1.3,3.1-2.3c0.9-1,1.6-2.1,2-3.5c0.5-1.3,0.7-2.8,0.7-4.4c0-1.6-0.2-3-0.7-4.4
		c-0.5-1.4-1.2-2.5-2-3.5c-0.9-1-1.9-1.8-3.1-2.3c-1.2-0.6-2.5-0.9-3.9-0.9c-1.5,0-2.9,0.3-4.1,0.9c-1.2,0.6-2.2,1.4-3,2.4
		c-0.8,1-1.4,2.2-1.9,3.5C552.7,465.4,552.5,466.9,552.5,468.4z"/>
</g>
<rect x="68.5" y="305.9" fill="#00AEEF" width="30.4" height="125.9"/>
<rect x="143" y="305.9" fill="#7053A3" width="30.4" height="125.9"/>
<polygon fill="#FEBE27" points="439.2,431.8 404.7,431.8 324.7,305.9 359.4,305.9 "/>
<rect x="459.8" y="305.9" fill="#71BF44" width="29.7" height="125.9"/>
</svg>
