<?xml version="1.0" encoding="utf-8"?>
<!-- Generator: Adobe Illustrator 18.1.1, SVG Export Plug-In . SVG Version: 6.00 Build 0)  -->
<svg version="1.1" id="Layer_1" xmlns="http://www.w3.org/2000/svg" xmlns:xlink="http://www.w3.org/1999/xlink" x="0px" y="0px"
	 viewBox="0 0 646 220" enable-background="new 0 0 646 220" xml:space="preserve">
<path fill="#333333" d="M98.9,59v18.2h27.3c23.2,0,41.9,18.7,41.9,41.9S149.3,161,126.2,161c-0.6,0-1.3-0.1-1.8-0.1v-18.2
	c0.6,0.1,1.2,0.1,1.8,0.1c13,0,23.7-10.6,23.7-23.7c0-13-10.6-23.7-23.7-23.7H98.9v18.2L66.1,86.3L98.9,59"/>
<g>
	<path fill="#333333" d="M262.7,158.2v-37.8h-40.2v37.8h-24.7V61h24.7v40h40.2V61h24.7v97.2H262.7z"/>
	<path fill="#333333" d="M371.9,120.7c0,23.1-16.4,38.3-40.8,38.3c-24.6,0-41-15.3-41-38.3c0-23.1,16.4-38.2,41-38.2
		C355.5,82.5,371.9,97.6,371.9,120.7z M314.3,121c0,11.6,6.8,19.4,16.8,19.4c9.9,0,16.6-7.8,16.6-19.4c0-11.5-6.8-19.4-16.6-19.4
		C321.2,101.6,314.3,109.4,314.3,121z"/>
	<path fill="#333333" d="M501.4,111v47.2h-23.8v-40.5c0-8.9-5-14.3-12.9-14.3c-9,0.3-14.5,7.6-14.5,17.8v37h-24v-40.5
		c0-8.9-4.8-14.3-12.8-14.3c-9.2,0.3-14.9,7.6-14.9,17.8v37h-23.9V83.3h23.9v12.4c5.1-8.9,13.7-13.3,24.7-13.5
		c12.2,0,21.2,6.4,25,17c4.8-11.1,14-16.8,26.3-17C490.9,82.2,501.4,93.4,501.4,111z"/>
	<path fill="#333333" d="M578.8,127.2h-52.6c2.3,8.9,8.8,13.9,17.6,13.9c6.5,0,12.9-2.7,17.9-7.6l12.6,12.4
		c-7.6,8.4-18.9,13.2-32.6,13.2c-24.4,0-39.7-15.3-39.7-38c0-23.2,15.8-38.5,39-38.5C567.4,82.5,580.4,99.9,578.8,127.2z
		 M555.8,114.3c0-9.2-5.9-15.1-14.5-15.1c-8.4,0-14,6.1-15.6,15.1H555.8z"/>
</g>
</svg>
