<?xml version="1.0" encoding="utf-8"?>
<!-- Generator: Adobe Illustrator 19.0.0, SVG Export Plug-In . SVG Version: 6.00 Build 0)  -->
<svg version="1.1" id="Layer_1" xmlns="http://www.w3.org/2000/svg" xmlns:xlink="http://www.w3.org/1999/xlink" x="0px" y="0px"
	 viewBox="0 0 1126.1 365.3" style="enable-background:new 0 0 1126.1 365.3;" xml:space="preserve">
<style type="text/css">
	.st0{fill:#404041;}
	.st1{fill:#D52A27;}
	.st2{fill:#929497;}
	.st3{fill:#00ADEE;}
	.st4{fill:#7053A2;}
	.st5{fill:#FDBD26;}
	.st6{fill:#70BE44;}
</style>
<g id="XMLID_37_">
	<path class="st0" d="M136.7,53.8v207.1h-63V53.8H0V0h210.4v53.8H136.7z"/>
	<path class="st0" d="M392.8,260.9V151.8H291.1v109.1h-63V0h63v98.8h101.7V0h63v260.9H392.8z"/>
	<path class="st1" d="M498.6,260.9V0H562v260.9H498.6z"/>
	<path class="st0" d="M770.5,260.9l-105-170.6h-1.1l1.5,170.6h-61.2V0h71.9l104.7,170.2h1.1L780.9,0H842v260.9H770.5z"/>
	<path class="st0" d="M1044,260.9l-96.9-120.1h-0.7v120.1h-61.5V0h61.5v106.1h1.1L1040.7,0h78.9l-112.4,120.1l119,140.8H1044z"/>
	<g id="XMLID_31_">
		<path id="XMLID_91_" class="st0" d="M398.3,351.3c-1.4,2.2-3,4.3-4.9,6.2c-1.9,2-4.2,3.7-6.7,5.2c-2.5,1.5-5.3,2.7-8.4,3.5
			c-3.1,0.9-6.4,1.3-10,1.3c-6,0-11.6-1.1-16.8-3.4c-5.1-2.3-9.5-5.4-13.2-9.4c-3.7-4-6.6-8.8-8.7-14.3c-2.1-5.5-3.1-11.6-3.1-18.1
			c0-6.6,1.1-12.6,3.2-18.1c2.1-5.5,5-10.3,8.8-14.3s8.1-7.2,13.2-9.4c5.1-2.3,10.6-3.4,16.6-3.4c2.9,0,5.8,0.3,8.7,1
			c2.8,0.7,5.5,1.6,8,2.8c2.5,1.2,4.8,2.6,6.8,4.3c2,1.7,3.7,3.6,5.1,5.7L390,296c-0.8-1.4-1.9-2.8-3.3-4.1c-1.4-1.4-3-2.6-4.9-3.7
			c-1.9-1.1-3.9-1.9-6.2-2.6c-2.2-0.6-4.6-1-7.2-1c-5.2,0-9.9,1-14,3c-4.1,2-7.6,4.8-10.5,8.2c-2.9,3.4-5.1,7.4-6.6,12
			c-1.5,4.5-2.3,9.3-2.3,14.3c0,5,0.8,9.8,2.3,14.3c1.5,4.5,3.8,8.5,6.6,11.9c2.9,3.4,6.4,6.2,10.5,8.2c4.1,2,8.7,3,13.9,3
			c4.6,0,9-1,13.1-3c4.1-2,7.6-5.3,10.4-9.7L398.3,351.3z"/>
		<path id="XMLID_93_" class="st0" d="M413.9,317.7c1.4-3.3,3.8-6,7.1-7.9c3.3-1.9,6.9-2.9,10.6-2.9c6.7,0,11.8,2.2,15.1,6.5
			c3.4,4.3,5,10,5,17v34.9h-7.7v-31.5c0-3-0.2-5.7-0.7-8.2c-0.5-2.4-1.2-4.5-2.3-6.3c-1.1-1.7-2.6-3.1-4.4-4.1c-1.9-1-4.2-1.5-7-1.5
			c-2,0-4,0.4-5.9,1.3c-1.9,0.9-3.6,2.3-5.1,4.1c-1.5,1.8-2.7,4.1-3.6,6.9c-0.9,2.8-1.4,6.1-1.4,9.9v29.2H406v-92h7.7v44.4H413.9z"
			/>
		<path id="XMLID_95_" class="st0" d="M475,286.4c0,1.7-0.6,3.1-1.7,4.2c-1.1,1.1-2.4,1.6-3.7,1.6s-2.6-0.5-3.7-1.6
			c-1.1-1.1-1.7-2.5-1.7-4.2c0-1.7,0.6-3.1,1.7-4.2c1.1-1.1,2.4-1.6,3.7-1.6s2.6,0.5,3.7,1.6S475,284.7,475,286.4z M473.4,365.3
			h-7.7v-57h7.7V365.3z"/>
		<path id="XMLID_98_" class="st0" d="M495.7,365.3H488v-92h7.7V365.3z"/>
		<path id="XMLID_100_" class="st0" d="M553.8,355.7c-2.3,3.7-5.2,6.4-8.8,8.3s-7.4,2.8-11.2,2.8c-4.2,0-7.9-0.8-11.3-2.3
			c-3.4-1.5-6.2-3.7-8.6-6.3c-2.4-2.7-4.2-5.8-5.5-9.5c-1.3-3.7-2-7.6-2-11.8c0-4.2,0.7-8.2,2-11.8c1.3-3.7,3.2-6.8,5.5-9.5
			c2.4-2.7,5.2-4.8,8.6-6.3c3.4-1.5,7.1-2.3,11.3-2.3c3.8,0,7.6,1,11.2,2.9c3.6,1.9,6.6,4.7,8.8,8.5h0.2v-44.9h7.7v92H554v-9.6
			H553.8z M514.5,336.8c0,3.2,0.5,6.1,1.4,8.9c0.9,2.8,2.2,5.2,3.9,7.3s3.8,3.7,6.3,4.9c2.5,1.2,5.3,1.8,8.5,1.8
			c2.9,0,5.7-0.6,8.1-1.8c2.5-1.2,4.6-2.8,6.5-4.8c1.8-2,3.2-4.4,4.2-7.2c1-2.8,1.5-5.8,1.5-9.1c0-3.2-0.5-6.3-1.5-9.1
			c-1-2.8-2.4-5.2-4.2-7.3c-1.8-2.1-4-3.7-6.5-4.9c-2.5-1.2-5.2-1.8-8.1-1.8c-3.2,0-6,0.6-8.5,1.8c-2.5,1.2-4.6,2.9-6.3,4.9
			s-3,4.5-3.9,7.3C515,330.7,514.5,333.6,514.5,336.8z"/>
		<path id="XMLID_103_" class="st0" d="M614.4,321.4c-1.3-2.2-3.2-4-5.6-5.4c-2.5-1.4-5.1-2.1-8-2.1c-3.1,0-5.9,0.6-8.4,1.8
			c-2.5,1.2-4.6,2.8-6.4,4.9c-1.8,2.1-3.1,4.5-4.1,7.3c-0.9,2.8-1.4,5.8-1.4,9.1c0,3.2,0.5,6.2,1.4,9c0.9,2.8,2.3,5.2,4,7.2
			c1.7,2.1,3.8,3.7,6.3,4.9c2.5,1.2,5.3,1.8,8.4,1.8c3.4,0,6.3-0.7,8.6-2.1c2.3-1.4,4.3-3.2,5.8-5.4l5.8,4.6c-2.3,3-5,5.4-8.3,7.2
			c-3.3,1.8-7.2,2.7-11.8,2.7c-4.3,0-8.2-0.8-11.7-2.3c-3.5-1.5-6.4-3.6-8.9-6.3c-2.5-2.7-4.4-5.8-5.7-9.5c-1.4-3.7-2-7.6-2-11.9
			c0-4.3,0.7-8.3,2-11.9s3.3-6.8,5.7-9.5c2.5-2.7,5.4-4.8,8.9-6.3c3.5-1.5,7.4-2.3,11.7-2.3c3.5,0,7.1,0.8,10.8,2.5
			c3.7,1.7,6.6,4.1,8.9,7.4L614.4,321.4z"/>
		<path id="XMLID_105_" class="st0" d="M660.1,328.4c0-4.9-1.2-8.6-3.6-11c-2.4-2.4-5.9-3.6-10.5-3.6c-3.2,0-6.1,0.6-8.8,1.8
			c-2.7,1.2-5,2.8-6.9,4.9l-4.3-5.5c2.2-2.4,5.1-4.3,8.7-5.8c3.6-1.5,7.6-2.3,12.2-2.3c2.9,0,5.5,0.4,8,1.3c2.5,0.9,4.7,2.1,6.6,3.8
			c1.9,1.7,3.4,3.9,4.4,6.5c1.1,2.6,1.6,5.6,1.6,9.1v25c0,2.2,0.1,4.5,0.2,6.8c0.2,2.4,0.4,4.3,0.7,6h-6.9c-0.2-1.4-0.4-2.9-0.6-4.5
			c-0.2-1.6-0.2-3.2-0.2-4.7h-0.2c-2.4,3.8-5.2,6.6-8.2,8.2s-6.7,2.5-11,2.5c-2,0-4.1-0.3-6.3-0.9c-2.2-0.6-4.1-1.6-5.9-3
			c-1.8-1.4-3.2-3.2-4.4-5.4c-1.2-2.2-1.8-4.9-1.8-8.1c0-4.4,1-7.9,3.1-10.4c2.1-2.6,4.8-4.5,8.3-5.7c3.5-1.3,7.5-2.1,11.9-2.4
			c4.5-0.4,9.1-0.5,14-0.5V328.4z M657.8,336.8c-3.2,0-6.4,0.1-9.6,0.4c-3.2,0.3-6.1,0.9-8.7,1.7c-2.6,0.9-4.7,2.1-6.4,3.7
			c-1.7,1.6-2.5,3.8-2.5,6.5c0,2,0.4,3.7,1.1,5.1c0.7,1.4,1.7,2.5,2.9,3.3c1.2,0.9,2.5,1.5,4,1.8c1.5,0.4,3,0.5,4.5,0.5
			c2.7,0,5.1-0.5,7.2-1.5c2.1-1,3.9-2.4,5.3-4.1c1.4-1.7,2.5-3.8,3.3-6c0.8-2.3,1.1-4.7,1.1-7.2v-4.3H657.8z"/>
		<path id="XMLID_108_" class="st0" d="M680.9,314.9c-0.1-2.4-0.2-4.6-0.3-6.6h7.4c0.2,1.5,0.3,3.2,0.3,5.1c0.1,1.9,0.1,3.4,0.1,4.6
			h0.2c1.5-3.3,3.8-6,6.8-8.1c3-2.1,6.4-3.1,10.2-3.1c1,0,1.9,0,2.7,0.1c0.8,0.1,1.6,0.2,2.4,0.5l-1,7.9c-0.5-0.2-1.2-0.3-2.3-0.5
			c-1.1-0.2-2.1-0.2-3.2-0.2c-2,0-4,0.4-5.9,1.2c-1.9,0.8-3.5,2.1-4.9,3.8c-1.4,1.7-2.5,4-3.4,6.7c-0.9,2.7-1.3,6-1.3,9.8v29.1H681
			v-44.4C681,319.3,681,317.3,680.9,314.9z"/>
		<path id="XMLID_110_" class="st0" d="M761.8,335.1c0,0.6,0,1.2,0,1.8c0,0.7,0,1.3-0.1,2.1h-43.9c0.1,2.8,0.6,5.5,1.6,8
			c1,2.5,2.3,4.7,4.1,6.6c1.7,1.9,3.8,3.3,6.1,4.4c2.3,1.1,4.9,1.6,7.6,1.6c4,0,7.5-1,10.4-3c2.9-2,5.1-4.3,6.6-6.9l5.8,4.9
			c-3.2,4.3-6.7,7.4-10.5,9.2c-3.8,1.9-7.9,2.8-12.3,2.8c-3.9,0-7.6-0.8-10.9-2.3c-3.4-1.5-6.2-3.6-8.7-6.3
			c-2.4-2.7-4.3-5.8-5.7-9.5c-1.4-3.7-2.1-7.6-2.1-11.9c0-4.3,0.7-8.3,2-11.9s3.2-6.8,5.7-9.5c2.4-2.7,5.2-4.8,8.5-6.3
			c3.2-1.5,6.8-2.3,10.5-2.3c4.1,0,7.8,0.8,11,2.3c3.2,1.5,5.8,3.5,7.9,6.1c2.1,2.6,3.7,5.5,4.8,8.9
			C761.3,327.6,761.8,331.2,761.8,335.1z M754,332.4c-0.2-5.4-1.8-9.8-4.8-13.3c-3-3.5-7.2-5.3-12.7-5.3c-2.6,0-4.9,0.5-7.1,1.5
			c-2.2,1-4.1,2.4-5.8,4.1c-1.7,1.7-3,3.7-4,6c-1,2.2-1.5,4.6-1.7,7H754z"/>
		<path id="XMLID_113_" class="st2" d="M803,357.5h37.4v7.8h-45.5v-86.2h8.1V357.5z"/>
		<path id="XMLID_115_" class="st2" d="M855.5,286.4c0,1.7-0.6,3.1-1.7,4.2c-1.1,1.1-2.4,1.6-3.7,1.6s-2.6-0.5-3.7-1.6
			c-1.1-1.1-1.7-2.5-1.7-4.2c0-1.7,0.6-3.1,1.7-4.2s2.4-1.6,3.7-1.6s2.6,0.5,3.7,1.6S855.5,284.7,855.5,286.4z M853.9,365.3h-7.7
			v-57h7.7V365.3z"/>
		<path id="XMLID_118_" class="st2" d="M882.8,310c3.1-2.1,6.6-3.1,10.5-3.1c1.4,0,2.9,0.2,4.5,0.5c1.5,0.3,3.1,1,4.5,1.9
			c1.5,0.9,2.8,2.2,4.1,3.7c1.2,1.5,2.3,3.5,3.2,6c1.8-3.9,4.3-6.9,7.4-8.9c3.1-2.1,6.8-3.1,11.1-3.1c6.7,0,11.8,2.2,15.1,6.5
			c3.4,4.3,5,10,5,17v34.9h-7.7v-31.5c0-6-1-10.8-3.1-14.5c-2.1-3.7-5.6-5.5-10.6-5.5c-2.8,0-5.2,0.6-7.1,1.8
			c-1.9,1.2-3.5,2.8-4.6,4.8c-1.2,2-2,4.2-2.5,6.8c-0.5,2.5-0.8,5.1-0.8,7.8v30.3h-7.7v-33.2c0-2.8-0.2-5.3-0.6-7.5
			c-0.4-2.3-1-4.2-2-5.8c-0.9-1.6-2.2-2.8-3.9-3.7c-1.7-0.9-3.8-1.3-6.3-1.3c-1.8,0-3.6,0.4-5.5,1.3c-1.9,0.9-3.5,2.3-5,4.1
			s-2.7,4.1-3.6,6.9c-0.9,2.8-1.4,6.1-1.4,9.9v29.2h-7.7v-44.4c0-1.5,0-3.5-0.1-6c-0.1-2.4-0.2-4.6-0.3-6.6h7.4
			c0.2,1.5,0.3,3.2,0.3,5.1c0.1,1.9,0.1,3.4,0.1,4.6h0.2C877.3,314.7,879.7,312,882.8,310z"/>
		<path id="XMLID_120_" class="st2" d="M971.5,286.4c0,1.7-0.6,3.1-1.7,4.2c-1.1,1.1-2.4,1.6-3.7,1.6s-2.6-0.5-3.7-1.6
			c-1.1-1.1-1.7-2.5-1.7-4.2c0-1.7,0.6-3.1,1.7-4.2s2.4-1.6,3.7-1.6s2.6,0.5,3.7,1.6S971.5,284.7,971.5,286.4z M969.9,365.3h-7.7
			v-57h7.7V365.3z"/>
		<path id="XMLID_123_" class="st2" d="M1008.1,315.3h-14.9v33.2c0,2.1,0.2,3.9,0.6,5.2c0.4,1.4,0.9,2.5,1.6,3.2
			c0.7,0.8,1.6,1.3,2.5,1.6c1,0.3,2,0.4,3.2,0.4c1.1,0,2.2-0.2,3.3-0.5c1.2-0.3,2.3-0.8,3.3-1.3l0.3,7.2c-1.4,0.6-2.8,1-4.2,1.3
			c-1.5,0.3-3.1,0.4-4.8,0.4c-1.4,0-2.9-0.2-4.5-0.6c-1.6-0.4-3.1-1.2-4.4-2.3c-1.4-1.1-2.5-2.7-3.3-4.6c-0.9-1.9-1.3-4.5-1.3-7.7
			v-35.5h-11v-6.9h11v-16.1h7.7v16.1h14.9V315.3z"/>
		<path id="XMLID_125_" class="st2" d="M1062.2,335.1c0,0.6,0,1.2,0,1.8c0,0.7,0,1.3-0.1,2.1h-43.9c0.1,2.8,0.6,5.5,1.6,8
			c1,2.5,2.3,4.7,4.1,6.6c1.7,1.9,3.8,3.3,6.1,4.4c2.3,1.1,4.9,1.6,7.6,1.6c4,0,7.5-1,10.4-3c2.9-2,5.1-4.3,6.6-6.9l5.8,4.9
			c-3.2,4.3-6.7,7.4-10.5,9.2c-3.8,1.9-7.9,2.8-12.3,2.8c-3.9,0-7.6-0.8-10.9-2.3c-3.4-1.5-6.2-3.6-8.7-6.3
			c-2.4-2.7-4.3-5.8-5.7-9.5c-1.4-3.7-2.1-7.6-2.1-11.9c0-4.3,0.7-8.3,2-11.9s3.2-6.8,5.7-9.5c2.4-2.7,5.2-4.8,8.5-6.3
			c3.2-1.5,6.8-2.3,10.5-2.3c4.1,0,7.8,0.8,11,2.3c3.2,1.5,5.8,3.5,7.9,6.1c2.1,2.6,3.7,5.5,4.8,8.9
			C1061.7,327.6,1062.2,331.2,1062.2,335.1z M1054.4,332.4c-0.2-5.4-1.8-9.8-4.8-13.3c-3-3.5-7.2-5.3-12.7-5.3
			c-2.6,0-4.9,0.5-7.1,1.5c-2.2,1-4.1,2.4-5.8,4.1c-1.7,1.7-3,3.7-4,6c-1,2.2-1.5,4.6-1.7,7H1054.4z"/>
		<path id="XMLID_128_" class="st2" d="M1116.2,355.7c-2.3,3.7-5.2,6.4-8.8,8.3s-7.4,2.8-11.2,2.8c-4.2,0-7.9-0.8-11.3-2.3
			c-3.4-1.5-6.2-3.7-8.6-6.3s-4.2-5.8-5.5-9.5c-1.3-3.7-2-7.6-2-11.8c0-4.2,0.7-8.2,2-11.8c1.3-3.7,3.2-6.8,5.5-9.5s5.2-4.8,8.6-6.3
			c3.4-1.5,7.1-2.3,11.3-2.3c3.8,0,7.6,1,11.2,2.9c3.6,1.9,6.6,4.7,8.8,8.5h0.2v-44.9h7.7v92h-7.7v-9.6H1116.2z M1077,336.8
			c0,3.2,0.5,6.1,1.4,8.9c0.9,2.8,2.2,5.2,3.9,7.3c1.7,2.1,3.8,3.7,6.3,4.9c2.5,1.2,5.3,1.8,8.5,1.8c2.9,0,5.7-0.6,8.1-1.8
			c2.5-1.2,4.6-2.8,6.5-4.8c1.8-2,3.2-4.4,4.2-7.2c1-2.8,1.5-5.8,1.5-9.1c0-3.2-0.5-6.3-1.5-9.1c-1-2.8-2.4-5.2-4.2-7.3
			c-1.8-2.1-4-3.7-6.5-4.9c-2.5-1.2-5.2-1.8-8.1-1.8c-3.2,0-6,0.6-8.5,1.8c-2.5,1.2-4.6,2.9-6.3,4.9c-1.7,2.1-3,4.5-3.9,7.3
			C1077.4,330.7,1077,333.6,1077,336.8z"/>
	</g>
	<rect id="XMLID_30_" x="73.7" class="st3" width="63" height="260.9"/>
	<rect id="XMLID_29_" x="228.1" class="st4" width="63" height="260.9"/>
	<polygon id="XMLID_28_" class="st5" points="842,260.9 770.5,260.9 604.7,0 676.6,0 	"/>
	<rect id="XMLID_27_" x="884.8" class="st6" width="61.5" height="260.9"/>
</g>
<g id="XMLID_90_">
</g>
<g id="XMLID_131_">
</g>
<g id="XMLID_132_">
</g>
<g id="XMLID_133_">
</g>
<g id="XMLID_134_">
</g>
<g id="XMLID_135_">
</g>
</svg>
