<?xml version="1.0" encoding="utf-8"?>
<!-- Generator: Adobe Illustrator 19.0.0, SVG Export Plug-In . SVG Version: 6.00 Build 0)  -->
<svg version="1.1" id="Layer_1" xmlns="http://www.w3.org/2000/svg" xmlns:xlink="http://www.w3.org/1999/xlink" x="0px" y="0px"
	 viewBox="8.7 208.5 1171.9 427" style="enable-background:new 8.7 208.5 1171.9 427;" xml:space="preserve">
<style type="text/css">
	.st0{fill:#404041;}
	.st1{fill:#D52A27;}
	.st2{fill:#929497;}
	.st3{fill:#00ADEE;}
	.st4{fill:#7053A2;}
	.st5{fill:#FDBD26;}
	.st6{fill:#70BE44;}
</style>
<g>
	<path class="st0" d="M150.9,264.5V480H85.4V264.5H8.7v-56h219v56H150.9z"/>
	<path class="st0" d="M417.5,480V366.5H311.6V480H246V208.5h65.6v102.8h105.8V208.5H483V480H417.5z"/>
	<path class="st1" d="M527.5,480V208.5h66V480H527.5z"/>
	<path class="st0" d="M810.5,480L701.3,302.4h-1.2l1.5,177.6H638V208.5h74.8l108.9,177.2h1.2l-1.5-177.2h63.7V480H810.5z"/>
	<path class="st0" d="M1095.1,480L994.2,355h-0.8v125h-64V208.5h64v110.4h1.2l97-110.4h82.1l-117,125L1180.6,480H1095.1z"/>
	<g>
		<path class="st0" d="M114.1,611.7c-2,3.2-4.4,6.3-7.2,9.1c-2.8,2.9-6.1,5.4-9.8,7.6c-3.7,2.2-7.8,3.9-12.3,5.2s-9.4,1.9-14.7,1.9
			c-8.9,0-17.1-1.7-24.6-5s-14-8-19.5-13.9c-5.4-5.9-9.7-12.9-12.7-21c-3.1-8.1-4.6-17-4.6-26.6c0-9.7,1.6-18.5,4.7-26.6
			s7.4-15.1,12.9-21s12-10.5,19.5-13.9c7.5-3.3,15.6-5,24.4-5c4.3,0,8.6,0.5,12.7,1.5c4.2,1,8.1,2.3,11.7,4.1c3.7,1.8,7,3.9,10,6.3
			c3,2.5,5.5,5.2,7.5,8.3l-10,7.9c-1.2-2-2.9-4.1-4.9-6.1c-2.1-2-4.5-3.8-7.2-5.4c-2.8-1.5-5.8-2.8-9.1-3.8c-3.3-1-6.8-1.4-10.6-1.4
			c-7.7,0-14.5,1.5-20.5,4.5s-11.2,7-15.4,12c-4.2,5.1-7.4,10.9-9.6,17.6c-2.2,6.7-3.3,13.7-3.3,21c0,7.4,1.1,14.4,3.4,21
			c2.3,6.7,5.5,12.5,9.7,17.6s9.3,9.1,15.4,12c6,3,12.8,4.5,20.4,4.5c6.8,0,13.2-1.5,19.3-4.5c6.1-3,11.2-7.7,15.3-14.3L114.1,611.7
			z"/>
		<path class="st0" d="M137,562.4c2.1-4.9,5.6-8.8,10.5-11.6c4.9-2.9,10.1-4.3,15.6-4.3c9.9,0,17.3,3.2,22.2,9.5s7.4,14.7,7.4,25
			v51.3h-11.3V586c0-4.4-0.3-8.4-1-12s-1.8-6.6-3.4-9.2c-1.6-2.6-3.8-4.6-6.5-6s-6.1-2.1-10.2-2.1c-3,0-5.9,0.7-8.7,2
			s-5.4,3.3-7.6,6c-2.2,2.7-4,6.1-5.3,10.2c-1.3,4.1-2,9-2,14.6v42.9h-11.3V497.1h11.3v65.3H137z"/>
		<path class="st0" d="M226.9,516.4c0,2.5-0.8,4.6-2.5,6.2c-1.7,1.6-3.5,2.4-5.5,2.4s-3.8-0.8-5.5-2.4c-1.7-1.6-2.5-3.7-2.5-6.2
			s0.8-4.6,2.5-6.2c1.7-1.6,3.5-2.4,5.5-2.4s3.8,0.8,5.5,2.4C226,511.9,226.9,513.9,226.9,516.4z M224.5,632.3h-11.3v-83.7h11.3
			V632.3z"/>
		<path class="st0" d="M257.3,632.3H246V497.1h11.3V632.3z"/>
		<path class="st0" d="M342.6,618.2c-3.3,5.4-7.7,9.4-13,12.2c-5.3,2.7-10.8,4.1-16.5,4.1c-6.1,0-11.6-1.1-16.5-3.4
			c-4.9-2.3-9.1-5.4-12.6-9.3c-3.5-3.9-6.2-8.6-8.1-13.9c-1.9-5.4-2.9-11.1-2.9-17.3s1-12,2.9-17.3c1.9-5.4,4.7-10,8.1-14
			c3.5-3.9,7.7-7,12.6-9.3s10.4-3.4,16.5-3.4c5.7,0,11.1,1.4,16.5,4.2c5.3,2.8,9.6,6.9,13,12.4h0.3v-66h11.3v135.2h-11.3v-14.1h-0.3
			V618.2z M284.9,590.5c0,4.6,0.7,9,2,13.1s3.2,7.7,5.7,10.7s5.6,5.4,9.2,7.2c3.7,1.7,7.8,2.6,12.5,2.6c4.3,0,8.3-0.9,12-2.6
			c3.7-1.7,6.8-4.1,9.5-7.1s4.7-6.5,6.2-10.6s2.2-8.6,2.2-13.3c0-4.8-0.7-9.2-2.2-13.3s-3.6-7.7-6.2-10.7c-2.7-3-5.8-5.4-9.5-7.2
			c-3.7-1.7-7.7-2.6-12-2.6c-4.7,0-8.8,0.9-12.5,2.7s-6.7,4.2-9.2,7.2s-4.4,6.6-5.7,10.7C285.6,581.4,284.9,585.8,284.9,590.5z"/>
		<path class="st0" d="M431.6,567.7c-1.9-3.2-4.6-5.9-8.2-8s-7.5-3.1-11.7-3.1c-4.5,0-8.6,0.9-12.3,2.6c-3.7,1.7-6.8,4.1-9.4,7.2
			c-2.6,3-4.6,6.6-6,10.7c-1.4,4.1-2.1,8.6-2.1,13.3c0,4.8,0.7,9.2,2.1,13.2c1.4,4.1,3.4,7.6,5.9,10.6s5.7,5.4,9.3,7.2
			c3.7,1.7,7.8,2.6,12.3,2.6c5,0,9.2-1,12.6-3s6.3-4.6,8.5-7.9l8.5,6.8c-3.3,4.4-7.4,7.9-12.2,10.5c-4.8,2.6-10.6,3.9-17.4,3.9
			c-6.3,0-12-1.1-17.1-3.3s-9.5-5.3-13.1-9.2s-6.4-8.6-8.4-13.9c-2-5.4-3-11.2-3-17.5s1-12.2,3-17.5c2-5.4,4.8-10,8.4-13.9
			s8-7,13.1-9.2s10.8-3.3,17.1-3.3c5.2,0,10.5,1.2,15.9,3.7c5.4,2.4,9.7,6.1,13.1,10.8L431.6,567.7z"/>
		<path class="st0" d="M498.8,578.1c0-7.2-1.8-12.6-5.3-16.2c-3.5-3.5-8.7-5.3-15.5-5.3c-4.7,0-9,0.9-13,2.7s-7.4,4.2-10.1,7.2
			l-6.3-8c3.2-3.5,7.5-6.3,12.7-8.6c5.3-2.3,11.2-3.4,17.9-3.4c4.2,0,8.1,0.6,11.8,1.9c3.7,1.3,6.9,3.1,9.6,5.6
			c2.8,2.5,4.9,5.7,6.5,9.5s2.3,8.3,2.3,13.4v36.7c0,3.2,0.1,6.6,0.3,10c0.2,3.5,0.6,6.4,1,8.8h-10.1c-0.3-2-0.6-4.2-0.8-6.6
			c-0.2-2.4-0.3-4.7-0.3-7h-0.3c-3.5,5.6-7.6,9.6-12.1,12.1c-4.5,2.4-9.9,3.7-16.2,3.7c-3,0-6.1-0.4-9.2-1.3c-3.2-0.9-6-2.4-8.6-4.4
			s-4.8-4.7-6.5-7.9s-2.6-7.2-2.6-11.8c0-6.5,1.5-11.6,4.6-15.3c3-3.8,7.1-6.6,12.2-8.4c5.1-1.9,10.9-3.1,17.5-3.6
			s13.4-0.8,20.5-0.8V578.1z M495.4,590.5c-4.7,0-9.3,0.2-14.1,0.6c-4.7,0.4-9,1.2-12.8,2.5c-3.8,1.2-7,3.1-9.4,5.5
			s-3.7,5.5-3.7,9.5c0,3,0.5,5.5,1.6,7.5s2.5,3.7,4.2,4.9c1.8,1.3,3.7,2.1,5.9,2.7c2.2,0.5,4.4,0.8,6.6,0.8c4,0,7.5-0.7,10.6-2.2
			s5.7-3.5,7.8-6.1c2.1-2.6,3.7-5.5,4.8-8.9c1.1-3.3,1.7-6.9,1.7-10.5v-6.3H495.4z"/>
		<path class="st0" d="M529.4,558.3c-0.1-3.6-0.3-6.8-0.5-9.7h10.8c0.2,2.3,0.4,4.8,0.5,7.5s0.2,5,0.2,6.8h0.3
			c2.2-4.9,5.5-8.9,10-11.9c4.4-3,9.4-4.6,15-4.6c1.4,0,2.7,0.1,3.9,0.2c1.2,0.1,2.4,0.4,3.6,0.7l-1.5,11.6
			c-0.7-0.2-1.8-0.5-3.3-0.7c-1.6-0.2-3.1-0.4-4.7-0.4c-3,0-5.9,0.6-8.6,1.8c-2.8,1.2-5.2,3.1-7.2,5.6c-2.1,2.6-3.7,5.8-5,9.8
			s-1.9,8.8-1.9,14.4v42.8h-11.3V567C529.5,564.8,529.5,561.8,529.4,558.3z"/>
		<path class="st0" d="M648.3,588c0,0.8,0,1.7,0,2.7s-0.1,2-0.2,3h-64.5c0.1,4.2,0.9,8.1,2.3,11.8c1.4,3.7,3.4,6.9,6,9.7
			c2.5,2.7,5.5,4.9,9,6.5c3.4,1.6,7.2,2.4,11.1,2.4c5.9,0,10.9-1.5,15.2-4.4s7.5-6.3,9.7-10.1l8.5,7.2c-4.7,6.3-9.8,10.8-15.4,13.6
			c-5.6,2.7-11.6,4.1-18,4.1c-5.8,0-11.1-1.1-16-3.3s-9.2-5.3-12.7-9.2s-6.3-8.6-8.4-13.9c-2.1-5.4-3.1-11.2-3.1-17.5s1-12.2,3-17.5
			c2-5.4,4.8-10,8.3-13.9s7.7-7,12.5-9.2s9.9-3.3,15.5-3.3c6.1,0,11.5,1.1,16.1,3.3c4.7,2.2,8.5,5.2,11.6,8.9
			c3.1,3.8,5.5,8.1,7.1,13.1C647.5,576.9,648.3,582.2,648.3,588z M636.8,584c-0.3-7.9-2.7-14.4-7.1-19.6c-4.4-5.2-10.6-7.8-18.7-7.8
			c-3.8,0-7.3,0.7-10.5,2.2s-6,3.5-8.5,6.1c-2.4,2.6-4.4,5.5-5.8,8.8c-1.4,3.3-2.3,6.7-2.5,10.3H636.8z"/>
		<path class="st2" d="M708.8,620.9h54.9v11.4h-66.9V505.7h12V620.9z"/>
		<path class="st2" d="M785.8,516.4c0,2.5-0.8,4.6-2.5,6.2c-1.7,1.6-3.5,2.4-5.5,2.4s-3.8-0.8-5.5-2.4c-1.7-1.6-2.5-3.7-2.5-6.2
			s0.8-4.6,2.5-6.2c1.7-1.6,3.5-2.4,5.5-2.4s3.8,0.8,5.5,2.4C785,511.9,785.8,513.9,785.8,516.4z M783.5,632.3h-11.3v-83.7h11.3
			V632.3z"/>
		<path class="st2" d="M826,551c4.6-3,9.7-4.6,15.4-4.6c2.1,0,4.3,0.2,6.6,0.7s4.5,1.4,6.7,2.8c2.2,1.4,4.2,3.2,6,5.5
			s3.4,5.2,4.7,8.8c2.7-5.7,6.3-10.1,10.9-13.1c4.6-3,10.1-4.6,16.4-4.6c9.9,0,17.3,3.2,22.2,9.5s7.4,14.7,7.4,25v51.3H911V586
			c0-8.8-1.5-15.9-4.6-21.3c-3-5.4-8.2-8-15.5-8c-4.1,0-7.6,0.9-10.4,2.7c-2.8,1.8-5.1,4.1-6.8,7.1c-1.7,2.9-3,6.2-3.7,9.9
			c-0.8,3.7-1.2,7.5-1.2,11.4v44.5h-11.3v-48.8c0-4.1-0.3-7.7-0.8-11.1c-0.6-3.3-1.5-6.2-2.9-8.5s-3.3-4.1-5.7-5.4
			c-2.4-1.3-5.5-1.9-9.3-1.9c-2.7,0-5.4,0.7-8.1,2c-2.7,1.3-5.2,3.3-7.3,6c-2.2,2.7-3.9,6.1-5.2,10.2c-1.3,4.1-2,9-2,14.6v42.9
			h-11.3V567c0-2.3-0.1-5.2-0.2-8.8c-0.1-3.6-0.3-6.8-0.5-9.7H815c0.2,2.3,0.4,4.8,0.5,7.5s0.2,5,0.2,6.8h0.3
			C818,558,821.4,554.1,826,551z"/>
		<path class="st2" d="M956.3,516.4c0,2.5-0.8,4.6-2.5,6.2c-1.7,1.6-3.5,2.4-5.5,2.4s-3.8-0.8-5.5-2.4c-1.7-1.6-2.5-3.7-2.5-6.2
			s0.8-4.6,2.5-6.2c1.7-1.6,3.5-2.4,5.5-2.4s3.8,0.8,5.5,2.4C955.5,511.8,956.3,513.9,956.3,516.4z M953.9,632.3h-11.3v-83.7h11.3
			V632.3z"/>
		<path class="st2" d="M1010.2,558.8h-22v48.8c0,3.1,0.3,5.7,0.8,7.7c0.6,2,1.4,3.6,2.4,4.7c1.1,1.1,2.3,1.9,3.7,2.3
			c1.4,0.4,3,0.6,4.7,0.6c1.6,0,3.2-0.2,4.9-0.7s3.3-1.1,4.9-2l0.5,10.6c-2,0.8-4.1,1.5-6.2,1.9c-2.2,0.4-4.5,0.6-7.1,0.6
			c-2.1,0-4.3-0.3-6.7-0.9s-4.5-1.7-6.5-3.4s-3.6-3.9-4.9-6.8c-1.3-2.9-1.9-6.6-1.9-11.3v-52.2h-16.1v-10.2h16.1V525h11.3v23.6h22
			L1010.2,558.8L1010.2,558.8z"/>
		<path class="st2" d="M1089.7,588c0,0.8,0,1.7,0,2.7s-0.1,2-0.2,3H1025c0.1,4.2,0.9,8.1,2.3,11.8s3.4,6.9,6,9.7
			c2.5,2.7,5.5,4.9,9,6.5c3.4,1.6,7.1,2.4,11.1,2.4c5.9,0,10.9-1.5,15.2-4.4c4.3-2.9,7.5-6.3,9.7-10.1l8.5,7.2
			c-4.7,6.3-9.8,10.8-15.4,13.6c-5.6,2.7-11.6,4.1-18,4.1c-5.8,0-11.1-1.1-16-3.3s-9.2-5.3-12.7-9.2s-6.3-8.6-8.4-13.9
			c-2.1-5.4-3.1-11.2-3.1-17.5s1-12.2,3-17.5c2-5.4,4.8-10,8.3-13.9c3.5-3.9,7.7-7,12.5-9.2s9.9-3.3,15.5-3.3
			c6.1,0,11.5,1.1,16.1,3.3c4.7,2.2,8.5,5.2,11.6,8.9c3.1,3.8,5.5,8.1,7.1,13.1C1088.8,576.9,1089.7,582.2,1089.7,588z M1078.2,584
			c-0.3-7.9-2.7-14.4-7.1-19.6c-4.4-5.2-10.6-7.8-18.7-7.8c-3.8,0-7.3,0.7-10.5,2.2s-6,3.5-8.5,6.1c-2.4,2.6-4.4,5.5-5.8,8.8
			s-2.3,6.7-2.5,10.3H1078.2z"/>
		<path class="st2" d="M1169,618.2c-3.3,5.4-7.7,9.4-13,12.2c-5.3,2.7-10.8,4.1-16.5,4.1c-6.1,0-11.6-1.1-16.5-3.4
			c-4.9-2.3-9.1-5.4-12.6-9.3c-3.5-3.9-6.2-8.6-8.1-13.9c-1.9-5.4-2.9-11.1-2.9-17.3s1-12,2.9-17.3c1.9-5.4,4.7-10,8.1-14
			c3.5-3.9,7.7-7,12.6-9.3s10.4-3.4,16.5-3.4c5.7,0,11.1,1.4,16.5,4.2c5.3,2.8,9.6,6.9,13,12.4h0.3v-66h11.3v135.2h-11.3v-14.1h-0.3
			V618.2z M1111.3,590.5c0,4.6,0.7,9,2,13.1s3.2,7.7,5.7,10.7s5.6,5.4,9.2,7.2c3.7,1.7,7.8,2.6,12.5,2.6c4.3,0,8.3-0.9,12-2.6
			c3.7-1.7,6.8-4.1,9.5-7.1s4.7-6.5,6.2-10.6s2.2-8.6,2.2-13.3c0-4.8-0.7-9.2-2.2-13.3s-3.6-7.7-6.2-10.7c-2.7-3-5.8-5.4-9.5-7.2
			c-3.7-1.7-7.6-2.6-12-2.6c-4.7,0-8.8,0.9-12.5,2.7s-6.7,4.2-9.2,7.2s-4.4,6.6-5.7,10.7C1111.9,581.4,1111.3,585.8,1111.3,590.5z"
			/>
	</g>
	<rect id="XMLID_4_" x="85.4" y="208.5" class="st3" width="65.6" height="271.5"/>
	<rect id="XMLID_3_" x="246" y="208.5" class="st4" width="65.6" height="271.5"/>
	<polygon id="XMLID_2_" class="st5" points="884.9,480 810.5,480 638,208.5 712.8,208.5 	"/>
	<rect id="XMLID_1_" x="929.4" y="208.5" class="st6" width="64" height="271.5"/>
</g>
<g id="XMLID_34_">
</g>
<g id="XMLID_35_">
</g>
<g id="XMLID_36_">
</g>
<g id="XMLID_37_">
</g>
<g id="XMLID_38_">
</g>
<g id="XMLID_39_">
</g>
</svg>
