<?xml version="1.0" encoding="utf-8"?>
<!-- Generator: Adobe Illustrator 19.0.0, SVG Export Plug-In . SVG Version: 6.00 Build 0)  -->
<svg version="1.1" id="Layer_1" xmlns="http://www.w3.org/2000/svg" xmlns:xlink="http://www.w3.org/1999/xlink" x="0px" y="0px"
	 viewBox="0 0 1126.1 365.3" style="enable-background:new 0 0 1126.1 365.3;" xml:space="preserve">
<style type="text/css">
	.st0{fill:#929497;}
	.st1{fill:#D52A27;}
	.st2{fill:#FFFFFF;}
	.st3{fill:#00ADEE;}
	.st4{fill:#7053A2;}
	.st5{fill:#FDBD26;}
	.st6{fill:#70BE44;}
</style>
<g id="XMLID_37_">
	<path class="st0" d="M136.7,53.8v207.1h-63V53.8H0V0h210.4v53.8H136.7z"/>
	<path class="st0" d="M392.8,260.9V151.8H291.1v109.1h-63V0h63v98.8h101.7V0h63v260.9H392.8z"/>
	<path class="st1" d="M498.6,260.9V0H562v260.9H498.6z"/>
	<path class="st0" d="M770.5,260.9l-105-170.6h-1.1l1.5,170.6h-61.2V0h71.9l104.7,170.2h1.1L780.9,0H842v260.9H770.5z"/>
	<path class="st0" d="M1044,260.9l-96.9-120.1h-0.7v120.1h-61.5V0h61.5v106.1h1.1L1040.7,0h78.9l-112.4,120.1l119,140.8H1044z"/>
	<g id="XMLID_31_">
		<path id="XMLID_193_" class="st2" d="M398.3,351.3c-1.4,2.2-3,4.3-4.9,6.2c-1.9,2-4.2,3.7-6.7,5.2c-2.5,1.5-5.3,2.7-8.4,3.5
			c-3.1,0.9-6.4,1.3-10,1.3c-6,0-11.6-1.1-16.8-3.4c-5.1-2.3-9.5-5.4-13.2-9.4c-3.7-4-6.6-8.8-8.7-14.3c-2.1-5.5-3.1-11.6-3.1-18.1
			c0-6.6,1.1-12.6,3.2-18.1c2.1-5.5,5-10.3,8.8-14.3s8.1-7.2,13.2-9.4c5.1-2.3,10.6-3.4,16.6-3.4c2.9,0,5.8,0.3,8.7,1
			c2.8,0.7,5.5,1.6,8,2.8c2.5,1.2,4.8,2.6,6.8,4.3c2,1.7,3.7,3.6,5.1,5.7L390,296c-0.8-1.4-1.9-2.8-3.3-4.1c-1.4-1.4-3-2.6-4.9-3.7
			c-1.9-1.1-3.9-1.9-6.2-2.6c-2.2-0.6-4.6-1-7.2-1c-5.2,0-9.9,1-14,3c-4.1,2-7.6,4.8-10.5,8.2c-2.9,3.4-5.1,7.4-6.6,12
			c-1.5,4.5-2.3,9.3-2.3,14.3c0,5,0.8,9.8,2.3,14.3c1.5,4.5,3.8,8.5,6.6,11.9c2.9,3.4,6.4,6.2,10.5,8.2c4.1,2,8.7,3,13.9,3
			c4.6,0,9-1,13.1-3c4.1-2,7.6-5.3,10.4-9.7L398.3,351.3z"/>
		<path id="XMLID_195_" class="st2" d="M413.9,317.7c1.4-3.3,3.8-6,7.1-7.9c3.3-1.9,6.9-2.9,10.6-2.9c6.7,0,11.8,2.2,15.1,6.5
			c3.4,4.3,5,10,5,17v34.9h-7.7v-31.5c0-3-0.2-5.7-0.7-8.2c-0.5-2.4-1.2-4.5-2.3-6.3c-1.1-1.7-2.6-3.1-4.4-4.1c-1.9-1-4.2-1.5-7-1.5
			c-2,0-4,0.4-5.9,1.3c-1.9,0.9-3.6,2.3-5.1,4.1c-1.5,1.8-2.7,4.1-3.6,6.9c-0.9,2.8-1.4,6.1-1.4,9.9v29.2H406v-92h7.7v44.4H413.9z"
			/>
		<path id="XMLID_197_" class="st2" d="M475,286.4c0,1.7-0.6,3.1-1.7,4.2c-1.1,1.1-2.4,1.6-3.7,1.6s-2.6-0.5-3.7-1.6
			c-1.1-1.1-1.7-2.5-1.7-4.2c0-1.7,0.6-3.1,1.7-4.2c1.1-1.1,2.4-1.6,3.7-1.6s2.6,0.5,3.7,1.6S475,284.7,475,286.4z M473.4,365.3
			h-7.7v-57h7.7V365.3z"/>
		<path id="XMLID_200_" class="st2" d="M495.7,365.3H488v-92h7.7V365.3z"/>
		<path id="XMLID_202_" class="st2" d="M553.8,355.7c-2.3,3.7-5.2,6.4-8.8,8.3s-7.4,2.8-11.2,2.8c-4.2,0-7.9-0.8-11.3-2.3
			c-3.4-1.5-6.2-3.7-8.6-6.3c-2.4-2.7-4.2-5.8-5.5-9.5c-1.3-3.7-2-7.6-2-11.8c0-4.2,0.7-8.2,2-11.8c1.3-3.7,3.2-6.8,5.5-9.5
			c2.4-2.7,5.2-4.8,8.6-6.3c3.4-1.5,7.1-2.3,11.3-2.3c3.8,0,7.6,1,11.2,2.9c3.6,1.9,6.6,4.7,8.8,8.5h0.2v-44.9h7.7v92H554v-9.6
			H553.8z M514.5,336.8c0,3.2,0.5,6.1,1.4,8.9c0.9,2.8,2.2,5.2,3.9,7.3s3.8,3.7,6.3,4.9c2.5,1.2,5.3,1.8,8.5,1.8
			c2.9,0,5.7-0.6,8.1-1.8c2.5-1.2,4.6-2.8,6.5-4.8c1.8-2,3.2-4.4,4.2-7.2c1-2.8,1.5-5.8,1.5-9.1c0-3.2-0.5-6.3-1.5-9.1
			c-1-2.8-2.4-5.2-4.2-7.3c-1.8-2.1-4-3.7-6.5-4.9c-2.5-1.2-5.2-1.8-8.1-1.8c-3.2,0-6,0.6-8.5,1.8c-2.5,1.2-4.6,2.9-6.3,4.9
			s-3,4.5-3.9,7.3C515,330.7,514.5,333.6,514.5,336.8z"/>
		<path id="XMLID_205_" class="st2" d="M614.4,321.4c-1.3-2.2-3.2-4-5.6-5.4c-2.5-1.4-5.1-2.1-8-2.1c-3.1,0-5.9,0.6-8.4,1.8
			c-2.5,1.2-4.6,2.8-6.4,4.9c-1.8,2.1-3.1,4.5-4.1,7.3c-0.9,2.8-1.4,5.8-1.4,9.1c0,3.2,0.5,6.2,1.4,9c0.9,2.8,2.3,5.2,4,7.2
			c1.7,2.1,3.8,3.7,6.3,4.9c2.5,1.2,5.3,1.8,8.4,1.8c3.4,0,6.3-0.7,8.6-2.1c2.3-1.4,4.3-3.2,5.8-5.4l5.8,4.6c-2.3,3-5,5.4-8.3,7.2
			c-3.3,1.8-7.2,2.7-11.8,2.7c-4.3,0-8.2-0.8-11.7-2.3c-3.5-1.5-6.4-3.6-8.9-6.3c-2.5-2.7-4.4-5.8-5.7-9.5c-1.4-3.7-2-7.6-2-11.9
			c0-4.3,0.7-8.3,2-11.9s3.3-6.8,5.7-9.5c2.5-2.7,5.4-4.8,8.9-6.3c3.5-1.5,7.4-2.3,11.7-2.3c3.5,0,7.1,0.8,10.8,2.5
			c3.7,1.7,6.6,4.1,8.9,7.4L614.4,321.4z"/>
		<path id="XMLID_207_" class="st2" d="M660.1,328.4c0-4.9-1.2-8.6-3.6-11c-2.4-2.4-5.9-3.6-10.5-3.6c-3.2,0-6.1,0.6-8.8,1.8
			c-2.7,1.2-5,2.8-6.9,4.9l-4.3-5.5c2.2-2.4,5.1-4.3,8.7-5.8c3.6-1.5,7.6-2.3,12.2-2.3c2.9,0,5.5,0.4,8,1.3c2.5,0.9,4.7,2.1,6.6,3.8
			c1.9,1.7,3.4,3.9,4.4,6.5c1.1,2.6,1.6,5.6,1.6,9.1v25c0,2.2,0.1,4.5,0.2,6.8c0.2,2.4,0.4,4.3,0.7,6h-6.9c-0.2-1.4-0.4-2.9-0.6-4.5
			c-0.2-1.6-0.2-3.2-0.2-4.7h-0.2c-2.4,3.8-5.2,6.6-8.2,8.2s-6.7,2.5-11,2.5c-2,0-4.1-0.3-6.3-0.9c-2.2-0.6-4.1-1.6-5.9-3
			c-1.8-1.4-3.2-3.2-4.4-5.4c-1.2-2.2-1.8-4.9-1.8-8.1c0-4.4,1-7.9,3.1-10.4c2.1-2.6,4.8-4.5,8.3-5.7c3.5-1.3,7.5-2.1,11.9-2.4
			c4.5-0.4,9.1-0.5,14-0.5V328.4z M657.8,336.8c-3.2,0-6.4,0.1-9.6,0.4c-3.2,0.3-6.1,0.9-8.7,1.7c-2.6,0.9-4.7,2.1-6.4,3.7
			c-1.7,1.6-2.5,3.8-2.5,6.5c0,2,0.4,3.7,1.1,5.1c0.7,1.4,1.7,2.5,2.9,3.3c1.2,0.9,2.5,1.5,4,1.8c1.5,0.4,3,0.5,4.5,0.5
			c2.7,0,5.1-0.5,7.2-1.5c2.1-1,3.9-2.4,5.3-4.1c1.4-1.7,2.5-3.8,3.3-6c0.8-2.3,1.1-4.7,1.1-7.2v-4.3H657.8z"/>
		<path id="XMLID_210_" class="st2" d="M680.9,314.9c-0.1-2.4-0.2-4.6-0.3-6.6h7.4c0.2,1.5,0.3,3.2,0.3,5.1c0.1,1.9,0.1,3.4,0.1,4.6
			h0.2c1.5-3.3,3.8-6,6.8-8.1c3-2.1,6.4-3.1,10.2-3.1c1,0,1.9,0,2.7,0.1c0.8,0.1,1.6,0.2,2.4,0.5l-1,7.9c-0.5-0.2-1.2-0.3-2.3-0.5
			c-1.1-0.2-2.1-0.2-3.2-0.2c-2,0-4,0.4-5.9,1.2c-1.9,0.8-3.5,2.1-4.9,3.8c-1.4,1.7-2.5,4-3.4,6.7c-0.9,2.7-1.3,6-1.3,9.8v29.1H681
			v-44.4C681,319.3,681,317.3,680.9,314.9z"/>
		<path id="XMLID_212_" class="st2" d="M761.8,335.1c0,0.6,0,1.2,0,1.8c0,0.7,0,1.3-0.1,2.1h-43.9c0.1,2.8,0.6,5.5,1.6,8
			c1,2.5,2.3,4.7,4.1,6.6c1.7,1.9,3.8,3.3,6.1,4.4c2.3,1.1,4.9,1.6,7.6,1.6c4,0,7.5-1,10.4-3c2.9-2,5.1-4.3,6.6-6.9l5.8,4.9
			c-3.2,4.3-6.7,7.4-10.5,9.2c-3.8,1.9-7.9,2.8-12.3,2.8c-3.9,0-7.6-0.8-10.9-2.3c-3.4-1.5-6.2-3.6-8.7-6.3
			c-2.4-2.7-4.3-5.8-5.7-9.5c-1.4-3.7-2.1-7.6-2.1-11.9c0-4.3,0.7-8.3,2-11.9s3.2-6.8,5.7-9.5c2.4-2.7,5.2-4.8,8.5-6.3
			c3.2-1.5,6.8-2.3,10.5-2.3c4.1,0,7.8,0.8,11,2.3c3.2,1.5,5.8,3.5,7.9,6.1c2.1,2.6,3.7,5.5,4.8,8.9
			C761.3,327.6,761.8,331.2,761.8,335.1z M754,332.4c-0.2-5.4-1.8-9.8-4.8-13.3c-3-3.5-7.2-5.3-12.7-5.3c-2.6,0-4.9,0.5-7.1,1.5
			c-2.2,1-4.1,2.4-5.8,4.1c-1.7,1.7-3,3.7-4,6c-1,2.2-1.5,4.6-1.7,7H754z"/>
		<path id="XMLID_215_" class="st0" d="M803,357.5h37.4v7.8h-45.5v-86.2h8.1V357.5z"/>
		<path id="XMLID_217_" class="st0" d="M855.5,286.4c0,1.7-0.6,3.1-1.7,4.2c-1.1,1.1-2.4,1.6-3.7,1.6s-2.6-0.5-3.7-1.6
			c-1.1-1.1-1.7-2.5-1.7-4.2c0-1.7,0.6-3.1,1.7-4.2s2.4-1.6,3.7-1.6s2.6,0.5,3.7,1.6S855.5,284.7,855.5,286.4z M853.9,365.3h-7.7
			v-57h7.7V365.3z"/>
		<path id="XMLID_220_" class="st0" d="M882.8,310c3.1-2.1,6.6-3.1,10.5-3.1c1.4,0,2.9,0.2,4.5,0.5c1.5,0.3,3.1,1,4.5,1.9
			c1.5,0.9,2.8,2.2,4.1,3.7c1.2,1.5,2.3,3.5,3.2,6c1.8-3.9,4.3-6.9,7.4-8.9c3.1-2.1,6.8-3.1,11.1-3.1c6.7,0,11.8,2.2,15.1,6.5
			c3.4,4.3,5,10,5,17v34.9h-7.7v-31.5c0-6-1-10.8-3.1-14.5c-2.1-3.7-5.6-5.5-10.6-5.5c-2.8,0-5.2,0.6-7.1,1.8
			c-1.9,1.2-3.5,2.8-4.6,4.8c-1.2,2-2,4.2-2.5,6.8c-0.5,2.5-0.8,5.1-0.8,7.8v30.3h-7.7v-33.2c0-2.8-0.2-5.3-0.6-7.5
			c-0.4-2.3-1-4.2-2-5.8c-0.9-1.6-2.2-2.8-3.9-3.7c-1.7-0.9-3.8-1.3-6.3-1.3c-1.8,0-3.6,0.4-5.5,1.3c-1.9,0.9-3.5,2.3-5,4.1
			s-2.7,4.1-3.6,6.9c-0.9,2.8-1.4,6.1-1.4,9.9v29.2h-7.7v-44.4c0-1.5,0-3.5-0.1-6c-0.1-2.4-0.2-4.6-0.3-6.6h7.4
			c0.2,1.5,0.3,3.2,0.3,5.1c0.1,1.9,0.1,3.4,0.1,4.6h0.2C877.3,314.7,879.7,312,882.8,310z"/>
		<path id="XMLID_222_" class="st0" d="M971.5,286.4c0,1.7-0.6,3.1-1.7,4.2c-1.1,1.1-2.4,1.6-3.7,1.6s-2.6-0.5-3.7-1.6
			c-1.1-1.1-1.7-2.5-1.7-4.2c0-1.7,0.6-3.1,1.7-4.2s2.4-1.6,3.7-1.6s2.6,0.5,3.7,1.6S971.5,284.7,971.5,286.4z M969.9,365.3h-7.7
			v-57h7.7V365.3z"/>
		<path id="XMLID_225_" class="st0" d="M1008.1,315.3h-14.9v33.2c0,2.1,0.2,3.9,0.6,5.2c0.4,1.4,0.9,2.5,1.6,3.2
			c0.7,0.8,1.6,1.3,2.5,1.6c1,0.3,2,0.4,3.2,0.4c1.1,0,2.2-0.2,3.3-0.5c1.2-0.3,2.3-0.8,3.3-1.3l0.3,7.2c-1.4,0.6-2.8,1-4.2,1.3
			c-1.5,0.3-3.1,0.4-4.8,0.4c-1.4,0-2.9-0.2-4.5-0.6c-1.6-0.4-3.1-1.2-4.4-2.3c-1.4-1.1-2.5-2.7-3.3-4.6c-0.9-1.9-1.3-4.5-1.3-7.7
			v-35.5h-11v-6.9h11v-16.1h7.7v16.1h14.9V315.3z"/>
		<path id="XMLID_227_" class="st0" d="M1062.2,335.1c0,0.6,0,1.2,0,1.8c0,0.7,0,1.3-0.1,2.1h-43.9c0.1,2.8,0.6,5.5,1.6,8
			c1,2.5,2.3,4.7,4.1,6.6c1.7,1.9,3.8,3.3,6.1,4.4c2.3,1.1,4.9,1.6,7.6,1.6c4,0,7.5-1,10.4-3c2.9-2,5.1-4.3,6.6-6.9l5.8,4.9
			c-3.2,4.3-6.7,7.4-10.5,9.2c-3.8,1.9-7.9,2.8-12.3,2.8c-3.9,0-7.6-0.8-10.9-2.3c-3.4-1.5-6.2-3.6-8.7-6.3
			c-2.4-2.7-4.3-5.8-5.7-9.5c-1.4-3.7-2.1-7.6-2.1-11.9c0-4.3,0.7-8.3,2-11.9s3.2-6.8,5.7-9.5c2.4-2.7,5.2-4.8,8.5-6.3
			c3.2-1.5,6.8-2.3,10.5-2.3c4.1,0,7.8,0.8,11,2.3c3.2,1.5,5.8,3.5,7.9,6.1c2.1,2.6,3.7,5.5,4.8,8.9
			C1061.7,327.6,1062.2,331.2,1062.2,335.1z M1054.4,332.4c-0.2-5.4-1.8-9.8-4.8-13.3c-3-3.5-7.2-5.3-12.7-5.3
			c-2.6,0-4.9,0.5-7.1,1.5c-2.2,1-4.1,2.4-5.8,4.1c-1.7,1.7-3,3.7-4,6c-1,2.2-1.5,4.6-1.7,7H1054.4z"/>
		<path id="XMLID_230_" class="st0" d="M1116.2,355.7c-2.3,3.7-5.2,6.4-8.8,8.3s-7.4,2.8-11.2,2.8c-4.2,0-7.9-0.8-11.3-2.3
			c-3.4-1.5-6.2-3.7-8.6-6.3s-4.2-5.8-5.5-9.5c-1.3-3.7-2-7.6-2-11.8c0-4.2,0.7-8.2,2-11.8c1.3-3.7,3.2-6.8,5.5-9.5s5.2-4.8,8.6-6.3
			c3.4-1.5,7.1-2.3,11.3-2.3c3.8,0,7.6,1,11.2,2.9c3.6,1.9,6.6,4.7,8.8,8.5h0.2v-44.9h7.7v92h-7.7v-9.6H1116.2z M1077,336.8
			c0,3.2,0.5,6.1,1.4,8.9c0.9,2.8,2.2,5.2,3.9,7.3c1.7,2.1,3.8,3.7,6.3,4.9c2.5,1.2,5.3,1.8,8.5,1.8c2.9,0,5.7-0.6,8.1-1.8
			c2.5-1.2,4.6-2.8,6.5-4.8c1.8-2,3.2-4.4,4.2-7.2c1-2.8,1.5-5.8,1.5-9.1c0-3.2-0.5-6.3-1.5-9.1c-1-2.8-2.4-5.2-4.2-7.3
			c-1.8-2.1-4-3.7-6.5-4.9c-2.5-1.2-5.2-1.8-8.1-1.8c-3.2,0-6,0.6-8.5,1.8c-2.5,1.2-4.6,2.9-6.3,4.9c-1.7,2.1-3,4.5-3.9,7.3
			C1077.4,330.7,1077,333.6,1077,336.8z"/>
	</g>
	<rect id="XMLID_30_" x="73.7" class="st3" width="63" height="260.9"/>
	<rect id="XMLID_29_" x="228.1" class="st4" width="63" height="260.9"/>
	<polygon id="XMLID_28_" class="st5" points="842,260.9 770.5,260.9 604.7,0 676.6,0 	"/>
	<rect id="XMLID_27_" x="884.8" class="st6" width="61.5" height="260.9"/>
</g>
<path id="XMLID_132_" class="st0" d="M633.6,650v69.2h-21V650h-24.6v-18h70.3v18H633.6z"/>
<path id="XMLID_126_" class="st0" d="M719.1,719.1v-36.4h-34v36.4h-21V632h21v33h34v-33h21v87.1H719.1z"/>
<path id="XMLID_124_" class="st1" d="M754.5,719.1V632h21.2v87.1H754.5z"/>
<path id="XMLID_102_" class="st0" d="M845.3,719.1l-35.1-57h-0.4l0.5,57h-20.4V632h24l35,56.9h0.4l-0.5-56.9h20.4v87.1H845.3z"/>
<path id="XMLID_96_" class="st0" d="M936.6,719.1L904.2,679H904v40.1h-20.6V632H904v35.4h0.4l31.1-35.4h26.3l-37.5,40.1l39.8,47
	H936.6z"/>
<g id="XMLID_95_">
	<path id="XMLID_97_" class="st2" d="M614.3,749.3c-0.5,0.7-1,1.4-1.6,2.1s-1.4,1.2-2.2,1.7c-0.8,0.5-1.8,0.9-2.8,1.2
		s-2.1,0.4-3.3,0.4c-2,0-3.9-0.4-5.6-1.1c-1.7-0.8-3.2-1.8-4.4-3.2c-1.2-1.3-2.2-2.9-2.9-4.8c-0.7-1.8-1-3.9-1-6.1
		c0-2.2,0.4-4.2,1.1-6.1c0.7-1.8,1.7-3.4,2.9-4.8c1.2-1.3,2.7-2.4,4.4-3.2c1.7-0.8,3.5-1.1,5.5-1.1c1,0,1.9,0.1,2.9,0.3
		c0.9,0.2,1.8,0.5,2.7,0.9c0.8,0.4,1.6,0.9,2.3,1.4s1.2,1.2,1.7,1.9l-2.3,1.8c-0.3-0.5-0.6-0.9-1.1-1.4c-0.5-0.5-1-0.9-1.6-1.2
		c-0.6-0.4-1.3-0.6-2.1-0.9c-0.7-0.2-1.5-0.3-2.4-0.3c-1.7,0-3.3,0.3-4.7,1c-1.4,0.7-2.5,1.6-3.5,2.7c-1,1.1-1.7,2.5-2.2,4
		s-0.8,3.1-0.8,4.8c0,1.7,0.3,3.3,0.8,4.8c0.5,1.5,1.3,2.8,2.2,4c1,1.1,2.1,2.1,3.5,2.7c1.4,0.7,2.9,1,4.6,1c1.5,0,3-0.3,4.4-1
		s2.5-1.8,3.5-3.3L614.3,749.3z"/>
	<path id="XMLID_99_" class="st2" d="M619.5,738.1c0.5-1.1,1.3-2,2.4-2.6c1.1-0.7,2.3-1,3.6-1c2.2,0,3.9,0.7,5,2.2
		c1.1,1.4,1.7,3.3,1.7,5.7V754h-2.6v-10.5c0-1-0.1-1.9-0.2-2.7c-0.2-0.8-0.4-1.5-0.8-2.1c-0.4-0.6-0.9-1-1.5-1.4
		c-0.6-0.3-1.4-0.5-2.3-0.5c-0.7,0-1.3,0.1-2,0.4s-1.2,0.8-1.7,1.4s-0.9,1.4-1.2,2.3c-0.3,0.9-0.5,2-0.5,3.3v9.8h-2.6v-30.7h2.6
		L619.5,738.1L619.5,738.1z"/>
	<path id="XMLID_103_" class="st2" d="M639.9,727.6c0,0.6-0.2,1-0.6,1.4s-0.8,0.5-1.2,0.5c-0.5,0-0.9-0.2-1.2-0.5s-0.6-0.8-0.6-1.4
		s0.2-1,0.6-1.4c0.4-0.4,0.8-0.5,1.2-0.5c0.5,0,0.9,0.2,1.2,0.5C639.7,726.6,639.9,727.1,639.9,727.6z M639.4,754h-2.6v-19h2.6V754z
		"/>
	<path id="XMLID_116_" class="st2" d="M646.8,754h-2.6v-30.7h2.6V754z"/>
	<path id="XMLID_128_" class="st2" d="M666.2,750.8c-0.8,1.2-1.7,2.1-2.9,2.8c-1.2,0.6-2.5,0.9-3.7,0.9c-1.4,0-2.6-0.3-3.8-0.8
		c-1.1-0.5-2.1-1.2-2.9-2.1c-0.8-0.9-1.4-2-1.9-3.2c-0.4-1.2-0.7-2.5-0.7-3.9c0-1.4,0.2-2.7,0.7-3.9c0.4-1.2,1.1-2.3,1.9-3.2
		c0.8-0.9,1.8-1.6,2.9-2.1c1.1-0.5,2.4-0.8,3.8-0.8c1.3,0,2.5,0.3,3.7,1c1.2,0.6,2.2,1.6,2.9,2.8h0.1v-15h2.6V754h-2.6L666.2,750.8
		L666.2,750.8z M653.1,744.5c0,1.1,0.2,2.1,0.5,3c0.3,0.9,0.7,1.7,1.3,2.4c0.6,0.7,1.3,1.2,2.1,1.6c0.8,0.4,1.8,0.6,2.8,0.6
		c1,0,1.9-0.2,2.7-0.6c0.8-0.4,1.5-0.9,2.2-1.6s1.1-1.5,1.4-2.4c0.3-0.9,0.5-1.9,0.5-3c0-1.1-0.2-2.1-0.5-3
		c-0.3-0.9-0.8-1.7-1.4-2.4c-0.6-0.7-1.3-1.2-2.2-1.6c-0.8-0.4-1.7-0.6-2.7-0.6c-1.1,0-2,0.2-2.8,0.6c-0.8,0.4-1.5,1-2.1,1.6
		c-0.6,0.7-1,1.5-1.3,2.4S653.1,743.4,653.1,744.5z"/>
	<path id="XMLID_133_" class="st2" d="M686.5,739.3c-0.4-0.7-1.1-1.3-1.9-1.8c-0.8-0.5-1.7-0.7-2.7-0.7c-1,0-2,0.2-2.8,0.6
		c-0.8,0.4-1.5,0.9-2.1,1.6c-0.6,0.7-1,1.5-1.4,2.4c-0.3,0.9-0.5,1.9-0.5,3c0,1.1,0.2,2.1,0.5,3c0.3,0.9,0.8,1.7,1.3,2.4
		c0.6,0.7,1.3,1.2,2.1,1.6c0.8,0.4,1.8,0.6,2.8,0.6c1.1,0,2.1-0.2,2.9-0.7c0.8-0.5,1.4-1.1,1.9-1.8l1.9,1.5c-0.8,1-1.7,1.8-2.8,2.4
		c-1.1,0.6-2.4,0.9-4,0.9c-1.4,0-2.7-0.3-3.9-0.8s-2.1-1.2-3-2.1c-0.8-0.9-1.5-2-1.9-3.2c-0.5-1.2-0.7-2.5-0.7-4
		c0-1.4,0.2-2.8,0.7-4c0.5-1.2,1.1-2.3,1.9-3.2c0.8-0.9,1.8-1.6,3-2.1c1.2-0.5,2.5-0.8,3.9-0.8c1.2,0,2.4,0.3,3.6,0.8s2.2,1.4,3,2.5
		L686.5,739.3z"/>
	<path id="XMLID_143_" class="st2" d="M701.7,741.7c0-1.6-0.4-2.9-1.2-3.7c-0.8-0.8-2-1.2-3.5-1.2c-1.1,0-2,0.2-2.9,0.6
		s-1.7,0.9-2.3,1.6l-1.4-1.8c0.7-0.8,1.7-1.4,2.9-2c1.2-0.5,2.6-0.8,4.1-0.8c1,0,1.9,0.1,2.7,0.4c0.8,0.3,1.6,0.7,2.2,1.3
		c0.6,0.6,1.1,1.3,1.5,2.2c0.4,0.9,0.5,1.9,0.5,3v8.3c0,0.7,0,1.5,0.1,2.3c0,0.8,0.1,1.5,0.2,2h-2.3c-0.1-0.5-0.1-1-0.2-1.5
		c-0.1-0.5-0.1-1.1-0.1-1.6h-0.1c-0.8,1.3-1.7,2.2-2.7,2.7s-2.2,0.8-3.7,0.8c-0.7,0-1.4-0.1-2.1-0.3c-0.7-0.2-1.4-0.5-2-1
		c-0.6-0.5-1.1-1.1-1.5-1.8c-0.4-0.7-0.6-1.6-0.6-2.7c0-1.5,0.3-2.6,1-3.5s1.6-1.5,2.8-1.9c1.2-0.4,2.5-0.7,4-0.8
		c1.5-0.1,3.1-0.2,4.7-0.2V741.7z M701,744.5c-1.1,0-2.1,0-3.2,0.1c-1.1,0.1-2,0.3-2.9,0.6c-0.9,0.3-1.6,0.7-2.1,1.2
		c-0.6,0.5-0.8,1.3-0.8,2.2c0,0.7,0.1,1.2,0.4,1.7c0.2,0.5,0.6,0.8,1,1.1c0.4,0.3,0.9,0.5,1.3,0.6s1,0.2,1.5,0.2
		c0.9,0,1.7-0.2,2.4-0.5c0.7-0.3,1.3-0.8,1.8-1.4c0.5-0.6,0.8-1.3,1.1-2s0.4-1.6,0.4-2.4v-1.4H701z"/>
	<path id="XMLID_155_" class="st2" d="M708.7,737.2c0-0.8-0.1-1.5-0.1-2.2h2.5c0.1,0.5,0.1,1.1,0.1,1.7c0,0.6,0,1.1,0,1.5h0.1
		c0.5-1.1,1.3-2,2.3-2.7c1-0.7,2.1-1,3.4-1c0.3,0,0.6,0,0.9,0c0.3,0,0.5,0.1,0.8,0.2l-0.3,2.6c-0.2-0.1-0.4-0.1-0.8-0.2
		c-0.4-0.1-0.7-0.1-1.1-0.1c-0.7,0-1.3,0.1-2,0.4s-1.2,0.7-1.6,1.3c-0.5,0.6-0.8,1.3-1.1,2.2s-0.4,2-0.4,3.3v9.7h-2.6v-14.8
		C708.7,738.6,708.7,738,708.7,737.2z"/>
	<path id="XMLID_157_" class="st2" d="M735.7,743.9c0,0.2,0,0.4,0,0.6s0,0.4,0,0.7H721c0,0.9,0.2,1.8,0.5,2.7
		c0.3,0.8,0.8,1.6,1.4,2.2c0.6,0.6,1.3,1.1,2,1.5c0.8,0.4,1.6,0.5,2.5,0.5c1.3,0,2.5-0.3,3.5-1c1-0.7,1.7-1.4,2.2-2.3l1.9,1.6
		c-1.1,1.4-2.2,2.5-3.5,3.1s-2.6,0.9-4.1,0.9c-1.3,0-2.5-0.3-3.6-0.8c-1.1-0.5-2.1-1.2-2.9-2.1c-0.8-0.9-1.4-2-1.9-3.2
		c-0.5-1.2-0.7-2.5-0.7-4c0-1.4,0.2-2.8,0.7-4c0.5-1.2,1.1-2.3,1.9-3.2s1.8-1.6,2.8-2.1c1.1-0.5,2.3-0.8,3.5-0.8
		c1.4,0,2.6,0.3,3.7,0.8c1.1,0.5,1.9,1.2,2.6,2c0.7,0.9,1.2,1.8,1.6,3C735.5,741.4,735.7,742.6,735.7,743.9z M733.1,743
		c-0.1-1.8-0.6-3.3-1.6-4.5c-1-1.2-2.4-1.8-4.3-1.8c-0.9,0-1.7,0.2-2.4,0.5c-0.7,0.3-1.4,0.8-1.9,1.4c-0.6,0.6-1,1.2-1.3,2
		c-0.3,0.7-0.5,1.5-0.6,2.3H733.1z"/>
	<path id="XMLID_160_" class="st0" d="M755.8,747.3l6,6.7H758l-3.8-4.3c-1.1,1.6-2.3,2.8-3.6,3.6c-1.3,0.8-2.8,1.2-4.6,1.2
		c-1.1,0-2.2-0.2-3.2-0.5s-1.9-0.9-2.7-1.5c-0.8-0.7-1.4-1.5-1.8-2.5c-0.4-1-0.7-2.1-0.7-3.4c0-1.1,0.2-2.1,0.5-2.9
		c0.3-0.9,0.7-1.6,1.3-2.3c0.6-0.7,1.2-1.3,2-1.8s1.6-1,2.5-1.4c-0.4-0.4-0.8-0.9-1.2-1.4c-0.4-0.5-0.7-1-1-1.6
		c-0.3-0.6-0.5-1.1-0.7-1.8c-0.2-0.6-0.3-1.3-0.3-1.9c0-1.1,0.2-2,0.5-2.9c0.4-0.8,0.8-1.6,1.4-2.1c0.6-0.6,1.3-1,2.1-1.3
		c0.8-0.3,1.7-0.4,2.6-0.4c0.9,0,1.7,0.1,2.5,0.4c0.8,0.3,1.5,0.7,2.1,1.3c0.6,0.6,1.1,1.2,1.4,2c0.3,0.8,0.5,1.7,0.5,2.7
		c0,0.9-0.2,1.8-0.5,2.6c-0.3,0.8-0.8,1.4-1.4,2.1c-0.6,0.6-1.2,1.2-1.9,1.6c-0.7,0.5-1.5,0.9-2.2,1.3l6.2,6.9l3.7-7h3.1
		L755.8,747.3z M745.3,739.8c-1.6,0.8-2.8,1.7-3.7,2.8c-0.8,1.1-1.2,2.4-1.2,3.9c0,0.8,0.1,1.6,0.4,2.2c0.3,0.7,0.7,1.3,1.2,1.7
		c0.5,0.5,1.1,0.8,1.8,1.1c0.7,0.3,1.4,0.4,2.2,0.4c1.5,0,2.7-0.4,3.6-1.1c1-0.7,1.9-1.8,2.7-3.2L745.3,739.8z M751.1,730.9
		c0-1.2-0.4-2.2-1.1-2.9c-0.7-0.8-1.6-1.1-2.7-1.1c-1.2,0-2.2,0.4-2.9,1.2c-0.8,0.8-1.1,1.9-1.1,3.2c0,0.5,0.1,1.1,0.3,1.6
		c0.2,0.6,0.5,1.1,0.8,1.6c0.3,0.5,0.6,0.9,1,1.3c0.3,0.4,0.6,0.7,0.9,0.9c0.6-0.3,1.2-0.6,1.8-1c0.6-0.4,1.1-0.8,1.6-1.2
		c0.5-0.5,0.8-1,1.1-1.6C750.9,732.3,751.1,731.7,751.1,730.9z"/>
	<path id="XMLID_164_" class="st2" d="M766.6,751.4H781v2.6h-17v-28.8h16.6v2.6h-13.9v9.9h13v2.6h-13V751.4z"/>
	<path id="XMLID_166_" class="st2" d="M798.6,750.8c-0.8,1.2-1.7,2.1-2.9,2.8c-1.2,0.6-2.5,0.9-3.7,0.9c-1.4,0-2.6-0.3-3.8-0.8
		c-1.1-0.5-2.1-1.2-2.9-2.1c-0.8-0.9-1.4-2-1.9-3.2c-0.4-1.2-0.7-2.5-0.7-3.9c0-1.4,0.2-2.7,0.7-3.9c0.4-1.2,1.1-2.3,1.9-3.2
		c0.8-0.9,1.8-1.6,2.9-2.1c1.1-0.5,2.4-0.8,3.8-0.8c1.3,0,2.5,0.3,3.7,1c1.2,0.6,2.2,1.6,2.9,2.8h0.1v-15h2.6V754h-2.6L798.6,750.8
		L798.6,750.8z M785.5,744.5c0,1.1,0.2,2.1,0.5,3c0.3,0.9,0.7,1.7,1.3,2.4c0.6,0.7,1.3,1.2,2.1,1.6c0.8,0.4,1.8,0.6,2.8,0.6
		c1,0,1.9-0.2,2.7-0.6c0.8-0.4,1.5-0.9,2.2-1.6s1.1-1.5,1.4-2.4c0.3-0.9,0.5-1.9,0.5-3c0-1.1-0.2-2.1-0.5-3
		c-0.3-0.9-0.8-1.7-1.4-2.4c-0.6-0.7-1.3-1.2-2.2-1.6c-0.8-0.4-1.7-0.6-2.7-0.6c-1.1,0-2,0.2-2.8,0.6c-0.8,0.4-1.5,1-2.1,1.6
		c-0.6,0.7-1,1.5-1.3,2.4S785.5,743.4,785.5,744.5z"/>
	<path id="XMLID_169_" class="st2" d="M819,754c-0.1-0.5-0.1-1.1-0.1-1.7c0-0.6,0-1.1,0-1.5h-0.1c-0.5,1.1-1.3,2-2.5,2.7
		c-1.1,0.7-2.3,1-3.6,1c-2.2,0-3.9-0.7-5-2.2c-1.1-1.4-1.7-3.3-1.7-5.7V735h2.6v10.5c0,1,0.1,1.9,0.2,2.7c0.2,0.8,0.4,1.5,0.8,2.1
		c0.4,0.6,0.9,1,1.5,1.4c0.6,0.3,1.4,0.5,2.3,0.5c0.7,0,1.3-0.1,2-0.4c0.6-0.3,1.2-0.8,1.7-1.4c0.5-0.6,0.9-1.4,1.2-2.3
		c0.3-0.9,0.5-2,0.5-3.3V735h2.6v14.8c0,0.5,0,1.2,0,2c0,0.8,0.1,1.5,0.1,2.2H819z"/>
	<path id="XMLID_171_" class="st2" d="M838.8,739.3c-0.4-0.7-1.1-1.3-1.9-1.8c-0.8-0.5-1.7-0.7-2.7-0.7c-1,0-2,0.2-2.8,0.6
		c-0.8,0.4-1.5,0.9-2.1,1.6c-0.6,0.7-1,1.5-1.4,2.4c-0.3,0.9-0.5,1.9-0.5,3c0,1.1,0.2,2.1,0.5,3c0.3,0.9,0.8,1.7,1.3,2.4
		c0.6,0.7,1.3,1.2,2.1,1.6c0.8,0.4,1.8,0.6,2.8,0.6c1.1,0,2.1-0.2,2.9-0.7c0.8-0.5,1.4-1.1,1.9-1.8l1.9,1.5c-0.8,1-1.7,1.8-2.8,2.4
		c-1.1,0.6-2.4,0.9-4,0.9c-1.4,0-2.7-0.3-3.9-0.8s-2.1-1.2-3-2.1c-0.8-0.9-1.5-2-1.9-3.2c-0.5-1.2-0.7-2.5-0.7-4
		c0-1.4,0.2-2.8,0.7-4c0.5-1.2,1.1-2.3,1.9-3.2c0.8-0.9,1.8-1.6,3-2.1c1.2-0.5,2.5-0.8,3.9-0.8c1.2,0,2.4,0.3,3.6,0.8s2.2,1.4,3,2.5
		L838.8,739.3z"/>
	<path id="XMLID_173_" class="st2" d="M854.1,741.7c0-1.6-0.4-2.9-1.2-3.7c-0.8-0.8-2-1.2-3.5-1.2c-1.1,0-2,0.2-2.9,0.6
		s-1.7,0.9-2.3,1.6l-1.4-1.8c0.7-0.8,1.7-1.4,2.9-2c1.2-0.5,2.6-0.8,4.1-0.8c1,0,1.9,0.1,2.7,0.4c0.8,0.3,1.6,0.7,2.2,1.3
		c0.6,0.6,1.1,1.3,1.5,2.2c0.4,0.9,0.5,1.9,0.5,3v8.3c0,0.7,0,1.5,0.1,2.3c0,0.8,0.1,1.5,0.2,2h-2.3c-0.1-0.5-0.1-1-0.2-1.5
		c-0.1-0.5-0.1-1.1-0.1-1.6h-0.1c-0.8,1.3-1.7,2.2-2.7,2.7s-2.2,0.8-3.7,0.8c-0.7,0-1.4-0.1-2.1-0.3c-0.7-0.2-1.4-0.5-2-1
		c-0.6-0.5-1.1-1.1-1.5-1.8c-0.4-0.7-0.6-1.6-0.6-2.7c0-1.5,0.3-2.6,1-3.5s1.6-1.5,2.8-1.9c1.2-0.4,2.5-0.7,4-0.8
		c1.5-0.1,3.1-0.2,4.7-0.2V741.7z M853.3,744.5c-1.1,0-2.1,0-3.2,0.1c-1.1,0.1-2,0.3-2.9,0.6c-0.9,0.3-1.6,0.7-2.1,1.2
		c-0.6,0.5-0.8,1.3-0.8,2.2c0,0.7,0.1,1.2,0.4,1.7c0.2,0.5,0.6,0.8,1,1.1c0.4,0.3,0.9,0.5,1.3,0.6s1,0.2,1.5,0.2
		c0.9,0,1.7-0.2,2.4-0.5c0.7-0.3,1.3-0.8,1.8-1.4c0.5-0.6,0.8-1.3,1.1-2s0.4-1.6,0.4-2.4v-1.4H853.3z"/>
	<path id="XMLID_176_" class="st2" d="M868.6,737.3h-5v11.1c0,0.7,0.1,1.3,0.2,1.7c0.1,0.5,0.3,0.8,0.5,1.1s0.5,0.4,0.9,0.5
		c0.3,0.1,0.7,0.1,1.1,0.1c0.4,0,0.7-0.1,1.1-0.2c0.4-0.1,0.8-0.3,1.1-0.4l0.1,2.4c-0.5,0.2-0.9,0.3-1.4,0.4c-0.5,0.1-1,0.1-1.6,0.1
		c-0.5,0-1-0.1-1.5-0.2c-0.5-0.1-1-0.4-1.5-0.8c-0.5-0.4-0.8-0.9-1.1-1.5s-0.4-1.5-0.4-2.6v-11.9h-3.7V735h3.7v-5.4h2.6v5.4h5V737.3
		z"/>
	<path id="XMLID_178_" class="st2" d="M873.8,727.6c0,0.6-0.2,1-0.6,1.4s-0.8,0.5-1.2,0.5c-0.5,0-0.9-0.2-1.2-0.5s-0.6-0.8-0.6-1.4
		s0.2-1,0.6-1.4c0.4-0.4,0.8-0.5,1.2-0.5c0.5,0,0.9,0.2,1.2,0.5C873.6,726.6,873.8,727.1,873.8,727.6z M873.2,754h-2.6v-19h2.6V754z
		"/>
	<path id="XMLID_181_" class="st2" d="M895.6,744.5c0,1.4-0.2,2.8-0.7,4c-0.5,1.2-1.1,2.3-1.9,3.2c-0.8,0.9-1.8,1.6-3,2.1
		c-1.2,0.5-2.4,0.8-3.8,0.8c-1.4,0-2.6-0.3-3.8-0.8s-2.2-1.2-3-2.1c-0.8-0.9-1.5-2-1.9-3.2c-0.5-1.2-0.7-2.5-0.7-4
		c0-1.4,0.2-2.8,0.7-4c0.5-1.2,1.1-2.3,1.9-3.2c0.8-0.9,1.8-1.6,3-2.1c1.2-0.5,2.4-0.8,3.8-0.8c1.4,0,2.7,0.3,3.8,0.8
		c1.2,0.5,2.2,1.2,3,2.1c0.8,0.9,1.5,2,1.9,3.2C895.4,741.7,895.6,743,895.6,744.5z M892.9,744.5c0-1.1-0.2-2.1-0.5-3
		s-0.8-1.7-1.3-2.4c-0.6-0.7-1.3-1.2-2.1-1.6c-0.8-0.4-1.8-0.6-2.8-0.6s-2,0.2-2.8,0.6c-0.8,0.4-1.5,1-2.1,1.6
		c-0.6,0.7-1,1.5-1.3,2.4c-0.3,0.9-0.5,1.9-0.5,3c0,1.1,0.2,2.1,0.5,3c0.3,0.9,0.8,1.7,1.3,2.4c0.6,0.7,1.3,1.2,2.1,1.6
		c0.8,0.4,1.7,0.6,2.8,0.6s2-0.2,2.8-0.6c0.8-0.4,1.5-0.9,2.1-1.6c0.6-0.7,1-1.5,1.3-2.4C892.7,746.5,892.9,745.5,892.9,744.5z"/>
	<path id="XMLID_184_" class="st2" d="M901.4,735c0,0.5,0.1,1.1,0.1,1.7c0,0.6,0,1.1,0,1.5h0.1c0.5-1.1,1.3-2,2.5-2.7
		c1.1-0.7,2.3-1,3.6-1c2.2,0,3.9,0.7,5,2.2c1.1,1.4,1.7,3.3,1.7,5.7V754h-2.6v-10.5c0-1-0.1-1.9-0.2-2.7c-0.2-0.8-0.4-1.5-0.8-2.1
		s-0.9-1-1.5-1.4c-0.6-0.3-1.4-0.5-2.3-0.5c-0.7,0-1.3,0.1-2,0.4s-1.2,0.8-1.7,1.4c-0.5,0.6-0.9,1.4-1.2,2.3c-0.3,0.9-0.5,2-0.5,3.3
		v9.8h-2.6v-14.8c0-0.5,0-1.2,0-2c0-0.8-0.1-1.5-0.1-2.2H901.4z"/>
	<path id="XMLID_186_" class="st0" d="M921.9,751.4h12.5v2.6h-15.2v-28.8h2.7V751.4z"/>
	<path id="XMLID_188_" class="st0" d="M944.2,737.3h-5v11.1c0,0.7,0.1,1.3,0.2,1.7s0.3,0.8,0.5,1.1c0.2,0.3,0.5,0.4,0.9,0.5
		c0.3,0.1,0.7,0.1,1.1,0.1c0.4,0,0.7-0.1,1.1-0.2s0.8-0.3,1.1-0.4l0.1,2.4c-0.5,0.2-0.9,0.3-1.4,0.4c-0.5,0.1-1,0.1-1.6,0.1
		c-0.5,0-1-0.1-1.5-0.2c-0.5-0.1-1-0.4-1.5-0.8c-0.5-0.4-0.8-0.9-1.1-1.5c-0.3-0.7-0.4-1.5-0.4-2.6v-11.9H933V735h3.7v-5.4h2.6v5.4
		h5V737.3z"/>
	<path id="XMLID_190_" class="st0" d="M960.7,750.8c-0.8,1.2-1.7,2.1-2.9,2.8c-1.2,0.6-2.5,0.9-3.7,0.9c-1.4,0-2.6-0.3-3.8-0.8
		c-1.1-0.5-2.1-1.2-2.9-2.1c-0.8-0.9-1.4-2-1.9-3.2c-0.4-1.2-0.7-2.5-0.7-3.9c0-1.4,0.2-2.7,0.7-3.9c0.4-1.2,1.1-2.3,1.9-3.2
		c0.8-0.9,1.8-1.6,2.9-2.1c1.1-0.5,2.4-0.8,3.8-0.8c1.3,0,2.5,0.3,3.7,1c1.2,0.6,2.2,1.6,2.9,2.8h0.1v-15h2.6V754h-2.6L960.7,750.8
		L960.7,750.8z M947.6,744.5c0,1.1,0.2,2.1,0.5,3c0.3,0.9,0.7,1.7,1.3,2.4c0.6,0.7,1.3,1.2,2.1,1.6c0.8,0.4,1.8,0.6,2.8,0.6
		c1,0,1.9-0.2,2.7-0.6c0.8-0.4,1.5-0.9,2.2-1.6s1.1-1.5,1.4-2.4c0.3-0.9,0.5-1.9,0.5-3c0-1.1-0.2-2.1-0.5-3
		c-0.3-0.9-0.8-1.7-1.4-2.4c-0.6-0.7-1.3-1.2-2.2-1.6c-0.8-0.4-1.7-0.6-2.7-0.6c-1.1,0-2,0.2-2.8,0.6c-0.8,0.4-1.5,1-2.1,1.6
		c-0.6,0.7-1,1.5-1.3,2.4S947.6,743.4,947.6,744.5z"/>
</g>
<rect id="XMLID_94_" x="612.6" y="632" class="st3" width="21" height="87.1"/>
<rect id="XMLID_93_" x="664.1" y="632" class="st4" width="21" height="87.1"/>
<polygon id="XMLID_92_" class="st5" points="869.2,719.1 845.3,719.1 789.9,632 813.9,632 "/>
<rect id="XMLID_91_" x="883.4" y="632" class="st6" width="20.6" height="87.1"/>
<g id="XMLID_90_">
</g>
<g id="XMLID_233_">
</g>
<g id="XMLID_234_">
</g>
<g id="XMLID_235_">
</g>
<g id="XMLID_236_">
</g>
<g id="XMLID_237_">
</g>
</svg>
