<?xml version="1.0" encoding="utf-8"?>
<!-- Generator: Adobe Illustrator 18.1.1, SVG Export Plug-In . SVG Version: 6.00 Build 0)  -->
<!DOCTYPE svg PUBLIC "-//W3C//DTD SVG 1.1//EN" "http://www.w3.org/Graphics/SVG/1.1/DTD/svg11.dtd">
<svg version="1.1" id="Layer_1" xmlns="http://www.w3.org/2000/svg" xmlns:xlink="http://www.w3.org/1999/xlink" x="0px" y="0px"
	 viewBox="5.9 294.1 597.1 194.8" enable-background="new 5.9 294.1 597.1 194.8" xml:space="preserve">
<path fill="#414042" d="M78.4,322.6v109.8H45V322.6H5.9v-28.5h111.6v28.5H78.4L78.4,322.6z"/>
<path fill="#414042" d="M214.2,432.4v-57.8h-53.9v57.8h-33.4V294.1h33.4v52.4h53.9v-52.4h33.4v138.3H214.2z"/>
<path fill="#D52B27" d="M270.3,432.4V294.1h33.6v138.3H270.3z"/>
<path fill="#414042" d="M414.4,432.4L358.8,342h-0.6l0.8,90.5h-32.4V294.1h38.1l55.5,90.3h0.6l-0.8-90.3h32.4v138.3L414.4,432.4
	L414.4,432.4z"/>
<path fill="#414042" d="M559.4,432.4L508,368.7h-0.4v63.7H475V294.1h32.6v56.3h0.6l49.4-56.3h41.8l-59.6,63.7l63.1,74.6L559.4,432.4
	L559.4,432.4z"/>
<g>
	<path fill="#414042" d="M47.7,480.3c-0.7,1.2-1.6,2.3-2.6,3.3c-1,1-2.2,1.9-3.5,2.7c-1.3,0.8-2.8,1.4-4.4,1.9
		c-1.6,0.5-3.4,0.7-5.3,0.7c-3.2,0-6.2-0.6-8.9-1.8c-2.7-1.2-5.1-2.9-7-5c-2-2.1-3.5-4.7-4.6-7.6c-1.1-2.9-1.7-6.1-1.7-9.6
		c0-3.5,0.6-6.7,1.7-9.6c1.1-2.9,2.7-5.5,4.7-7.6c2-2.1,4.3-3.8,7-5c2.7-1.2,5.6-1.8,8.8-1.8c1.6,0,3.1,0.2,4.6,0.5
		c1.5,0.3,2.9,0.8,4.2,1.5c1.3,0.6,2.5,1.4,3.6,2.3c1.1,0.9,2,1.9,2.7,3l-3.6,2.8c-0.4-0.7-1-1.5-1.8-2.2c-0.7-0.7-1.6-1.4-2.6-1.9
		c-1-0.6-2.1-1-3.3-1.4c-1.2-0.3-2.5-0.5-3.8-0.5c-2.8,0-5.2,0.5-7.4,1.6c-2.2,1.1-4,2.5-5.6,4.3c-1.5,1.8-2.7,3.9-3.5,6.3
		c-0.8,2.4-1.2,4.9-1.2,7.6c0,2.7,0.4,5.2,1.2,7.6c0.8,2.4,2,4.5,3.5,6.3c1.5,1.8,3.4,3.3,5.6,4.3c2.2,1.1,4.6,1.6,7.4,1.6
		c2.4,0,4.8-0.5,7-1.6c2.2-1.1,4-2.8,5.5-5.2L47.7,480.3z"/>
	<path fill="#414042" d="M56,462.5c0.8-1.8,2-3.2,3.8-4.2c1.8-1,3.6-1.5,5.6-1.5c3.6,0,6.2,1.1,8,3.4c1.8,2.3,2.7,5.3,2.7,9v18.5H72
		V471c0-1.6-0.1-3-0.4-4.3c-0.2-1.3-0.7-2.4-1.2-3.3c-0.6-0.9-1.4-1.6-2.3-2.2c-1-0.5-2.2-0.8-3.7-0.8c-1.1,0-2.1,0.2-3.2,0.7
		c-1,0.5-1.9,1.2-2.7,2.2c-0.8,1-1.4,2.2-1.9,3.7c-0.5,1.5-0.7,3.2-0.7,5.3v15.5h-4.1V439h4.1v23.6L56,462.5L56,462.5z"/>
	<path fill="#414042" d="M88.4,445.9c0,0.9-0.3,1.6-0.9,2.2c-0.6,0.6-1.3,0.9-2,0.9c-0.7,0-1.4-0.3-2-0.9c-0.6-0.6-0.9-1.3-0.9-2.2
		c0-0.9,0.3-1.6,0.9-2.2c0.6-0.6,1.3-0.9,2-0.9c0.7,0,1.4,0.3,2,0.9S88.4,445,88.4,445.9z M87.6,487.8h-4.1v-30.2h4.1V487.8z"/>
	<path fill="#414042" d="M99.4,487.8h-4.1V439h4.1V487.8z"/>
	<path fill="#414042" d="M130.2,482.7c-1.2,1.9-2.8,3.4-4.7,4.4c-1.9,1-3.9,1.5-5.9,1.5c-2.2,0-4.2-0.4-6-1.2
		c-1.8-0.8-3.3-1.9-4.6-3.4c-1.3-1.4-2.2-3.1-2.9-5c-0.7-1.9-1.1-4-1.1-6.3c0-2.2,0.3-4.3,1.1-6.3c0.7-1.9,1.7-3.6,2.9-5
		c1.3-1.4,2.8-2.5,4.6-3.4c1.8-0.8,3.8-1.2,6-1.2c2,0,4,0.5,5.9,1.5c1.9,1,3.5,2.5,4.7,4.5h0.1V439h4.1v48.8h-4.1v-5.1L130.2,482.7
		L130.2,482.7z M109.4,472.7c0,1.7,0.2,3.3,0.7,4.7c0.5,1.5,1.2,2.8,2.1,3.9c0.9,1.1,2,2,3.3,2.6c1.3,0.6,2.8,0.9,4.5,0.9
		c1.6,0,3-0.3,4.3-0.9c1.3-0.6,2.5-1.5,3.4-2.5c1-1.1,1.7-2.4,2.3-3.8c0.5-1.5,0.8-3.1,0.8-4.8c0-1.7-0.3-3.3-0.8-4.8
		c-0.5-1.5-1.3-2.8-2.3-3.9c-1-1.1-2.1-2-3.4-2.6c-1.3-0.6-2.8-0.9-4.3-0.9c-1.7,0-3.2,0.3-4.5,1c-1.3,0.6-2.4,1.5-3.3,2.6
		c-0.9,1.1-1.6,2.4-2.1,3.9C109.6,469.4,109.4,471,109.4,472.7z"/>
	<path fill="#414042" d="M162.3,464.5c-0.7-1.2-1.7-2.1-3-2.9c-1.3-0.8-2.7-1.1-4.2-1.1c-1.6,0-3.1,0.3-4.4,0.9
		c-1.3,0.6-2.5,1.5-3.4,2.6c-0.9,1.1-1.7,2.4-2.2,3.9c-0.5,1.5-0.8,3.1-0.8,4.8c0,1.7,0.2,3.3,0.8,4.8c0.5,1.5,1.2,2.7,2.1,3.8
		c0.9,1.1,2,2,3.4,2.6c1.3,0.6,2.8,0.9,4.4,0.9c1.8,0,3.3-0.4,4.6-1.1c1.2-0.7,2.3-1.7,3.1-2.8l3.1,2.5c-1.2,1.6-2.7,2.9-4.4,3.8
		c-1.7,0.9-3.8,1.4-6.3,1.4c-2.3,0-4.3-0.4-6.2-1.2c-1.8-0.8-3.4-1.9-4.7-3.3c-1.3-1.4-2.3-3.1-3-5c-0.7-1.9-1.1-4-1.1-6.3
		c0-2.3,0.4-4.4,1.1-6.3c0.7-1.9,1.7-3.6,3-5c1.3-1.4,2.9-2.5,4.7-3.3c1.8-0.8,3.9-1.2,6.2-1.2c1.9,0,3.8,0.4,5.7,1.3
		c1.9,0.9,3.5,2.2,4.7,3.9L162.3,464.5z"/>
	<path fill="#414042" d="M186.5,468.2c0-2.6-0.6-4.5-1.9-5.8c-1.3-1.3-3.1-1.9-5.6-1.9c-1.7,0-3.2,0.3-4.7,1
		c-1.4,0.6-2.7,1.5-3.7,2.6l-2.3-2.9c1.2-1.2,2.7-2.3,4.6-3.1c1.9-0.8,4.1-1.2,6.5-1.2c1.5,0,2.9,0.2,4.3,0.7c1.3,0.5,2.5,1.1,3.5,2
		c1,0.9,1.8,2,2.3,3.4c0.6,1.4,0.8,3,0.8,4.8V481c0,1.2,0,2.4,0.1,3.6c0.1,1.2,0.2,2.3,0.4,3.2h-3.7c-0.1-0.7-0.2-1.5-0.3-2.4
		c-0.1-0.9-0.1-1.7-0.1-2.5h-0.1c-1.3,2-2.7,3.5-4.4,4.4s-3.6,1.3-5.9,1.3c-1.1,0-2.2-0.2-3.3-0.5c-1.1-0.3-2.2-0.9-3.1-1.6
		c-0.9-0.7-1.7-1.7-2.3-2.8c-0.6-1.2-0.9-2.6-0.9-4.3c0-2.3,0.5-4.2,1.7-5.5c1.1-1.4,2.6-2.4,4.4-3c1.8-0.7,4-1.1,6.3-1.3
		c2.4-0.2,4.9-0.3,7.4-0.3L186.5,468.2L186.5,468.2z M185.3,472.7c-1.7,0-3.4,0.1-5.1,0.2c-1.7,0.2-3.2,0.5-4.6,0.9
		c-1.4,0.5-2.5,1.1-3.4,2c-0.9,0.9-1.3,2-1.3,3.4c0,1.1,0.2,2,0.6,2.7c0.4,0.7,0.9,1.3,1.5,1.8c0.6,0.5,1.4,0.8,2.1,1
		c0.8,0.2,1.6,0.3,2.4,0.3c1.4,0,2.7-0.3,3.8-0.8c1.1-0.5,2.1-1.3,2.8-2.2c0.8-0.9,1.3-2,1.7-3.2c0.4-1.2,0.6-2.5,0.6-3.8v-2.3
		L185.3,472.7L185.3,472.7z"/>
	<path fill="#414042" d="M197.6,461c0-1.3-0.1-2.5-0.2-3.5h3.9c0.1,0.8,0.1,1.7,0.2,2.7c0,1,0.1,1.8,0.1,2.5h0.1
		c0.8-1.8,2-3.2,3.6-4.3c1.6-1.1,3.4-1.6,5.4-1.6c0.5,0,1,0,1.4,0.1c0.4,0,0.8,0.1,1.3,0.3l-0.5,4.2c-0.2-0.1-0.6-0.2-1.2-0.3
		c-0.6-0.1-1.1-0.1-1.7-0.1c-1.1,0-2.1,0.2-3.1,0.6c-1,0.4-1.9,1.1-2.6,2c-0.7,0.9-1.3,2.1-1.8,3.5c-0.5,1.4-0.7,3.2-0.7,5.2v15.4
		h-4.1v-23.6C197.6,463.4,197.6,462.3,197.6,461z"/>
	<path fill="#414042" d="M240.5,471.8c0,0.3,0,0.6,0,1c0,0.3,0,0.7-0.1,1.1h-23.3c0,1.5,0.3,2.9,0.8,4.3c0.5,1.3,1.2,2.5,2.2,3.5
		c0.9,1,2,1.8,3.2,2.4c1.2,0.6,2.6,0.9,4,0.9c2.1,0,4-0.5,5.5-1.6c1.5-1.1,2.7-2.3,3.5-3.6l3.1,2.6c-1.7,2.3-3.5,3.9-5.6,4.9
		c-2,1-4.2,1.5-6.5,1.5c-2.1,0-4-0.4-5.8-1.2c-1.8-0.8-3.3-1.9-4.6-3.3c-1.3-1.4-2.3-3.1-3-5c-0.7-1.9-1.1-4-1.1-6.3
		c0-2.3,0.4-4.4,1.1-6.3c0.7-1.9,1.7-3.6,3-5c1.3-1.4,2.8-2.5,4.5-3.3c1.7-0.8,3.6-1.2,5.6-1.2c2.2,0,4.1,0.4,5.8,1.2
		c1.7,0.8,3.1,1.9,4.2,3.2c1.1,1.4,2,2.9,2.6,4.7C240.2,467.8,240.5,469.7,240.5,471.8z M236.3,470.3c-0.1-2.8-1-5.2-2.6-7.1
		c-1.6-1.9-3.8-2.8-6.8-2.8c-1.4,0-2.6,0.3-3.8,0.8c-1.2,0.5-2.2,1.3-3.1,2.2c-0.9,0.9-1.6,2-2.1,3.2c-0.5,1.2-0.8,2.4-0.9,3.7
		L236.3,470.3L236.3,470.3z"/>
	<path fill="#939598" d="M272.4,477.2l9.5,10.6h-6l-6-6.8c-1.8,2.6-3.7,4.5-5.7,5.7c-2,1.2-4.5,1.8-7.4,1.8c-1.8,0-3.5-0.3-5.1-0.8
		c-1.6-0.6-3-1.4-4.2-2.4c-1.2-1.1-2.2-2.4-2.9-3.9c-0.7-1.6-1.1-3.4-1.1-5.5c0-1.7,0.2-3.3,0.8-4.6c0.5-1.4,1.2-2.6,2.1-3.7
		c0.9-1.1,1.9-2.1,3.1-2.9c1.2-0.9,2.5-1.6,3.9-2.3c-0.6-0.7-1.3-1.4-1.9-2.3c-0.6-0.8-1.2-1.7-1.7-2.5c-0.5-0.9-0.9-1.8-1.2-2.8
		c-0.3-1-0.5-2-0.5-3c0-1.7,0.3-3.2,0.8-4.6c0.6-1.3,1.3-2.5,2.3-3.4c1-0.9,2.1-1.6,3.4-2.1c1.3-0.5,2.6-0.7,4.1-0.7
		c1.4,0,2.7,0.2,4,0.7c1.2,0.5,2.3,1.1,3.3,2c0.9,0.9,1.7,2,2.2,3.2c0.5,1.3,0.8,2.7,0.8,4.4c0,1.5-0.3,2.9-0.8,4.1
		c-0.5,1.2-1.3,2.3-2.2,3.3c-0.9,1-1.9,1.8-3.1,2.6c-1.1,0.8-2.3,1.5-3.5,2.1l9.9,11l5.9-11.1h4.9L272.4,477.2z M255.8,465.3
		c-2.6,1.2-4.5,2.7-5.8,4.4c-1.3,1.7-2,3.8-2,6.2c0,1.3,0.2,2.5,0.7,3.5c0.5,1.1,1.1,2,1.9,2.7c0.8,0.8,1.8,1.3,2.9,1.8
		c1.1,0.4,2.2,0.6,3.4,0.6c2.3,0,4.3-0.6,5.8-1.7c1.5-1.1,3-2.8,4.4-5L255.8,465.3z M264.8,451.2c0-1.9-0.6-3.4-1.7-4.6
		c-1.1-1.2-2.6-1.8-4.3-1.8c-1.9,0-3.4,0.6-4.6,1.9c-1.2,1.3-1.8,3-1.8,5.1c0,0.8,0.2,1.7,0.5,2.5c0.3,0.9,0.7,1.7,1.2,2.5
		c0.5,0.8,1,1.5,1.5,2.1c0.5,0.6,1,1.1,1.4,1.5c1-0.5,1.9-1,2.8-1.6c0.9-0.6,1.7-1.2,2.5-2c0.7-0.7,1.3-1.6,1.8-2.5
		C264.6,453.4,264.8,452.3,264.8,451.2z"/>
	<path fill="#414042" d="M289.6,483.6h22.7v4.1h-27.1v-45.7h26.3v4.1h-22v15.7h20.6v4.1h-20.6L289.6,483.6L289.6,483.6z"/>
	<path fill="#414042" d="M340.4,482.7c-1.2,1.9-2.8,3.4-4.7,4.4c-1.9,1-3.9,1.5-5.9,1.5c-2.2,0-4.2-0.4-6-1.2
		c-1.8-0.8-3.3-1.9-4.6-3.4c-1.3-1.4-2.2-3.1-2.9-5c-0.7-1.9-1.1-4-1.1-6.3c0-2.2,0.3-4.3,1.1-6.3c0.7-1.9,1.7-3.6,2.9-5
		c1.3-1.4,2.8-2.5,4.6-3.4c1.8-0.8,3.8-1.2,6-1.2c2,0,4,0.5,5.9,1.5c1.9,1,3.5,2.5,4.7,4.5h0.1V439h4.1v48.8h-4.1v-5.1L340.4,482.7
		L340.4,482.7z M319.6,472.7c0,1.7,0.2,3.3,0.7,4.7c0.5,1.5,1.2,2.8,2.1,3.9c0.9,1.1,2,2,3.3,2.6c1.3,0.6,2.8,0.9,4.5,0.9
		c1.6,0,3-0.3,4.3-0.9c1.3-0.6,2.5-1.5,3.4-2.5c1-1.1,1.7-2.4,2.3-3.8c0.5-1.5,0.8-3.1,0.8-4.8c0-1.7-0.3-3.3-0.8-4.8
		c-0.5-1.5-1.3-2.8-2.3-3.9c-1-1.1-2.1-2-3.4-2.6c-1.3-0.6-2.8-0.9-4.3-0.9c-1.7,0-3.2,0.3-4.5,1c-1.3,0.6-2.4,1.5-3.3,2.6
		c-0.9,1.1-1.6,2.4-2.1,3.9C319.8,469.4,319.6,471,319.6,472.7z"/>
	<path fill="#414042" d="M372.7,487.8c-0.1-0.8-0.1-1.7-0.2-2.7c0-1-0.1-1.8-0.1-2.5h-0.1c-0.8,1.8-2.1,3.2-3.9,4.3
		c-1.8,1.1-3.7,1.6-5.7,1.6c-3.6,0-6.2-1.1-8-3.4c-1.8-2.3-2.7-5.3-2.7-9v-18.5h4.1v16.7c0,1.6,0.1,3,0.4,4.3
		c0.2,1.3,0.6,2.4,1.2,3.3c0.6,0.9,1.4,1.6,2.3,2.2c1,0.5,2.2,0.8,3.7,0.8c1.1,0,2.1-0.2,3.2-0.7c1-0.5,1.9-1.2,2.7-2.2
		c0.8-1,1.4-2.2,1.9-3.7c0.5-1.5,0.7-3.2,0.7-5.3v-15.5h4.1v23.6c0,0.8,0,1.9,0.1,3.2c0,1.3,0.1,2.5,0.2,3.5H372.7L372.7,487.8z"/>
	<path fill="#414042" d="M404.1,464.5c-0.7-1.2-1.7-2.1-3-2.9c-1.3-0.8-2.7-1.1-4.2-1.1c-1.6,0-3.1,0.3-4.4,0.9
		c-1.3,0.6-2.5,1.5-3.4,2.6c-0.9,1.1-1.7,2.4-2.2,3.9c-0.5,1.5-0.8,3.1-0.8,4.8c0,1.7,0.2,3.3,0.8,4.8c0.5,1.5,1.2,2.7,2.1,3.8
		c0.9,1.1,2,2,3.4,2.6c1.3,0.6,2.8,0.9,4.4,0.9c1.8,0,3.3-0.4,4.6-1.1c1.2-0.7,2.3-1.7,3.1-2.8l3.1,2.5c-1.2,1.6-2.7,2.9-4.4,3.8
		c-1.7,0.9-3.8,1.4-6.3,1.4c-2.3,0-4.3-0.4-6.2-1.2c-1.8-0.8-3.4-1.9-4.7-3.3c-1.3-1.4-2.3-3.1-3-5c-0.7-1.9-1.1-4-1.1-6.3
		c0-2.3,0.4-4.4,1.1-6.3c0.7-1.9,1.7-3.6,3-5c1.3-1.4,2.9-2.5,4.7-3.3c1.8-0.8,3.9-1.2,6.2-1.2c1.9,0,3.8,0.4,5.7,1.3
		c1.9,0.9,3.5,2.2,4.7,3.9L404.1,464.5z"/>
	<path fill="#414042" d="M428.4,468.2c0-2.6-0.6-4.5-1.9-5.8c-1.3-1.3-3.1-1.9-5.6-1.9c-1.7,0-3.2,0.3-4.7,1
		c-1.4,0.6-2.7,1.5-3.7,2.6l-2.3-2.9c1.2-1.2,2.7-2.3,4.6-3.1c1.9-0.8,4.1-1.2,6.5-1.2c1.5,0,2.9,0.2,4.3,0.7c1.3,0.5,2.5,1.1,3.5,2
		c1,0.9,1.8,2,2.3,3.4c0.6,1.4,0.8,3,0.8,4.8V481c0,1.2,0,2.4,0.1,3.6c0.1,1.2,0.2,2.3,0.4,3.2H429c-0.1-0.7-0.2-1.5-0.3-2.4
		c-0.1-0.9-0.1-1.7-0.1-2.5h-0.1c-1.3,2-2.7,3.5-4.4,4.4c-1.6,0.9-3.6,1.3-5.9,1.3c-1.1,0-2.2-0.2-3.3-0.5c-1.1-0.3-2.2-0.9-3.1-1.6
		c-0.9-0.7-1.7-1.7-2.3-2.8c-0.6-1.2-0.9-2.6-0.9-4.3c0-2.3,0.5-4.2,1.7-5.5c1.1-1.4,2.6-2.4,4.4-3c1.8-0.7,4-1.1,6.3-1.3
		c2.4-0.2,4.9-0.3,7.4-0.3L428.4,468.2L428.4,468.2z M427.2,472.7c-1.7,0-3.4,0.1-5.1,0.2c-1.7,0.2-3.2,0.5-4.6,0.9
		c-1.4,0.5-2.5,1.1-3.4,2c-0.9,0.9-1.3,2-1.3,3.4c0,1.1,0.2,2,0.6,2.7c0.4,0.7,0.9,1.3,1.5,1.8c0.6,0.5,1.4,0.8,2.1,1
		c0.8,0.2,1.6,0.3,2.4,0.3c1.4,0,2.7-0.3,3.8-0.8c1.1-0.5,2.1-1.3,2.8-2.2c0.8-0.9,1.3-2,1.7-3.2c0.4-1.2,0.6-2.5,0.6-3.8v-2.3
		L427.2,472.7L427.2,472.7z"/>
	<path fill="#414042" d="M451.5,461.2h-7.9v17.6c0,1.1,0.1,2,0.3,2.8c0.2,0.7,0.5,1.3,0.9,1.7c0.4,0.4,0.8,0.7,1.4,0.8
		c0.5,0.2,1.1,0.2,1.7,0.2c0.6,0,1.1-0.1,1.8-0.3c0.6-0.2,1.2-0.4,1.8-0.7l0.2,3.8c-0.7,0.3-1.5,0.5-2.3,0.7
		c-0.8,0.2-1.6,0.2-2.6,0.2c-0.8,0-1.6-0.1-2.4-0.3c-0.8-0.2-1.6-0.6-2.3-1.2c-0.7-0.6-1.3-1.4-1.8-2.5c-0.5-1-0.7-2.4-0.7-4.1
		v-18.8h-5.8v-3.7h5.8V449h4.1v8.5h7.9L451.5,461.2L451.5,461.2z"/>
	<path fill="#414042" d="M459.6,445.9c0,0.9-0.3,1.6-0.9,2.2c-0.6,0.6-1.3,0.9-2,0.9c-0.7,0-1.4-0.3-2-0.9c-0.6-0.6-0.9-1.3-0.9-2.2
		c0-0.9,0.3-1.6,0.9-2.2c0.6-0.6,1.3-0.9,2-0.9c0.7,0,1.4,0.3,2,0.9C459.3,444.3,459.6,445,459.6,445.9z M458.8,487.8h-4.1v-30.2
		h4.1V487.8z"/>
	<path fill="#414042" d="M494.3,472.7c0,2.3-0.4,4.4-1.1,6.3c-0.7,1.9-1.8,3.6-3.1,5c-1.3,1.4-2.9,2.5-4.7,3.3
		c-1.8,0.8-3.9,1.2-6.1,1.2c-2.2,0-4.2-0.4-6-1.2c-1.8-0.8-3.4-1.9-4.7-3.3c-1.3-1.4-2.4-3.1-3.1-5c-0.7-1.9-1.1-4-1.1-6.3
		c0-2.3,0.4-4.4,1.1-6.3c0.7-1.9,1.8-3.6,3.1-5c1.3-1.4,2.9-2.5,4.7-3.3c1.8-0.8,3.8-1.2,6-1.2c2.2,0,4.2,0.4,6.1,1.2
		c1.8,0.8,3.4,1.9,4.7,3.3c1.3,1.4,2.3,3.1,3.1,5C494,468.3,494.3,470.4,494.3,472.7z M490,472.7c0-1.7-0.3-3.3-0.8-4.7
		c-0.5-1.5-1.2-2.8-2.1-3.9c-0.9-1.1-2-2-3.4-2.6c-1.3-0.6-2.8-1-4.4-1c-1.6,0-3.1,0.3-4.4,1c-1.3,0.6-2.4,1.5-3.3,2.6
		c-0.9,1.1-1.6,2.4-2.1,3.9c-0.5,1.5-0.8,3.1-0.8,4.7c0,1.7,0.2,3.3,0.8,4.7c0.5,1.5,1.2,2.8,2.1,3.9c0.9,1.1,2,2,3.3,2.6
		c1.3,0.6,2.8,0.9,4.4,0.9c1.6,0,3.1-0.3,4.4-0.9c1.3-0.6,2.4-1.5,3.4-2.6c0.9-1.1,1.6-2.4,2.1-3.9C489.8,475.9,490,474.3,490,472.7
		z"/>
	<path fill="#414042" d="M503.5,457.6c0.1,0.8,0.1,1.7,0.2,2.7c0,1,0.1,1.8,0.1,2.5h0.1c0.8-1.8,2.1-3.2,3.9-4.3
		c1.8-1.1,3.7-1.6,5.7-1.6c3.6,0,6.2,1.1,8,3.4c1.8,2.3,2.7,5.3,2.7,9v18.5h-4.1V471c0-1.6-0.1-3-0.4-4.3c-0.2-1.3-0.7-2.4-1.2-3.3
		c-0.6-0.9-1.4-1.6-2.3-2.2c-1-0.5-2.2-0.8-3.7-0.8c-1.1,0-2.1,0.2-3.2,0.7c-1,0.5-1.9,1.2-2.7,2.2c-0.8,1-1.4,2.2-1.9,3.7
		c-0.5,1.5-0.7,3.2-0.7,5.3v15.5h-4.1v-23.6c0-0.8,0-1.9-0.1-3.2c0-1.3-0.1-2.5-0.2-3.5L503.5,457.6L503.5,457.6z"/>
	<path fill="#939598" d="M536,483.6h19.8v4.1h-24.1v-45.7h4.3V483.6z"/>
	<path fill="#939598" d="M571.5,461.2h-7.9v17.6c0,1.1,0.1,2,0.3,2.8c0.2,0.7,0.5,1.3,0.9,1.7c0.4,0.4,0.8,0.7,1.4,0.8
		c0.5,0.2,1.1,0.2,1.7,0.2c0.6,0,1.1-0.1,1.8-0.3c0.6-0.2,1.2-0.4,1.8-0.7l0.2,3.8c-0.7,0.3-1.5,0.5-2.3,0.7
		c-0.8,0.2-1.6,0.2-2.6,0.2c-0.8,0-1.6-0.1-2.4-0.3c-0.8-0.2-1.6-0.6-2.3-1.2c-0.7-0.6-1.3-1.4-1.8-2.5c-0.5-1-0.7-2.4-0.7-4.1
		v-18.8h-5.8v-3.7h5.8V449h4.1v8.5h7.9L571.5,461.2L571.5,461.2z"/>
	<path fill="#939598" d="M597.7,482.7c-1.2,1.9-2.8,3.4-4.7,4.4c-1.9,1-3.9,1.5-5.9,1.5c-2.2,0-4.2-0.4-6-1.2
		c-1.8-0.8-3.3-1.9-4.6-3.4c-1.3-1.4-2.2-3.1-2.9-5c-0.7-1.9-1.1-4-1.1-6.3c0-2.2,0.3-4.3,1.1-6.3c0.7-1.9,1.7-3.6,2.9-5
		c1.3-1.4,2.8-2.5,4.6-3.4c1.8-0.8,3.8-1.2,6-1.2c2,0,4,0.5,5.9,1.5c1.9,1,3.5,2.5,4.7,4.5h0.1V439h4.1v48.8h-4.1v-5.1L597.7,482.7
		L597.7,482.7z M576.9,472.7c0,1.7,0.2,3.3,0.7,4.7c0.5,1.5,1.2,2.8,2.1,3.9c0.9,1.1,2,2,3.3,2.6c1.3,0.6,2.8,0.9,4.5,0.9
		c1.6,0,3-0.3,4.3-0.9c1.3-0.6,2.5-1.5,3.4-2.5c1-1.1,1.7-2.4,2.3-3.8c0.5-1.5,0.8-3.1,0.8-4.8c0-1.7-0.3-3.3-0.8-4.8
		c-0.5-1.5-1.3-2.8-2.3-3.9c-1-1.1-2.1-2-3.4-2.6c-1.3-0.6-2.8-0.9-4.3-0.9c-1.7,0-3.2,0.3-4.5,1c-1.3,0.6-2.4,1.5-3.3,2.6
		c-0.9,1.1-1.6,2.4-2.1,3.9C577.1,469.4,576.9,471,576.9,472.7z"/>
</g>
<rect x="45" y="294.1" fill="#00AEEF" width="33.4" height="138.3"/>
<rect x="126.8" y="294.1" fill="#7053A3" width="33.4" height="138.3"/>
<polygon fill="#FEBE27" points="452.3,432.4 414.4,432.4 326.5,294.1 364.6,294.1 "/>
<rect x="475" y="294.1" fill="#71BF44" width="32.6" height="138.3"/>
</svg>
